<mxfile host="app.diagrams.net" modified="2023-04-26T02:42:05.803Z" agent="Mozilla/5.0 (Macintosh; Intel Mac OS X 10_15_7) AppleWebKit/537.36 (KHTML, like Gecko) Chrome/112.0.0.0 Safari/537.36" etag="YiXLbK7rxcA_0BJnV3lQ" version="21.2.1" type="github">
  <diagram name="第 1 页" id="EYEnXeu-mFP-NLTV6ISe">
    <mxGraphModel dx="1379" dy="1148" grid="1" gridSize="10" guides="1" tooltips="1" connect="1" arrows="1" fold="1" page="1" pageScale="1" pageWidth="827" pageHeight="1169" math="0" shadow="0">
      <root>
        <mxCell id="0" />
        <mxCell id="1" parent="0" />
        <mxCell id="rCrafW-iuFekdM2OdFgw-1" value="" style="shape=image;verticalLabelPosition=bottom;labelBackgroundColor=default;verticalAlign=top;aspect=fixed;imageAspect=0;image=data:image/png,iVBORw0KGgoAAAANSUhEUgAAANMAAAOKCAYAAAABbmV7AAAK4WlDQ1BJQ0MgUHJvZmlsZQAASImVlwdUU2kWgP/30kNCS6hSQu9IEQggJfRQpFdRCUkgocSYgooNEXEExoKKCJYBHaUJjo6AjAURxcIgYFd0QBYFZRws2FDZByxhZvbs7tl7zv/ud+67/y3/eX/ODQDkYJZQmAErApApkIgi/L1ocfEJNNwQIAJNQABKQJHFFgsZYWHBAJFZ/Vd5fxdAU/qW1VSsf3//X0WZwxWzAYASEU7miNmZCLcia4wtFEkAQJ1A7AYrJcIpvo0wVYQUiPDwFKfO8JcpTp5mtOK0T1SEN8KGAOBJLJYoFQCSDWKnZbFTkTikMIRtBBy+AOEchN3ZPBYHYSQvsMzMXD7FowibIv5CAMhUhOnJf4qZ+pf4ybL4LFaqjGf6mha8D18szGCt/j+P5n9LZoZ0Nocxskg8UUAEotWR87ufvjxIxoLkRaGzzOdM+08zTxoQPctssXfCLHNYPkGyvRmLgmc5he/HlMWRMKNmmSv2jZxl0fIIWa4UkTdjllmiubzS9GiZncdlyuJn86JiZzmLH7NolsXpkUFzPt4yu0gaIaufK/D3msvrJ+s9U/ynfvlM2V4JLypA1jtrrn6ugDEXUxwnq43D9fGd84mW+QslXrJcwowwmT83w19mF2dFyvZKkI9zbm+Y7AzTWIFhswx8QBiwAwGIDgFMQAO2wAk4AhsJd5Vkqhnv5cLVIn4qT0JjIDeOS2MK2NaWNDsbO1sApu7vzCfxNnz6XkKqnXM2CXKObr8jd6Z7zpaAnFAdElfNfs5mitShchCAZnO2VJQ1Y0NPPTDIL4MCoAINoAMMgCmwQup0BK7AE/iCQBAKokA8WArYgAcygQisBGvBRpAPCsEOsAeUgUPgMKgCx8FJ0ATOgovgCrgBusEd8Aj0gyHwEoyB92ACgiAcRIYokAakCxlBFpAdRIfcIV8oGIqA4qEkKBUSQFJoLbQJKoSKoTKoAqqGfoLOQBeha1AP9AAagEagN9BnGAWTYCqsDRvD82E6zICD4Ch4CZwKr4Cz4Tx4G1wKV8J1cCN8Eb4B34H74ZfwOAqg5FCqKD2UFYqO8kaFohJQKSgRaj2qAFWCqkTVo1pQHahbqH7UKOoTGoumoGloK7QrOgAdjWajV6DXo4vQZegqdCO6HX0LPYAeQ3/DkDFaGAuMC4aJicOkYlZi8jElmKOY05jLmDuYIcx7LBarijXBOmEDsPHYNOwabBH2ALYB24rtwQ5ix3E4nAbOAueGC8WxcBJcPm4frg53AdeLG8J9xMvhdfF2eD98Al6Az8WX4Gvw5/G9+Of4CYIiwYjgQgglcAirCdsJRwgthJuEIcIEUYloQnQjRhHTiBuJpcR64mViH/GtnJycvpyzXLgcXy5HrlTuhNxVuQG5TyRlkjnJm5RIkpK2kY6RWkkPSG/JZLIx2ZOcQJaQt5GryZfIT8gf5Sny1vJMeY78Bvly+Ub5XvlXCgQFIwWGwlKFbIUShVMKNxVGFQmKxoreiizF9YrlimcU7ymOK1GUbJVClTKVipRqlK4pDSvjlI2VfZU5ynnKh5UvKQ9SUBQDijeFTdlEOUK5TBmiYqkmVCY1jVpIPU7too6pKKssUIlRWaVSrnJOpV8VpWqsylTNUN2uelL1rupnNW01hhpXbatavVqv2gf1eeqe6lz1AvUG9TvqnzVoGr4a6Ro7NZo0HmuiNc01wzVXah7UvKw5Oo86z3Uee17BvJPzHmrBWuZaEVprtA5rdWqNa+to+2sLtfdpX9Ie1VHV8dRJ09mtc15nRJei667L192te0H3BU2FxqBl0Epp7bQxPS29AD2pXoVel96Evol+tH6ufoP+YwOiAd0gxWC3QZvBmKGuYYjhWsNaw4dGBCO6Ec9or1GH0QdjE+NY4y3GTcbDJuomTJNsk1qTPlOyqYfpCtNK09tmWDO6WbrZAbNuc9jcwZxnXm5+0wK2cLTgWxyw6LHEWDpbCiwrLe9ZkawYVllWtVYD1qrWwda51k3Wr+Ybzk+Yv3N+x/xvNg42GTZHbB7ZKtsG2ubatti+sTO3Y9uV2922J9v72W+wb7Z/vcBiAXfBwQX3HSgOIQ5bHNocvjo6OYoc6x1HnAydkpz2O92jU+lh9CL6VWeMs5fzBuezzp9cHF0kLidd/nC1ck13rXEdXmiykLvwyMJBN303lluFW787zT3J/Qf3fg89D5ZHpcdTTwNPjudRz+cMM0Yao47xysvGS+R12uuDt4v3Ou9WH5SPv0+BT5evsm+0b5nvEz99v1S/Wr8xfwf/Nf6tAZiAoICdAfeY2kw2s5o5FugUuC6wPYgUFBlUFvQ02DxYFNwSAocEhuwK6VtktEiwqCkUhDJDd4U+DjMJWxH2Szg2PCy8PPxZhG3E2oiOSErkssiayPdRXlHbox5Fm0ZLo9tiFGISY6pjPsT6xBbH9sfNj1sXdyNeM54f35yAS4hJOJowvth38Z7FQ4kOifmJd5eYLFm15NpSzaUZS88tU1jGWnYqCZMUm1ST9IUVyqpkjSczk/cnj7G92XvZLzmenN2cEa4bt5j7PMUtpThlONUtdVfqCM+DV8Ib5Xvzy/iv0wLSDqV9SA9NP5Y+mRGb0ZCJz0zKPCNQFqQL2pfrLF+1vEdoIcwX9q9wWbFnxZgoSHRUDImXiJslVGRQ6pSaSjdLB7Lcs8qzPq6MWXlqldIqwarO1eart65+nu2X/eMa9Br2mra1ems3rh1Yx1hXsR5an7y+bYPBhrwNQzn+OVUbiRvTN/6aa5NbnPtuU+ymljztvJy8wc3+m2vz5fNF+fe2uG459B36O/53XVvtt+7b+q2AU3C90KawpPBLEbvo+ve235d+P7ktZVvXdsftB3dgdwh23N3psbOqWKk4u3hwV8iuxt203QW73+1ZtudayYKSQ3uJe6V7+0uDS5v3Ge7bse9LGa/sTrlXecN+rf1b9384wDnQe9DzYP0h7UOFhz7/wP/hfoV/RWOlcWXJYezhrMPPjsQc6fiR/mP1Uc2jhUe/HhMc66+KqGqvdqqurtGq2V4L10prR+oS67qP+xxvrreqr2hQbSg8AU5IT7z4KemnuyeDTradop+q/9no5/2nKacLGqHG1Y1jTbym/ub45p4zgWfaWlxbTv9i/cuxs3pny8+pnNt+nng+7/zkhewL463C1tGLqRcH25a1PboUd+l2e3h71+Wgy1ev+F251MHouHDV7erZay7XzlynX2+64XijsdOh8/SvDr+e7nLsarzpdLO527m7pWdhz/lej96Lt3xuXbnNvH3jzqI7PXej796/l3iv/z7n/vCDjAevH2Y9nHiU04fpK3is+LjkidaTyt/Mfmvod+w/N+Az0Pk08umjQfbgy3+I//FlKO8Z+VnJc93n1cN2w2dH/Ea6Xyx+MfRS+HJiNP93pd/3vzJ99fMfnn90jsWNDb0WvZ58U/RW4+2xdwvetY2HjT95n/l+4kPBR42PVZ/onzo+x35+PrHyC+5L6Vezry3fgr71TWZOTgpZItb0KIBCFpySAsCbY8h8HA8ApRsA4uKZ+XpaoJn/BNME/hPPzODT4ghABTKPxRIBCNoMQNkAACb1SNxGAMLIAEQ5A9jeXrb+JeIUe7uZWCRk9sM8mZx8i8zBuF0AfN0xOTlROTn59TBSbB8ArYKZuX56VEbi59TZOjnadPedygF/k5mZ/089/l2DqQqma/iL/icyIhuekE5r9gAAADhlWElmTU0AKgAAAAgAAYdpAAQAAAABAAAAGgAAAAAAAqACAAQAAAABAAAA06ADAAQAAAABAAADigAAAAC+7+tPAABAAElEQVR4AeydB7gkRfX2myAiIgILCwu6gIggWeSTJDlIBskgsETBP0gSZAnKiuSwgoCCqGQWQXKOgmQkg2TYJS4gUaLEb35nObM1fXtmuvvWzJ07857nuXemu6uru9+ut8+p01NvTfLWf9/7PJEJASHQbwQm7XcNqkAICAFDQGRSQxACkRAQmSIBqWqEgMikNiAEIiEgMkUCUtUIAZFJbUAIREJAZIoEpKoRAiKT2oAQiISAyBQJSFUjBEQmtQEhEAkBkSkSkKpGCEzuEHxp8skS/iaZJEk+/1w/13Nc9CkE8iJgZJpqyikq5SHQ5xUi5d1V5YSAEAgRmOTjjz+uOCIxKARF34VAGQQmFZHKwKZ9hEBfBJSA6IuJ1giBUgiITKVg005CoC8CIlNfTLRGCJRCQGQqBZt2EgJ9ERCZ+mKiNUKgFAIiUynYtJMQ6ItA9RcQfTdlryGV/tlnn038lYTeUWUDpbXdgQA/CarYJJXPSSed1D7rXVghMn366afJ5xUiyYRAzyDwhbPAiXxaafuTVAg12WSTZV5+7jBPRMrETyt7DAGcCVzIslxkEpGyoNO6XkWgHqGakgn3ptCuV5uNrrseAnAi/VO8pmQi2SATAkKgLwJpbjQlU5p9favUGiHQmwikudGUTL0Jk65aCBRHoDmZ9B6pOKraozcQSHGjOZkiwJKOLSNUqSqEQGkE0uFZ6YpSOxZ6aZvat2YxPVb3ww//l7z3wYfJh//7X/Lxx59UyqZL1OyuBSFQRWCKKaZIPvv4f9Xl2F/4NcPkk0+eTDnllMlUU02VfOlLX8p1iAm/hahfNBqZ/BCw/s23/pu8/+GHyZDppk1mHjpj5WSjH8YPp88uROCRx59M5p37Oy27MtpoRa4heffdd5PXX389+cpXvpJMO+20fVLdRU8gapj3WeUkX33tjWTSySZNvjPnHMmQ6acTkYreEZVvOQJ4Jrzf9NNPn8wxxxz2m7uXXnqp4e/u8pxUVDK9VfFIX/7yFMksM8+U59gqIwQGHAGINdNMMyVTTz118tZbb/XrfKKRiT4SoZ2I1K/7oZ0HCIGhQ4cmH3zwgYV/ZU8hGplINtBHkgmBwYgAHop+0/vvv1/69KORiazdNF/7WukT0Y5CYKARINT7sBJdlbUoZOI9EulvZe3K3gbt1wkIkCL/5BNe45SzKGRiBKLeI5W7AdqrcxAg1OvPC90BfwFErp+L+OpXv1pFlacD7wH4m2aaaarrG315++23bfPXv/71RsWibSt7vP/+97/J/yoh8YwzzhjtXHq5oueffz65/fbbEz7dllhiiWTJJZf0xbZ9DjiZ/vOf/9jbaMhEavKZZ56xZbIrEO21115LaIDEs9/+9rcNGEiWTmO++uqrtu2jjz6qAY9OZfiGmw7mgw8+WFMmvTB8+PBklllmSa+uWX7jjTdsuRF5CX/THVqI9Nhjj1VeIXzZ3m+ElfLysN6Q6LCcvk9A4LbbbjMiffOb30w22mgjW+nkgmCsY1u7bMDJFF4oxIJE3/jGN5KXX37ZNgEGpHruueeqRfFcb775ZnWZL95xTK+HhCGZaOCEpQsttFDN/r7w7LPP9ombafxpe+edd2wV5EjbPPPMY6sg0r333msPgrAMD46nnnoqXGXfv/Od7/Qp26eQVhgCTqS0F6K94JXOPffcKtHaBdmAkYmh8E888YQRhcbtP4aFDGzjyY3hAdIEYZk32KFN6LclfdZTlid+aISVXn+4nu9eT7gecqdjad6YY2kPRt2hcZxFFlmken1PPvlkMsMMMyTTTTddWMxC3fS+NQW0UIPACy+8kKSJFBZgG4TCU7XLOw0YmQhnvvvd7yZjx461sI4LpqHxNhrv5J7J306HT3Ia8re+9a0qSei/EPrNN998NWTgJRxhY7rBh6Dn+Y53S5uT+Ws5XgcQgnL+PDB4UPB7sLRxzR7GprdpuS8CkISHXD1rF4HC4w8YmcKTCL+PHz8+gRyESPR/IBhECQ0i8otfPA6g0q9aYIEFbBlPxPJcc81l3iTL0xAmeh8rrJfvENCJ4tsgwc033+yL9umeKgw/2bDUUkvZw8EL420gCn9cC79W5vdgeFz6W+ojOVLFP5sRhu094ZlC6EgmQAIamXfYaaw0RM/mhQ38e9/7nu3+yCOP2FOezNi4ceOsr0Mfxvss/LyeECttkMk9X3obx08nFSAkJMljkMWN43h/DZK+8soryWKLLWab8VR40jCL6fvpszkCeYjSzHs1P0qxEhPvfLH9+l0ar8PF0sDwMngSzBsjDZg/X856gkM+XD2eCE9DSDj//PNbsoIEwbBhwzLPk+MtuOCCmdvCcDIswPEhN9sJMTlvPNass85qxfCeJErCvhDrnEx4MPpP3tdiG9/9IYHnSvftwuPrey0C3HcydvVS4CQosHrba2uLsxTlpW2ZU6HvgJG6xrPQ98BDPfzww8mLL75Yzc4R9tGA6XCGBlkgEd4Jb0J/Ay8GqbzRp9Pn4f5FvnOsf/3rX7YLBIBEeBQeBh7usY5z8euiMIRxsnCN/FHe9/HvvlzknHq9LCTBOx199NGJE8cx8UxfszDQy8f6HDDPxFN4zjnntASEXwwXjyeCEPPOO695Jjrrjz76aDL77LN7MfskjQ6JIBBeA7LRkGmweAPSzKS0CfO8QddUUGCBc0gnGjgux2EbDwSMT8JH91Z4X/dMjJ3hz41rpJzCPEek+CfvkZw4eCkP/ajJv7O9Xd5pwMhUDzpCs/fee89erBK24ZXoA9H/CY1Qi3dLeK7ZZpvNPtlv5plnthCMhgoB+kskjglhsjKChKaEbv4ejJe9pPudTHhGvj/00EOWTAnPn3PHk4UJEsLWkHBheX3PRsA9FFECRkrcPZITjfXtINSAkykd4hAakYomnKIx4mnST28aIi9XSVrQgAnrQsNj3Xnnndafon8UNljKsX+9X0Gwb0gcEhqQlPPAOBbLJCk8OUL/CU+LZ/LtkIzwEHKwLX2d//73v83bcn5u4Xdfp8/mCEAeJ1BY2gmE18J8OSwT8/uAkYkQ6Omnn7Z+D++bIA7vhGi8NFx+oYBXIRyi4dEY8VB4G4iAB8IzQJRxlUwe3mPIkCG2z9xzz22EYf0DDzyQePbPgSP0ygKf7Z4gCMuS1PBECIkCju/hG+fFH5k5bNFFFzVCcT2e+s56T8V5423TDwo/rj7jIOAEagehJqk06oayQZ9UPEUeG/v8ixURjAkZuTzlKcO7FghDYyON7E/8rP0JpXjCZ2X16D9heIH0dhp66Lk4Dr/1qxdOcRxv6FnnwTq8JwkHN64hPIav58GAh8oyHhJk/pyUWWV6dd0EQZVibakZVoR89Kv9N3z1yhOm13sZXBv/TKhh8sqD2W3APBMnEDZonvzp9zt+knxmPd19u4dgvhx+phs5xwmPG5ble6PjeNm8BKhHJOrBw8nah4B7qFYeMUpqfMJTOou3rTx11S0E4iKQjmKK1h6FTIRFjLL9+OPyoxSLnrjKC4HYCBC+e9+4TN1RyMSBp6z0Df5byV7JhMBgRYD+cqPQvNl1RSPTV78yZfL6m/3THWt2stouBFqFACEeGViSXGUtGpmmnPLLyVSVdyYvvfxK2XPRfkJgwBAgu8p7vrzJpawTjUYmKp9u2mkq74k+EqGykNa6jkQAj8RLd15j8A4znf0tctJRycSJDJ1h+uSzTz9Lnnh6bPL6G28qKVHkbqhsWxCAQPxogPecDE7lN52886P99odM0V7apt/8akqZtrSLrjwIL8HbMaUMyQZCOzJ4ZKT5a2RZL3/a8tKWPhR/MiFQFAF+pdJOg0T98Uh+rgP6Cwg/CX0KgXYj4CGdf8Y4vsgUA0XVERWB/rw4jXoiBStrHCQWrEzFhUAvIyAy9fLd17VHRUBkigqnKutlBESmXr77uvaoCIhMUeFUZb2MgLJ5vXz3de2FEEj/MCG9szxTGhEtC4GSCAwKz3T33XeXujzETTrRGJn8hz/8Idl+++3rjp/ht2P8ALOe8AvX9c9//tNEZvIMgUfPD32MRkP862GF0A1SWssuu2y9IjXrEexEggDtwtDQYUD6DGm2brSW/TYvJlj15lLyY/y///f/ku9///u+mJx44on2HWWiGIasGBJgqCj1x/hl8uOPP25V/P73v084b3TeMHQAL7/8ciMQx0NAk4fBb37zG9ue9W/HHXdMNt10UysXbuelZ3qQ21577WXEXHvttU24BvEa/lDP5Vj8rbDCCsn//d//hVXZr6k5BupLq6++es02FtD6QynKjYfAmmuuabJaTibOZ5VVVknWWGMNq4N93FiPJNoVV1zhq+wTbfd99tmnZp0v/PCHP0z2228/XxzQz3DIRss8E96kXZ4BIv3sZz8zUDmukykWypdeeqn9uhgp3v4Yqkgnn3yyVcEgNKSg+cN+/vOfJ7/73e+S3/72t8mGG25YVyfdCgf/fvWrX/UR2oSg1OOGZ7nllluSCy+8MNl///1NBo0feEJshEbwOD/96U/7eEEGy1EPv6rmYfL3v//dqzTRT2b14KEQkunQQw81CTYa2V/+8pdkyy23tH24J0iwMczhuOOOM68MyfgFN594smuvvdZ+vU278V9yn3HGGYnf0z//+c/mjXnodKK1jEyAx5OzHYTiWPfcc08n4ltzToRYe+yxRzJ69GhrUGwk1KOBo/lHA1955ZVr9mm2cMQRRySLL7543WI0Vo7HcWj0NEi3bbbZJtlggw3MQ/o6/7zrrruSX//61+ZJmOIHwc2tttrKflkNSVjHZGKhl4FwqDttu+22NsgOkvCgu/HGG002Gk9DPRCHiROQ1PKwc/PNNzdhUUJAvkNUhkicd955th45N77Xm1jBz3sgP1tGJohEIw+9RtkLjRWucXwaxIgRI5KrrrrKntaEbtttt11Ng+Sm0VC4gT/+8Y/7/DQfD0MDpQ/AcAFClZ133rlajv3POuss25+nMSEJuup4CLbhjQ444AB7+iLEec4551hoxLQzPOlDW2aZZZKFF17YVv31r3+1/X07wpvovIUhHYKbhxxyiBdJ/vSnP9ncUuutt151XZ4vzHeFV6CxIzRCneuuu679uprr/eMf/9hnVCqimhdddJGJdPpwBsJHt/C8brjhBsMjPe+Vl+WT6yL85VfkPGj4jk4DHrMTrWVkwiPxFAR0Gmt/vBR1lDEP/cJ9UWwlFKEfwBMQUu25557WoHlS3nTTTcnhhx9u65g84IILLjDSeb+N5AH9D27wwQcfbE9PCMCvjwnV7rjjDpuZgac69Y0ZM8bW0yegsc0+++yGBfLNNIwddtjBTo+wz3/BjDeBODzhWecGiVdaaaVk/fXX91U1n/fdd59dj6/kXDj/etPneLmsTx4kqKDywCChgEfhHhK+8UAgNOQe4xX5o6G78RCFJFxHPeMhASkxZK4JV/E6hHR4RbDEy/3gBz+whxThId/pd4YErVf/QKxvGZn8YmjQHvOW9VLcnEbGTaYzj3HjvXwWmShDP2Hrrbfmq804yCwbl1xyiXW+afyQbJNNNrHtSCNvvPHG9p1/lKXRXn311dW5mAifIAcGAYnpCdswthG6kZnju9eFF8Kz+DLE4ulLI4Kwp512mn23SoJ/jAiFkFnGJAah0e/Ag3o/bZdddqmZaJsMH42Y47oRhuKNwIAEArOIoIJKP4yHBv05vDtkufXWW5PLLrvMjkHoxwOHsJHwbu+997Y63EN5/XyefvrphhdlMR4ka621lhGfY0M0jDmtdtttN/NEjIjlO5gxoUMnWsvJ5BdNI4dMrTD6S06mPPWnz4PQiBgd4xOv5UZjIMwifsd4KvIUDic1oxG55+IJThr5H//4h+mWu3Qz/QmyZ+5V+E5jp9ONEVIRMjYziMZfllFfaOnZDglFIbEbYRfhn8+0yHr6LExAAFFCkrHt/PPPNyKBCZ7JU+Vk8Pzcd911V4qaQYosMp155pnm4bwsx/nRj35kD12Oj8cCLyIIDI/Fw8bJxwTbnWgtJxMhGo2dJ1fZZASep5lBVrdm5dONhGVmxsD4DPsgrAvLs90bDtvSBonoI0FuGmkY/vAEJnzDyIwR+2+22WYm3o/n8qlo0nWGy2TC+KtnjZIRnqr2fZk0gPPzB4Gv5xPvetJJJ4WrTKMdzxSGnt5Pqin4xQIhZhaZVl111Zo6svalXlLgGPgTfvtyVvlOWNdSMnlfJ8wglbnoeuFambrYh5RwmDVj2Wc6Z2YNOvVho8Qb4XEwCMJ1hU9jZjBkH8JHkgmERYQkGO9xjjnmGPtOw+JYhEZ08OnY0z/75S9/aV6sGZl4MvvT3Cr84h99Exo4nokwKIbxTsg9D/URduJl6V+64a0bPbjo32WRif2Zm4qQOG3gyMOI/hGvCjD6p3jU5ZZbzpbRioeonWYtIxNJh7J9pDRI1FXG6pGYDjQhEB1zskqkbr1fQQPgOzcTgtGXIpu49NJL2ynw8pL+ECnp3Xff3W7yyJEjbU4nyATpCEu4+YRjaS/CsQl/3BPylOY9Ft6OhEU9g7C8syHLSCh6//3327s1iMn50QAJzSA6mcT0bCD16q23Hm/gHpkkDX1EcAlDLF62NppsgURCFpl4Kc1+HsaR5aQfRbKDhxmYrLjiitXJtJnCh+1HHXWUnW54bWBH34/UP5gedNBBhhNemH4dSRgSRu2wlpGpXkMuc1FhCJe1P09H914kO8iCNTIyaNxIbiJ9HzrLPocTHW+8CXWQOSK0IEng8zbRwE444QR7N8QvBvAGkIiOO8Z58B3yEargda688krbxpQm9957b3LggQead2IlHhLCUYY0dj3Du+GZaMx4n+uvv96ORTjJy2QIjSfBM9LwPMES1ge56Xu4ce703cgSYmTqCEXdaKQQE8JCpPTPgEjGpENH35dPGnjY8H0bDzDukxtleLDxcArJCX4YuHFuJHDSBmFJTnAswmbCbO4Z58VDhmP94he/yCR1uq7+Lnfdz4nonzn5st5P0bnlJSneAfB9Pto0kIQWPOkaTTFDJ5nMVVYfirpJ54aNiV8hcG54xSOPPNJeiNLoWQcB3IvR6CGJv4iG9DwwLr74YmvsbKcOCMj58wDYaaedLONGw6MfhgfzxkfIyc+ICKs8e5i+XpZ5OPD+C4LxgpVJ5iAw+/g0PPyKggcCZfg87LDDakJir5eHE14m7F/5NshLUsc9k68PP4kM3Ahj+Qu9HOGmz7UEHr4t/M7+6WWvM9YnJHcbFGQKn2J+4nk+sxIeIZny1NGKMsxxSyjIufjMgfRH/NcANJyzzz47+clPflI9PGlv5vt1I6SjQbI/fTo8rKeM6XeEHoNwh18qNAojvV7/hMi8FkgnY0iUjBs3zh4ivIiu9zCC+BA4i0xkO7mekDB+3MH2OejIFBNgntjhJMIx61ZdvYdAT5Op9263rriVCIRk0uDAViKtunsKAZGpp263LraVCIhMrURXdfcUAiJTT91uXWwrERCZWomu6u4pBESmnrrduthWIiAytRJd1d1TCIhMPXW7dbGtREBkaiW6qrunEBCZeup262JbiYDI1Ep0VXdPISAy9dTt1sW2EoGWDQ6MedIxh2CE58VwAsbp+I8VGYPEOKZwNGlYXt87AwFGHXOvXGrAz4qxS4zWZaxXOPSDcV8MSWHISCttUJCp2chZBtKFikMu9ZU1ODAEkxGxyAK71gG6AozVYSRs2tC9SwuMpMv4MuIx9QjJ6N30GCHfr1M/23nOr776qo2WZdg/fwzQ5A8FWe4N8l+M4UI+AP2MEEsftp8WXkGXjxHDaBm20lpGJrxJ1uC8VlxMqDXBcZ1MjY7FgDmeZE4kyjKiFP02btjw4cNrdqdclopPTaHKwhZbbGFD2cP1jJQ95ZRTTI+ApypPSAb+oRbrxnE5H4xRo2jjoUexzjrreBEbjo06UD1RFfTsGPadVoWtVlDgS55zdjwYdIgnYMYOhuGH6rE07CLnzFB1tCUYwcxIZe4T5EHKmcGPkIdBkj6yNrwkNA8Zvo4ha4Z2BJgSbfB53XXX2TbqcIk1WxHpX8vIRINmqHU7CMWxfIh3XlzYJz3jAzcNzTw8EGqtoSHckdalC7cjmcWgw3CYOtvxjtzY1VZbzcQaaRCs4xiMOEUYEuP7vvvua+L23HxEUxjGjt4DDQmjkSEVhsAM5xoaWgiIrMQYvZr3nDk+ug0IVaK0xOhhRE/ACQJhRc8ZmQCuD9lorhUyotmBl0LfghG83Ju0Si3T63AOKBiBG2KeDJsn8kAOG00OPBlRTr2owU64H/9aRiaIRIMNvUbZ82wWrhWt99RTT7V+kisOITLiWg/oJ/BkRUXIGwT14ykYTl7PfMh5ejtCJDytIYoby8Tw4EMjcRET+gD+tAc3zgsSO5l4+tPHQ9PO9Q+8TkYQo5qUJrNvL/KZ95w5Hxq1N2zOGVKjHeHYlTlniAEZePBAKjBA0Ia+EFoZoQAo14W3h2DIkzEFD4q7CNsgFYY0G/uxP8pRPEAR/AzDwyLYNCrbMjLhkTpRaxz1GsBEYwHjaUYoRT8HwvDER30IoRPAR2kUC3X0bEXOf+gxMF9R2lD6aSQoQnlUd0IRS9YRikKckEzoRyDWQojpU9RQtqyVOWcEVgixSQCk+5ZFz5nGj8gMQjUQC/kuFIa4Pu7TLLPMUjNXFJ6cBxEPu2uuucZk2IhUIB6iMojA4I3QJeTBRbtEgCa2tYxMfqI8IbwfU9ZL8QRvZHhBkhAYN8HLu/yX74uEF51QZLNcfARNOMIBiOTGjUE+ixCMbd6g8VqhVJaXhxR0iNOGCg8Zw7DudJlwGQ9M/TQOOtPIeaUJh4IQZOLp6/JkyBajtlTPO4bHaPa9yDnTeHnoIH+GKCf9EpI6CLGEVvSc8a6Eh2gTItoJOX3qGmbiwFPTlvweQhgegGgcEnISGoIjMsw8HNmXZRIR9CkJFVthLSeTnzSNHABaYTyFnEyN6ueJdvzxx1dDKcqS5XHNO5ZdqZW+R3gT2YaMFk9GD8tYBznJNmUZnWnS7jSMPOZ642TPuPEcf7HFFqvZlY45YSiEgkz0T8hCohtOSNRfK3rOhK9+HuDDg4y+UzjZWtFz5kHG1DTst/zyy5uwJqlwPDB9SEI0JhwAH8JIDHVZdAcJUWkPkIb7TR8Yb8XDB7LRp/MJ2PqLVXr/lpOpk7TGAd77JACBQCFPQe+0kzmCXO7ZwrIOHDco7Py76qlvDz9pDDwVyYzlITs3micraWCmvMSrZRladoSmEA7tOvp7hNUxyFTknMETz+2yYsx1BT54cHTtQkHJIudMCEzigOviDyllPCZEoc9IJo+ogYcIEyHw8EFIlLCQKIVsH2EhBPPZSLJwjL2upWTqVK1xQOSJziTNKKG6ER5AJOYlIjOXZTx9XWmU7SQQGhnCj4QV3HQaqhshHU9X0rkhOdlOIyR1zrmQBfSXyr4v4Q3nR18A+d+w/+Rl+vNZ5pz9eI4HfdHQipwzxKPfRn+J1weEvbyugBiIZJLtQw7ak0Y8EElKoNPHKwzXhScV7kKc4bkgHhrew3Bbf75PvLv9qSVjXy64bB8pXR11lbFGEs2Ea/RzwtQ9T1qeqKiUEl6l32XgZcKsnJ9TI+/EE5RQg2wT18GTG1lhGgWeL00kr5NQBKIxW0Y4xY1vp1PP05hG6wL3vs0/CT9570II2GjWdi/vn3nPmT4TT3/+eDghrkk6m9kSs9LPec6ZcyCZQvgMYULj/kAWvA+hoPeZeEjRv8LIJCLnTKaWSCOra0FfCu/Fu72Y1jIyNWrIRS+A/lYjA1xPNpDsaPaLCX7NQP+EicC4cYRT/PH2nU/CJdLPabCZCaKZEXKEJORpSsIDOWRCM248HXX6PWFfLV0vT13ejxDa0OkO+2mUhex4MELUeoSE5KSCwQcvnNYKTx/Tl4ucM+GUGw2UB0To7X0bn3nOmb4gHpkHhIfZ4SsJBP2HDh1q2PFLFcJnMOelOPcVL0WKnNCQMJ53fG54OIx+V5GHi+/f7HNQyCM7qPUuBkD9CUTn08lX7/0UDWBc5acpxN+EB/zREEid8scTHQ9EeJbnfQRhIWXJGEFEF+pPny/pY8hKo+amt8t4YPAk9+xWkeO285whBV4Rj8QvUJgtg4ce9xNPE05nA1l4CYsnZD8eFpCIfhsvvPHsbCfLifGgJNTm1ye8c+Jhn/6VSxFcvGwYgg8KMuFtylgYwhXdn/c1hIGEFs2MMIcQB6/j+t/N9mn3dn5a4y9X233sssej/8V7Qbwy7/nS3hmPVe/+8IuStPfhIQmpeGDGepgNOjKVvRnaTwi0GoGQTBrP1Gq0VX/PICAy9cyt1oW2GgGRqdUIq/6eQUBk6plbrQttNQIiU6sRVv09g4DI1DO3WhfaagREplYjrPp7BgGRqWdutS601QiITK1GWPX3DAIiU8/cal1oqxEQmVqNsOrvGQREpp651brQViMgMrUaYdXfMwi0bHBgTARbNQSDsUXSGo95p3q7rkExnqnI4EBupwui1Bsc6LccnYVQa5yBZgwalNa4I6TPZgiEQzAGhWdqdkGh1oRr9DXbp51a4+j1QdQ777zT5MLQSGCwG0RODzlntC4ijMgOb1XRDpcNHgS6gkx4IoarFzH2aYfWOAIfSP1CEKR7GbL+2GOPJehJQBaGW4fikVdffbVdBsKSIlOROzrwZaOTyT0DIh5Zw8ZR6CkqttIsXCsKYzu1xhFGREIsDB1ZRlwEwRS03xCmd0NZB+0CNBtQMULTQDY4EIhOJggEkXjyp0mDjp4LnxSBx/X3iuxDWVcsCvdrt9Y4XihrChhibbBguxuafCwzkwOaEgjWi0yOTud/RicTlwyhaCiQwBu0E8KXi0DjCYV6+0BeV0xFycbLp481EFrjL7/8ct0Z61DKQY7KDfKgC4dE16qrrmpKPSgpxRL/8OPoszUItIRMnCoNmZDO09r0adKeKtYlUbeTqVGdCEC2U2uc5AKSvUj7Zhn62dNOO61tQmmHaWzoXyF7zARiqOkg0wXBZJ2PQMvIxKV7uIe3QEG1rFFPM3OtPMrVK48sVJhmb7XWOB4F74OQfRbZWe863UxUhjjiqFGjai6VWQBFphpIOnahpWTycI+QLysZkReVdLiWd79G5dqlNY72HprgCCDipdzGjx+f3HTTTcluu+1mq5ihgbmgyPi50X9CnRbP5vrZvk2fnYdAS8nE5cYgwmDWGids4+Uw2tm8V5p99tktuYBc8gILLGDC9CiSMscqetmh0CJTtSCkSLrcZ+LrvCakM3IEWk4mP1B/PsMQLqsewjonLX20TtIap0/EHKtMBrDJJpvY6SO5zEtbxPvRJSfDiBos6fK0kYjAa4lMaWQ6b7nrfk7UyVrjeCAyininUNy/85qFzigvAuHPiQYFmTwjmPcCvVx/+mndpjXumOgzLgKDjkxxL1+1CYF4CIRk0nimeLiqph5HQGTq8Qagy4+HgMgUD0vV1OMIiEw93gB0+fEQiEYm5tfjTyYEehWBaGTqVQB13ULAERCZHAl9CoF+IiAy9RNA7S4EHAGRyZHQpxDoJwIiUz8B1O5CwBEQmRwJfQqBfiIgMvUTQO0uBBwBkcmR0KcQ6CcCg2JwYD+vsc/uru3nG8LBh2g1MMyez7xDOKRZ7kj29me08UwO4+f+pUM/kRxzKbBmpxiO4G1UVprljdDp7m3hEIyOJxNeJK+HyHPbQnWiPOWbqcmiWY7E8ZgxY6rVvffee8laa62VoBw7fPjw6nq+sA2Jr2a2xRZbWJ0zzTRTtag0y6tQdMyXkEwd32fCi5QdaZuFeD0ZsLJlOb9GmuXpehGavPHGG+v+Pffcc8mss87aR3gSzXII9tFHH5mC0XXXXWcae4888ohpkv/nP/+pOVSoWV6zQQstQ6Dj+0w0fhos/RgXTekPGtRBf4h+UqgXQZ2htl0e0nWrZjmCmGiko5j0xhtvGC777LNPVTDzvvvuMy30p59+2tSTUI9aZZVV7Lagc4HKEg8MdANXXnllkzMLn+D9uX+dvG/Hk4kQDyVY+jrcNBp5f8I+wjwnCp9hfaEHhMAQrl6Y182a5RCJWTj22msv0+tDQBS9dGbueOedd+yhxqQDEOyOO+5I9t5772Teeec1FVoUc5944gm7Z+j9IXE2wwwzJFtvvXUn8yDKuXU8mfwq8SieheuPl4I8EAXzTz9G+tNJl17fzZrln332mfX1mIljmWWWsUufa665zFMxdxRCmszcgdQ0hsjmRRddZA8dJJ0RzvzBD36QzDHHHLb9zDPPtNDUFrr836Ahk98HvAVkKmsxwrxu1ix//vnnk/fff78GY6YqHTlyZBXyqaaaKrnqqqsSwjy8D/089sHWWGMNmz7nmWeesal0CPOGDBlS3bebvwwaMhHm0cch5BjoMK+bNcvp86DphyhmlkE2Qja80CKLLGLJkrDcuuuua9PgMM/U6aefXp1raumllw6LdeX3bMQ67FJ9OpoYs2jECPNCeLpNs/xb3/qWJQ7o9yDfjH3yySc2GweKs2QJZ555ZgsFHYezzz7bv9on04zyt8ceeyQHHXSQTUHaC2Tq+NS464zHyORxp6kH7wapwuwd21j2P8qkt1MmbZSj3xB6SzzXnnvumRxzzDEJfZC00Z/Yd999LcuFcD9/hEvMy1TP0CznHRUdekIo6iU5QpIgrVmOd0Cz3P9CzfJ69ft6PBKSzMg5M7cU4duxxx6boI2OrPPXvva1hEkHXnvtNSMZfaJXX33Vd0+23HLLhJk7eMiQFaSfRaq/F6zjX9rGvglhNs/J4kQoks3jvK644ork0EMPTUaPHp0QHvGzIv5oXHzSv0NPnBe4RY3OPxm1cL5bSEQjZ/oZLNQsn3rqqa0fw/brr7++z3sqvPttt92WnHHGGU1PhWvhvHkhzXfknA855BCb/gZCk72jLpIR6KeD2zrrrGN66A8++KARnuuHmDxomIJ06NChTY87GAuEKf+eIxONqlkWz28q3quRR2RWv3HjxiV00Kebbjr7GzZsmD2JeRozWRke6OKLL7aG7/XW+7z99tutLE9zOvdXXnllZlEaeFnN8rFjxyb81TMa/fzzz2+b8S5cQ3pGeDZCKt4j1fOmpNAhG4TvZutpMnFjeZLmeWnrHqs/jaHTNMvxdqS26xn9ol122aXeZq1PIdDzZErhoUUhUBqBkEwdn4AofZXaUQi0GQGRqc2A63Ddi4DI1L33VlfWZgREpjYDrsN1LwIiU/feW11ZmxEQmdoMuA7XvQiITN17b3VlbUZAZGoz4Dpc9yIgMnXvvdWVtRkBkanNgOtw3YuAyNS991ZX1mYERKY2A67DdS8CIlP33ltdWZsRGBTD1mNj4ipHXi/DMdwYMCitcUdDn0UQ0ODABmg1Gxzouw5mrXEGGjKIj6H2suIIhEMweo5M0hqf0GDQjzjqqKMS5JUZDbv++uub3DLEkuVHICRTz/WZ8DZ5LU9ZhsAPNq3xp556ykbTonGHZvkpp5ySPPvss8kvf/lLE0HJi4/K1SLQsWSiX4MyEZ9Z5qpFWdsarYupTpSlNe7H3myzzezczzvvPF9ln4iTIKdV7y8UUAl3RLL4hz/8YfLb3/7W+nRIDrPMDBw8HdND0dGtQ5UVDYdHH300rMq0JfDQiKGgXYEsF1oVSD6jyCorh0DHJiDQX8Az8ORP6+UhilJW1TVUJ6J+/lzrISQuxyUx0Y1a45Dvgw8+qGkxvvzSSy+ZiGTNRi3kQqBjycTZ08ghDeRxlSC+Y75sCwX+OUHZpZlKEWWzbLBrjaMFzgPqrrvuMl1wNPhOOukku9T01DRZ16912Qh0NJk4ZUgThntIJKc9VfalZa+lPtLfedSJsmtITLSe2R7CZMZZZ51lCqa+D/Mo0Zmn4dJQXcie7S+88IIJYSIS6Ya4JCFZliG1RV0IVWYZk6dNO+20tgnhR0JLRCvffPNNkzGm3ltuuSVZdtllrQyyxttss02yww47WIiHzt9SSy1lGneEj7JyCHQ8mbgs9yYQAAXV/liMMK8btMZJmiCOyVxLaPwRAdAHS8902B+se23fQUEmD/e44d6/KXujnJjsXzbMC489GLXGUYZFgB9P9c1vftMuhwcV75x8ObxGfc+HwKAgE5dSto+UhiFGmBfW2UhrHKliRB2ZVSI01xoP1/G9njoq2wjbeDlMOPjTn/7UJIsfeugh0wBPa40zc18YQoZa4xtuuKEpse6+++4m67zccsuZdjnvnPBW4X4cV5YfgZ58aeuJhV7WGmduXfTD0QNnlouVVlrJ5spNEz9/U+rNkuFL254jU69rjYdNnhAVrXRCO/3yIUQm//dCZPr444+TbvnV1udfYMT7pDzZvP72zzhcp2mN528mKpkHgZ4nUx6QVEYI5EEgJFNtzzjP3iojBIRAJgIiUyYsWikEiiMgMhXHTHsIgUwERKZMWLRSCBRHQGQqjpn2EAKZCIhMmbBopRAojoDIVBwz7SEEMhEQmTJh0UohUBwBkak4ZtpDCGQiIDJlwqKVQqA4AiJTccy0hxDIREBkyoRFK4VAcQREpuKYaQ8hkInAoBlpm3n2A7jytLuzxU+yTmmhWSZPFq78ybobgaaDA7txPFN/b+kel76b3P/SJ4WqGfH9KZMRi05ZaJ9GhVFpYlDf0KFDGxWruw2xSUbVfuc730lee+21ZOzYsabaVHeHFm1glO/tt99uKk7INDczlJYo1yna6OEQDJGp2d3L2L7CSW/VeBonVuh9WJdevmGHCXJcYZU77bSTjXYN1/l3BF8gzMsvv5wgx7Xgggv6pmSDDTZIttpqq2TNNdesrgu//Pvf/za543Ad36nj0EMPNU0NGsLvf/97k0j+3e9+l1x++eXp4jXLCK5stNFGyYEHHlgjc3bAAQeYqCXaE25PPPFE8otf/CIZM2ZMMvXUU/vqPp/IlCHscvXVVyczzzxzn+2+4pJLLjFlKmScqW/xxRdP9t9//6rEmZdr92dIJsUeJdHfsuJpnCx4qoWGTV71PB4Cjl5rQiOCWPe/9G7mkSCTq6l6gZNPPjl55513kmHDhtkqZIsvvvji5JxzzvEiTT95gqPOmtYY/NrXvmb7IqBS9OmOR5h++ulNvNI1A4lcrr322oQh8O+//34y1VRTWf0IXPK9EZGaXsQXBdCrQAZ6n332Seaff37TA/zb3/5mDxM0AsMGnbfOVpQTmUqi+kBGmOce6oHxE0LA6nJGWT/svPPO61/t84477kgefPDBhMaC2AmN6Nxzz03ee+8980IoCK2++upWFk/xq1/9yjTC55xzTmtcyy+/fE199WSkUVWCHAhRpg0hS7TNr7rqqgQxzRVWWCHZbbfdTNVoiSWWMA317bff3nZDPnq22WZLEMpECsCFLglD8R4Y4pmjR482IUzCUmbc4C80hDm5FnTROedddtkl4ZowMEFCwOseMmSIaaOzD+eKNTpnK9CGfyJTSZBPu6eSgLhn4s5GnGCZLfW80cS9ar8R8hC67L333lX9uvXWW8+UXv/5z3+ampB7K/ZEHIbthIM33XST7XfmmWdaP6i25r5Lb7zxRl1pMYhGWMWsGAitHH300VYBYRtk+utf/2qKRpD9tttuS5ZcckkjE99p8DTse++9N9l4440TpJdHjhxp+xMGjh8/Pjn44IPNw4XEZ0KCbbfdNsFTn3HGGaaOS4iId4OUo0aNSr797W8n6667roV2eNVQ46/ROfe9+tasEZlK4koI1yjMwzuFYR6hYDNDEw+Nu3XWWadalH4EBEJTL+3FCLV8OhvCnyeffNJmw/DGS0PmCR/aiBEjGk56ABEgC30pF5T5zW9+k2y99dbmneabbz4Lq+iTcXwItNdeexmZ+MSYsoYwk2vB06Aay9Q1eC8MPXOIEpKJGTnWXntt2/7d7343Ybob6kaCDOXZV155xfpMxxxzTDLPPPOYl/7xj39sdTY758kmm8zqbfU/kanVCOesn7Du8ccfN53wnLtYYw3L0njxYG48vcOkBeu//vWv++bMT0InQkoa/80332xlyLgRUo6ryIIReqGfThj3jW98w3TTF154YcsMsh/7sw09c8JIrom+FGGjG+pQqDaFRnk39oNQPBwgE4be/BZbbJHceeedyQ033JBAKpIW9AlJzjQ7Z6+7lZ8iU0l0056GMM9Cv6A+sn557Omnn07Ipp1wwgnJNNNMk2cXK5NWX8V74RHcIFPReaxolBgTAYRPdDyTH4+w7vrrr09mmmkmS6d7OUJAvAlk4TsGkbAwEQEZPRy0jZV/aTVbCBVeC+VYt8wyy9gf2UwUblG19bobnbMfp5WfIlNJdHlvxMtY7HT6TxUjw4eRnCDMC5fTRLOClX908AnLaBj1kgWUJWRLW3piMtLR9Cv6Y0zCRnZslVVWsQnZsuqiD0M/CuJDLDe+k9kjgeKJDSZSI2EAqRtlD/FgJDLc8EqecKA/tfLKK1cTGpQh5IXc4JfnnL3eVn7q50Ql0fVfNXi/idQ4332Zan3ZSZd1KDwSDYLsFuFK+Md6bPbKbIPjKiEWYvv0D9yuuOIK8wSkpW+99VZLGtDo+mMkHMje8S6Kl7mQmBCUegn1MGbNgCCEWSGZ8EaEhpBmrrnmsrL0sUgiEJbhpfgja7frrrvadv9HEuW5556zYxC6kSBBpx2DNCQveFhgnAdT+oAFoW2ec4b8N954o+1Pn45Ej3tNkhe8euivyTOVQBCvhDc6/YvsnafAPfRLL3OIkGR+SBrq2WefbYurrbaar65+kq2jsaKJTsNCdB/BfbJkGAL+lCHJgJcgE8a0MP01Xsrut99+1vHnPRJ9IxozYZYbxCFlDbHceAcFiULvCJFo+BCISQLof3E9ZPRCI9WO94JE1Mnx/NcdTFrAuzimNiWDCJkoAwk89Gx0zuBMP4t9OQd+7cEykzhwfjwAZplllprET3hueb/rFxB5kUqVc8KkVtddzCJT3cJ1NuCB+AlQOlx6++23jUzp9XWqyb2ahk8fqlnSIm+FeALOP90/8v3xNFyLT9zm6/0TYvMLCEjLX5bVO2cIFU5KEC6H37PqbLQufGEsMjVCStuEQBMEQjKpz9QELG0WAnkREJnyIqVyQqAJAiJTE4C0WQjkRUBkyouUygmBJgiITE0A0mYhkBcBkSkvUionBJogIDI1AUibhUBeBESmvEipnBBogoDI1AQgbRYCeREQmfIipXJCoAkCIlMTgLRZCORFQGTKi5TKCYEmCIhMTQDSZiGQFwGRKS9SKicEmiCgwYFNAKq32YUm620P1/uo3HCdvsdFAGkyBlLOMMMMcSsuUJvIVAAsL8qI2kKDAysjcmNrjfu55NEJb6ZLTh0MCQ+HoHv9MT4Z9MfAPoaXZxlyZejpuR122GEm2MKw+LS5ll64HsVXRu4yOjd9DMYbuWRZuE8rvotMJVCFSOHIWSdWel24jKBKlnD/vvvum6CK6sZQbYZ1M4Q73TC8TPh5//33m7JRI51w9By2aqBLjv7BKaecUtVvQNyEIepoT7gxHJ5h82ntBrZDFupnRC56e24ovKJGyycjdpEEQ18CjbxwVDDaD+g+MAQdCWRUiV5//fVkyy23rEp9USdaegw9Dw1dh8MPP9zUkPBOboyeRRYMDQqRyVHp0M9YWuMIMiJ9hVIpjRLRFBogunJII7fDkPHi+N7A0bhDEwEFVze0zxGnhOQuJunb0BWH1FyH20UXXWSiLK7tgEYFYpSQjYfHQQcdVEMMGj9/YOAGuXzIPDhBJH/AUBbRS9YzmQDEQRvjRz/6kSkkoWyLQhJae+2yWpq366hdcJxYWuNAgWKrC+Hz9B4+fLg9lREXQeuAWTAIfZAcRngf8RXEU7zxUwfTshDmoKGAthzSxoiFuCFCUk+XHGnl888/34RPCLk4DuEREwYg2IIMMcfiXPCANN7QID9qRa6fByGYGABRFldppTzXiZdAoRVChdJmNHyOgTpTaHgp11ZHQMYNPQe8JFhhyIuhh46wChoTxx57bE39vl8rP0Wmkui2QmvcT+WZZ55JpptuuqqwCNrjdKxR+XnxxRdNc5xG5A31zTffNC/mngRZLbTmCO/cGumSE4JBWIw6IO6MM86YbL755lWFILbx5Ic4IZnwDLfccot5AFdp5RzxZC5Eyb5uhLHo3KH5F5IJOTHIH8o5U8e7775rx/T98UgQCZK5F+dBMq4ihUYoShiJqi3EQ4cPjT/+OFbao3qdsT5FppJIxtQapyHQAHiio+GNl+Dp7Wo6hxxyiDVqvAVyx4RVeA8nE2RAp9y16iACDR4SutJPM11yhwH5Y0IyPE1a25yGCpkI19CrwzhXPCHHdENAkjrCdb6NT45BmWaGpiAexq8Br4VWIITE80JePDma44R3TKFDvWjkoU1OWTwg3gpseKC00kSmVqKbs26IBDl46tIICHlckJ8qaJT0CRDBxwtdcMEFVbVTttNwnUgso6LKUx6xRe98e+NnO5bWJZ+wtvF/+izMugGh2B/pMc4FsiPx7EY/B1kvMniheo9vZ7YPny6GdTxE8KLU70KTrAcHkiMcA0+E6q0TlJA2LRl2zTXXmLdiX6Sb6Qu6uaCnL7fiU2QqiaoLTvruZPTSEsh5tcbJWnl/gKyYh1zUjQ4cnXhItNRSS1ljgjxhVisUh/TzYR0N0M3FGn2Zhhhu9/XNPtH4ZpYOzocHADrfEDYkE1N7ct543JDkXjck934Q6wjnCMPoM+GZ3SAE9aNrjgglHtD7iZw/5xFOFEdICDERmAxtxx13tIdAuK4V30WmkqjG0hpPH57EAk9knqpzzDGHhTKPPPKINRCf9Y8+FU99N/otnqxgHe+NaOyhsmpRXXK8TpbRwOkLXXjhhaboGvafvDwEmL2SVqcfhAwxRuaNBMWqq65q3tdDSLwx3otsIgZxQmMKHNLmeDvUbEMjuwh5MDzhpptuamVdCZb19B8hdjtMPycqibL/qsHfJZXVGk8fnndMPKVJNmB4IUIU3v3QcAj3yL6FRmPkpSXhE398X2CBBWrmiC2iS07HnewYM/5lGYmI0047zYhO3y7LSIDw3ocGD7nJvF155ZX2SQgL2TAeBB662YrUPzTOwYBkA9PMhEa/jsQMXpg5pPBUkJR1/gd23ucK923Fd3mmEqjG0hqvd+idd97ZUuOEPLx03GabbUwXm4QE8xgRIkEaN7wFWuSkzPFY7OOz/XmZIrrkEIQkB7NQkGAg+xYax8JT8F6pXoaMRAl9KbwKDwZPm1NPGOJxnNCDpr0I/UlCSPqAEJTEg4e1eDUeLD4xm0+25ufKw4eHEJri7TDJI5dE2X/1kHd392B5y6fLQRL6Bzyl6xkNkfdJ9Ro4+xXRJa+XQKh3/HrrOSb9IiYAILNGmIrH4uEAQQgb8SgkNpiCk7l0mRWD6yVzyDsrCI3HxcuxDU9LCEcigxQ+P4WiP0Vmkzo9mcErhpNOOqneqfV7fZhgEZn6DacqKIIABOWnQoRhNHj6diQTIAKJA0jDNJv8npCHAl4XQrjxGz5e/pL1JOEQZgW9DAQkucIx2O6vGHx7zE+RKSaaqqunEQjJpARETzcFXXxMBESmmGiqrp5GQGTq6duvi4+JgMgUE03V1dMIiEw9fft18TEREJlioqm6ehoBkamnb78uPiYCIlNMNFVXTyMgMvX07dfFx0RAZIqJpurqaQREpp6+/br4mAiITDHRVF09jYDI1NO3XxcfEwENDiyJprTGSwLXxbtpPFOJm1tYa7xyjFZpjZc4/Wi7MJLVBU6iVdqkIo6JTh8jjhnvhLYF45UQcRkI0xCMfqLuWuOMng1H0PqyrwuX08pF/TyFAd391FNPNQEUhq2jG37ttde27XwYqs6wfhf6R1fP9TLadhJ1DqQwrw4wzVbH0hpvdpxO246mA7NTIHqJehLCK4iZoAGOZkS7jSHt7faO9a5RCYh6yDRZj9Y4HirUgvDlB8ZPkJaqLlfK1TPCFpRG0aNDiQc98FAsBQ09NLTRjGMWCJ7C7ONGmOPbXSfctyHKiDwWIo4onrI/UsIMCed4Sy+9tElxuYiJl0djfM0117TzQRySoeZuiJug30eYxXByCMQwc3QdmhmagBAR8X+kjDGuBY0GVFk5P4RgQpkxrh8RFc4VrYe0ZNlf/vIX043wYyPYj9It5VFEQv2oXSbPVBLpWFrjEAlJrD333NMkqWgce+yxR8JMFGgkNNIZRysPbW6Isu2221pfAmKdc845NosFGgl33323SR2PHj06ueyyy5KRI0eazBb1Ir7ClDYoECHfRXmEJRFAQe8OQROe/PRJKI+h6Mo25MiQ3nL1INfHawQn8sVIHkMqVwzierl+CIN3c1UlNM8hFYpDaESwH9eLWEporGM7hlIRnpM6IDoPngMOOKBts4mITOGdKfA9htY4T2XUeGiwPO0xpI0hh+toN9IZZ5IvZqhwwX608pAHY6YKVGDdIAyEQFwEoqEgiz4fhn54+LSHSBxz5plntu0ISqKICsHpbLMfMsX0WzAIT7+FKWjyGKSln4Vx/agUuVQX6wgZEeDkoQAGyCXjzVz7jpCOB0+WcR2zV/T4IDqGV4Vs7TKRqV1IZxwHYUWUSBGfd0O1lUaP3hvrG+mMI0iJ5+Gp7XbzzTdbA/dl5LVcnYcnOPp1KP64IR2GfJbbrLPOWiUS69C/o9M/duxYy5ghs4Un4wFAw2VeJho3BISYhJRsD+2EE06okiFUE3rhhRdMmuu6666zidbYx+XKkFZGhJ9+mROJ7U4Uvqdt+eWXT0iOEA6utNJKyYorrmgPm3S5Vi2LTCWRjaE1ThhFQw/Tq5wOIotso2E10hmnDPviPdx4qocN1tfX+wz7X5RxgUcvT/0QkGMRdjHD4JFHHml9OMqgJY43O/nkk41M9J/o/4TmYVi4ju9o3GGQJRSp5BrQRkeuK71v+vysgi/+kR4nZMRjE/Khq0f/zL1oWLYV30WmkqjG0BpHI45GRKfepX/xAnTm6QMR5jTSGSfkQhsuDOlKXk51N6bEDBsxHglSo7rKepIRPpuf74R3o7+FISbpOuK+vd4n1w9ZV1lllT6qsezDMUlOQGInGx67keHJUcDlD6FKso6o2fqMg4327e82ZfNKIhhDa5yGRDjC9ChknQj5CNl4KhNe0Ugb6YwTVhHWkYWjwZH52myzzZLTTz+95FVN2I0pMlFgJfxj4jPUUnlByh9hFn0kn+GPPg3HI9tY1GjgXAN9G47FgwSxf7KaJEfoA3JMQkqw4frCOXPTxyPJQv+OshjXALnaQSSOJ88ECgUtptY4HW4yYYjO4wFIQJCFohHx5G6kM05IhWTwcccdZ1k5LoNsG4Qqa4Rt9IVo0JwP8zDRH3KjYY8aNcpS54SoeAzS6CQMyhhyyUzXib45Xo8+Hg8Xwjn+yMxxPMhKOEt2DsXWLCOxwqsF0vXgR/jIw6Bdpp8TlUQ6fL+Upwr/VUS9sngWnsbhPLRelkZGn6WRzjj9FhoQ2bWyRvLgvPPOS8aMGWMNG69InVnG+eJNmL4lxktTiEsfKh1C+rGZkQMyeTLF12d9giOYhX3JrHIx1hFduJVH3mvo0c9m5CgKC0/4LCJRDzcsvGlZdddrhFll86xrdkzON8wK5qmzURkeAo2uodGDJF2ve7X0+lYvi0ytRngQ1T///PO3rX8xiGDJfaoK83JDpYJCoC8CYcSgbF5ffLRGCJRCQGQqBZt2EgJ9ERCZ+mKiNUKgFAIiUynYtJMQ6IuAyNQXE60RAqUQEJlKwaadhEBfBESmvphojRAohYDIVAo27SQE+iIgMvXFRGuEQCkERKZSsGknIdAXAZGpLyZaIwRKISAylYJNOwmBvgjoV+N9Mcm1RlrjuWDqVyE05XsNWQAAPg1JREFU/pDsYhDkYDD9arzEXZLW+ATQEGNhIF5a9IStKBKhOuSGYhADCRmpmzakyBZbbLGa1WhPIAmGGApaEGlDuYnh/QNt4a/G5ZlK3A1G2YaDA33UbXpduIxo5YhFJ4glhoekIT3wwAPhKvt++OGHJ4wvKmvoJaDTgJaEW3gsBuOh5sOwdARNEGZxC8v5Oj79nNCiY7j5v/71LxsdO9tssyU77LBDsvrqq1eLo2mBkAn6Eeg6oFLL4Ed0HRCWdGPIOqN2Q3vqqadMLBORGaTE+HNDYIZRtOj/dQKZ/Lz4FJlCNAp8j6U1TqNDZQgNhNDQYeiPIXF88cUXW6PzesJj0YBffPHF5I477jAVVHQXFl10USsalvN9+eSc2A8priWWWMIENBkBi944RGNbeB14LkRSQjkxxE18RC1D1SE9oiduiLNAPjQxbrjhBtPEQLgSgiEnhgdDdBN9wU4zkankHUFrPG3uoUKtccpklQ33RQ01S1yREAolIMIlnsbMOoF0lesyIDeMkhCNeciQIabUuv7665sc8LnnnmteA7ETNMjda6SPhcYdx8DToDnnli7n6xHOHFcRiCSMQ/wEQ2EI7XHIERpKS4hWot+wxRZbhJvsnB566CETPwnDOLwk5GHoOeIwCLUgFU3deDTUZDvVRKaSdyaW1nijw9OIbrvtNmvoPN2RucID0PAxJIsJm1A3IvzZZ599LHSjEaJxhw44ykLDhg1rdBgL8xCXRNDEiVpvBwjEH6EgDZ2+CyInoeqq74tSEKpCSEAjzoJxXgix+DWwjm2QBy/GNkQkuW7IhloTOuT0of7whz8kp1YUW/FOiy++uP2F4Sl1DaSJTCXRj6E17odGGxzBSTfCHhoiHXBCKlfZefPNN6si9DQ8Qh8aNF6EP++UQwgIRGIgjyAkCrAoDKGBRx8Kq3dOlGOyASS3ODfCPKS1Ntxww2ShhRbyS6j7SeiGzh/JCAxVJfpNeM6zzjrLPB4PCLwwkwxwHQhRMnHAz3/+8+Sqq66yWTwI+QhNmRsKInaCiUwdcBdQ+QkTBa7EA6lITvDHE5uG9Morr9gZ4w1WXXVV6z8g9M8ULXiBMlJfiDVCztC71DsnDj58+HCTSSbcI31NSAn5yNSh743hSZEMo++GZjg64BikYaYNCAlR0AX0a+fhgeafq7dSHoKjqY6RwMDr8ofh0dolMGkHbPJPZGoCUL3NMbTGvW46/mhip40+x0UXXWRPfma74H2Lk4myhEqEQ/Sp+I4nYooWxPeLGJLDZMbIyrnVOyffzicJCf4gAVPbnH322VUyQVBCNIT3XWHV911uueWMjFtVppaBEN73Is1Mn5CkiBvbkV6mLxUaCRAEPDvJRKaSdyOG1nijQ9PhJv2LoqlPDEZ2LgwH8U5s44++CIqmlCHhgOFtmhmJDUImwrs8Ao/MusE8T6NGjapWTejH/nghN0JSwjLIRAICUrhBvo022shCS7xqaMyoEZalX4g3Q0bajeOQlu8008+JSt6RGFrjjQ5NqEPfh8QCpCCNTUfe7fXXX094wnsDJvPHn3slPAZhGNm3MDXNU573T9R35ZVXmkfB26UnEfPjpD/JvEEmJhXjeBiejWlk8BZupNe9X+Tr/JO5nwjneFiQCQyNEJekwvTTT2/ei3Mn48g6/2Odp9fDfQf6uzxTiTsQU2u83uF52pMxI5QhdKNh0sknm4WRCmeaSTwEf7zjYRrL1VZbzbbz7oqsF/swFSfpZuy0006zP8hKGEbSguPkzYrRryLLSIIETXTCQ7wb/Rhe0mK8O8KzemYwnTJ/9tlnjcgQk2OTSAjVYZmwjaQDL4f5TCcYHn300VyJFTuZNv7Tz4lKgu3vlPLuHv4aIu8+lOMpzK8HaMQQLMsIqXhSZ4VpkIz19fbNqi/vOpIinBteMEx84PFImpCBg3h///vfLVHCtbANb8uDgHdgzEHLi1r6hkx+RpaQMI+fH/FwcCIR7pL5g6iQkf4ZD5SBtvDnRCLTQN+NLjw+YSmhJOEcYSjei1Q3oSUhJVk8D0e5/PHjx9s6PBgzXOBV08ZrAMjLawI8WtbvAdP7tGNZZGoHyjpGTyAQkkkJiJ645brIdiAgMrUDZR2jJxAQmXriNusi24GAyNQOlHWMnkBAZOqJ26yLbAcCIlM7UNYxegIBkaknbrMush0IiEztQFnH6AkERKaeuM26yHYgIDK1A2UdoycQEJl64jbrItuBgMjUDpR1jJ5AQGTqidusi2wHAhocWBJlaY3nB26waYbnv7LakhrPVItHrqWB1BpnVCujZLMGAuY6+YxC6EfUGx/UK5rhGbDkWhUOwZBnygVZbaHYWuNIXSEy4sYo0iuuuCIZPXp0VUcBjQX05tDdRt6KAXQMFXexFfZlCDgD8w477DCvyj4ZoYrmAsPfGbCHod/A8s0335w89thjNpKXOhkdG45gRcuh1zTDDaAS/0SmEqCxS0ytcdR73CANYiVoH6D7ADmQQL7ppptsqDfaCx988IHp1aHkg8QWRMFo+HfddZdJFaP+40YdDAlnCDvGUHP2Yyj7z372M9NTeO6550z7jv3QuwvFUBhuTh18unWzZrhfY9FPkakoYl+Uz9IPd12IolrjfgrIAhNWQaS55prLViPCeOGFF5pksOvLsYHtLCMdDAFcgwFBleOOO86GiaPNEJqTAcFIVIogjWssIKiCXjjKsPfcc09VmIX9e00zPMSsyHeRqQhaQdnYWuOEcIR1aNiFQvaEYAhQhkTy00B9CN2EZ555xjTGWQ/JmCqGkA9psFAd1fdD3QedOyeSr+dz2223DRfte69phvcBIOcKkSknUOliMbXG6R8hTI/wCMQJDc/0rW99K1xV/Y6UFhJZlIFAbiilImTCDBQ77bSTr65+Up4pW9wIM0NRR5SOfHoZL5P+7GbN8PS15l0WmfIi1cJyEOmYY46xxAEhFYL1bkh84Z2yjLANIoQa4ZQj04eo5KabbmoJCrTBQyNz5wKSrEc+ixk2MGSNCfWQ4MI4Rq9phtuFl/gnMpUAjV1iao2jWIqwPRN4bb/99jbbHiL8GB7HG7atCP4xPxM63qFX8s30l/BKhHv0wULD+0FgN/ZHVhmD1ISNbr2oGe7XXvRTZCqK2BflY2qN4wkwQqsRI0aYeD3CjSQFmIqSZAEzYDDrRWjIC5N1CzNv4XYmBiPcI+sXGkRF7JEZ+EKvRsYO0fylllqqWrwXNcOrF1/wi35OVBAwL94qrXG8Ce+C8CiEWPSJEK8nbGO2CzwRssF4K8IvJjOrZ6S+mR0j9DSUZUYJZrxA4B89cgxxSKSYEYr0VDvre1EznOsuY/JMJVBrpdY4b9QPPfRQe4mLLjjJBKSCCbe8P4UHIeMHUbLUT8NLQjmV9HkozA/JyBqyP9N2ckzeXeEFSVr4S9te1QwP8SvyXT8nKoJWUNbfKQWrGn4tqzWerpR+EpN+heFZukyRZRIRaHcTKqbr7CXN8CKYhWXDnxOJTCEy+l6DAB6wVzTDay68wILIVAAsFRUCjRAIyaQERCOktE0IFEBAZCoAlooKgUYIiEyN0NE2IVAAAZGpAFgqKgQaISAyNUJH24RAAQREpgJgqagQaISAyNQIHW0TAgUQEJkKgKWiQqARAiJTI3S0TQgUQEBkKgCWigqBRgiITI3Q0TYhUAABkakAWCoqBBohIDI1QkfbhEABBDQ4sABYYVFpjYdo6DsIaDxTiXYwkFrjJU436i6vvfaaSYstueSSUesdrJWFQzDkmUrcxZha4yUOP6C7oGJ0yimnmEY5w99lExEQmSZiUehbLK3xQgftgMJbb711su6665pOeQecTkedghIQJW8HWuN4qFALwpdDrXHWZemS+2FRIELXDu28NdZYIzn66KOrAvvjx49P1lxzTVNbRU982WWXTU499VRTEtpxxx1NX4/GjfAJ5uX//e9/J1tuuWWy9NJLm8wXikNu1M/sF0cddVSywgormELRbbfd5pvtEwmxDTfc0I6HOCUyy4i8YEwggEyYG4IvqLsyEcByyy1nMmWuyffII4+Ycuzzzz/vxU3cBc/WjSYylbyraI3Td/L+U3oZEvl20yWvcxwa9iWXXJLstttuyf7772+zWyAEiaEjTkOkMSP9teuuuybHH3+8Ndy1117blIQ++ugjI0ZYHsku1FypB2kwdPOY1wl7/fXXTSYMCWS2Iyu2zz772CwXbL/66quN0BtvvLEdC1Ukjk9fCXvvvfeq5GUZgRc00ldfffXk8MMPN6mwY489lk02u8YCCyyQHHnkkbaMhh9T4oQzdNiGLvmnMK/kjYyhNY5X+utf/2rSxK7tDRHwNpDLjWlfkOFaeOGFkwsuuCChgdJ4MUiTVmxFyJLZMDDUWhGvpBG7LBjrUI7F5p57bpth47777ku+//3vJ3/729+SbbbZJtlggw1s+/zzz19XntkKVP4R9rlAJv0ovBSqR0wMAJHxungvvCLERSO9G02eaQDvKnMm8aRHXBJNPP4Q8achujgkp4dgpBsSyghTuuFhQt1w1kMKN8qjsYdYv1s4ywYNfvaKlDLnglGOGTLcIEe47OvDzznnnLO6OM8885gGn3sy5MP22msv+2MbMtDdavJMJe8sIVxohHXpcG6Fk94Ki/T5DpEwGlw49QueiRkxfHKycEe8WWjpZbalp4phmak23dJTeIbLaPIRGoaWXg638T0897AuL8d0OISs0003na/qyk+RqeRtjaE1zlQxvKdArjhr2piw417kNB9//PFk8cUXt13Qvnv66adNFTZPHYST6JqTnMCYZYOpOgn3yhh9NULX3Xff3WZEJPwMPWeZOjt1H4V5Je9MDK1xprKk0ZIpIyyi4dNnWXnllfuEbkVOkwwcmT0kj0kGEKottNBCuaqgr3brrbdalo8EBf2nrInWclVWKYQMM56XrB8ZSCSZ02Fp3ro6vZw8U4k7FFNrnMa13377JWuttZZl3Gi4RxxxRJ9QrchpEiYyAwZehf4QHX/6VnlsjjnmsAkBSBiQ+cOrkA7HuxW1J598Mjn99NOTs846y3YlWXLRRRdZwoQkRbeZfk5U8o7SRypizbTG6VPQh8rb6LOOTVjIe6nbb789YUIz0tpF62MGQTyazw/FcZgVg1ndmTVDVouAfk5Ui0eppWbkKFopEzwXbfiNjkEioEx9hITMmsELWOaNglzM0cR7LVljBOSZGuMzqLbiic4//3xLNvjs62UugFkxbrzxRuvHkRghnZ2eIaNMvd24T+iZRKZuvMO6prYhEJJJ2by2wa4DdTsCIlO332FdX9sQEJnaBrUO1O0IiEzdfod1fW1DQGRqG9Q6ULcjIDJ1+x3W9bUNAZGpbVDrQN2OgMjU7XdY19c2BESmtkGtA3U7AiJTt99hXV/bEBCZ2ga1DtTtCIhM3X6HdX1tQ0CDA0tCLa3xksB18W761XiJm+taeUV2ZXTuiEWnbLgLoicM6uuPoaPHcPhGhkAKwimNDKEW9Bua1dWojl7YFv5qXJ6pxB1nlG04ONBH3abXhcsoF2WRCQUihpVfc801Nn5orrnmMlVUtPHcGDp+1113+aJ9ItflYo+sQMX1j3/8Y3LHHXckSG9tsskmplfnO3EcNB2uvPLK5D//+U8ydOhQGyq/8847J6GiEIMBzz33XBsUyMhftPrQqaA+Bg6GxjmhvzdmzBgTnAy39eJ3kankXY+lNY7U8CuvvGIN/Zvf/GZVapiG7yIoaNmhnzDffPNVzzb0LAxX32mnnUz34aCDDkoefvhhE3tEgstHyP72t781tVWIiw4fEsaow0JU/jD0GRB3gSDbbbddMs000ySIUyLQ8sADDyTUHQ46vPDCC20/xPznnXde+97L/0Smknc/Sz/cPVSoNU71WWVZT7iFHDGiI0hsYaifov2NbDKNGEO5aIklljCPYytS/y6//HLb31Va0WtAsOTMM8+skok60XBwgiIsecIJJ1jdVEdYh/444i5OQNYPGzYsQW0WwRcI5TJdeC1G43Kev/jFL0xkMiQa+/aaiUwl77gJTt4zcWcjUrDMlvtfqhWqnFh6wjePt9Mij+jUubwWjRyVIDS9DzvsMJPJQpAfCS4Xf3zuuedMtTWsnzCQ9exPeAYZjzvuOJMmRiwFYUr6Z34cxP0Z9k65tBESMnz9scceq5IJFVq09CAaeuWcczertaYxyVoWmbJQybEuhtY4ZKJPwtOdT8hB3wd1IPo1GHJdJALQJF9//fWtwTMTBqEdMmEYpHHPZisq/5BQph6IOMMMM1jYR3m0viEXuuPrrLOOCWCyjCwXYd2MM87oVdR80g+jjBuTDbjeOTrjLPc6mfSeyVvHAH3Sl3nqqaesk0+/iIQA/R9v1AhTMj0MIRkyXpQh8UA/5Y033rCzRk887d182UXy8UKHHHKIJTpGjRplHgsVIkI7DCUj9vHZMmxl8O+tt96qqh3hJe++++5kkUUWMeWiH/zgB9bXo0wvmzxTybsfQ2ucQxMiXXrppdY43377bZM1Rrx/+PDhdmboc9MnCQ0BfNYz/xH9IxIXPkeTl2MZQqJZHtr0009v80AxFxQejiQEU9UwMwbafePGjUvIKKYNwrsnIlGBMftFaJw3Gnu9avJMJe88740I9TzcIw3uy2xLL9c7DKlqdOmWWmopa6w0dtRUfWYJMnmQCQ/lxvso+jezzjqrrUKFFU8RliFFznoMjwFhfGYKW1n5h2ehTwWJpp566mT2ivor8sxpI9FAxtEzdpCG+aI4hv/hUS+77LL0rj21LDKVvN0xtMY5NB33X/3qV6bmigY3GTj6QFtssYWdGYTgfQ6z7UEWXsqS3saj0fgxPASEwNPwPonU+N///veEeZ0wNO8gA2EefSiMzxNPPNGye55mJ+Sk70P/DOJBWoj061//2jKBHI+MHnURcuL1/I9zePTRRy3lbgfowX/6BUSJm85PiTz9ze55XuJSDs+VNvo9I0eOTO69916bEQNvwwRhPosF5SEH6/BGkIYQkH4TiqtuvGzlPRAk4SUs/SzeFbkR9pH2vueeeyyjR/+ITBwZwiFDhngxmyvqz3/+s83TREKE5AUzV7g2uB+DuaTStu222xo5vWx6ezcue0aWaxOZSt5hf6eUd/fw1xBZ+0AqPEFIkHQ5JiQjkUADr2dk+Xg3VO+dD++HSIOTEnePlFUX/TfI66nzrDJal9gD0HEQmRwJfQqBEgiEnkl9phIAahchkIWAyJSFitYJgRIIiEwlQNMuQiALAZEpCxWtEwIlEBCZSoCmXYRAFgIiUxYqWicESiAgMpUATbsIgSwERKYsVLROCJRAQGQqAZp2EQJZCIhMWahonRAogYDIVAI07SIEshAQmbJQ0TohUAIBkakEaNpFCGQhIDJloaJ1QqAEAtKAKAEau3Sr1vgzzzxjykfLLrtsSWR6dzeRqcS9L6w1XtHTy6M1nudUGLqOghC6d2m76aabTBnW1yMfxqjXrbbayldVPxGaZGRsaAybZ0QvyrFZGuMMoWe4vCwbAZEpG5eGa/MMU0+Xqac1ToNGDMVHtDJsHcWhzTffvEYDnOHmiJ0gYMJoWUQh0YkI1VfffffdBNktlFsRYkHLAU0IhrqfffbZ1Ws677zzrI7qisoXRFfQgKA8Q9rRkHAbP368aeahMCsyOSp9P0WmvpjkWhNLa5yGjjLRDjvsYA356aefNtIg+EjjxhA5QQzlpz/9qek6oIWHsAl65K4z7ieN2hDeK1QqQssBXTw39CBc/Yh1CLYgmoKUF8PVEaPEm6ElgUAm6xDzd7Ujr0eftQiITLV45F7K0g93XQgXW6kuV2bNqGeEU4RjrgGO/BYaDrvttpsJrUCcI4880qS1Qi+EB0M/74wzzjAv42KTSIfhvVAxSjd+hFJQOWI90lxuzLhBPejsEUJCXNSGUHpdZZVVbHaNcHi276fPWgREplo8ci/F0BqvdzDCLBoyREP8BInkJZdcsk9xQj1m0QgNEqCzh+yWC/8TuiHdxTb+sFBwBSnm22+/3SYMQOUIz7TjjjuaWAghIckIlIxQTOKP48r6IiAy9cUk1xoXn6QwCYmFhk1enX/JpcBc2gsPlVaArXeQxx9/3LwEjRdvQN+Hxh0qEhHihYKSeLZQritdN2EdeuCUIeRDBQmCQERIR/8MRVe84kYbbWTi/RBxww03tHAPbb9bb73VRCZHjx5toZ970vSxenlZZBrgu4+gIzri559/voVY6N4xgwX9IQxpL7JsPpsF69AZJyGBIVjJ7BYkLegn4WGYbynU/SYkZCoYxPrpF/3hD3+oSooh+A9ROE5onI/3myCep8rzzEwY1tNL30Wmknc77WnwPhb6BfWtcNJbwVL2VxID9FlIQGDohqOc6kaWDzKRUXNNPZIFGFk9ppdxr+Q6d3gqxPUffPBBryZZccUVE4Qj8VDMUkgfyY35nU466SRftE9CSzwT4aYbOnuuM+7r9DkRAZFpIhaFvvHeCIlk7PTKFJsYGT6M5ARJiHA5TTQrWPmHR8BjQIosw6uQeSObRlIiNLJwZNw80YA3om/FVDGEbyGZWE/ohsdDEZaZM9wQ8XfPw7rTTjvNprThnZMbIpn0o2T1EdDPiepj03BLLK3xhgepbIQsTDGDJznnnHOsv0PGjXCOPg8yyB6ivfrqqzYvU1ad1LP33nsbUfBSobE/fTL+eOfFbIbolPs6Pum/hen1cH99n4CAPFOJloBXwhudPqHbYlrjVOOhn6fEfZltzeSRKVPPaPxHHHGEpaz5JImAjRgxwt49+X5k4nwqTt5fhUZIyHSfZOLoMxFOknBwI0lx1llnWZLh5JNPtnlvfRufeDqSFLL6CEgeuT42Dbc4YRoWCjb2h0xBNTYPEzMCQoZ0ehtvwi8XSFAweTOJDEKzrbfe2mbCYNpMQjdIx8wbiPbzrorZBJmxcIMNNkg23njjhGltMOpgQgGIyCflwwkFwvPq1e/h+zeRqYtaAUkHkhT0lXh3xPy0hHfM90Qqm/6XG6l1wjYaA5lBiJb+vR+ZRiY/g7T025iaRlaLgMhUi4eWhEBpBEIyKQFRGkbtKARqERCZavHQkhAojYDIVBo67SgEahEQmWrx0JIQKI2AyFQaOu0oBGoREJlq8dCSECiNgMhUGjrtKARqERCZavHQkhAojYDIVBo67SgEahEQmWrx0JIQKI2AyFQaOu0oBGoREJlq8dCSECiNgMhUGjrtKARqEdDgwFo8ci91q9Z4bgCCgoz6nW666WxsVLC6a79+XrmyicoYEy9T45kmYpH7GyNoiw4OjKU1nnWSKBfdcsstNnIWMcrHHnvMxjHlGRmLMtJ1111XrRbZr6FDhyZHHXVUdZ1/2XfffZPFFlvMF+1z7NixySabbGKilgxGTBviLl/5ylfSqwfl8iefT5p89NmkySf8Vb5jM3310+q1yDNVocj/BSKFI2edWOl14XI9rfH8R61fEokvFFqR56JBH3vssTboz0Uo6++Z2CBCZJcRXEHLHFEWVIhQTNprr72qu+63334m31xdUfny1FNPmeoscmH333+//fn2Rx55xKTL0K3oBjJ9XCHQB59OXiWRX2f4KTKFaBT4HktrvMAhcxfFq4QSXc12dH1yPt1Qk3UBFfQk0IhAPtkNPQnIhxISI3nnnntuG/IOwdCQwIOhLBuqIPm+g+0TIr3/6ZeSTz/PCu4mXo3INBGLQt9iaY0j9LjpppsmyBATnhGu0aj/9Kc/JVdddZVphq+wwgom8+VCKjRslFXpq8w222ym4RCePGL7DEF3Lb4zzzzTpMLefPNNCwX333//GmKgp3fiiSeaDDMza4TGjBoPPfSQSYGFYRwa5OhFcJz11lvPzo9zhnh4tJ/85CdhNYP2+2cVAn342eRNicQFikwlb3MsrXF0G2jMkApBFAwyMPPFL3/5S9MbP/roo209T3p0w2msyHOxH3p2PluGFar8Y53LfzFnE4L91EGS4PjjjzeJMBSK3BBXWWaZZUxODMVWDAlldCIOPPBAL2bEhjyElWy79NJLTZ8csuGZOF/6UNR96qmnmndyfXLkwgaj/e+zyRI8Ux4TmfKglFEmptY4T3g68RheiXmV6O+gN44hd4zCECKUDz/8sOmPo23nAieEdKFgpO30xT+8HQqxyCNjhx56qJHti811PwjdUH4lGYExrQz9JuSVkQQjcUG/ivmgRo4caTN3oAqLNt/Pf/5z86oItRDyIU927bXX9hFsqXvwDtlAkuHDTyfIquU5JZEpD0otLhPOlfTCCy+YtBYZNgTzMUInJJLHVZSCmLcJBVcnEtudKHxP2/LLL29egizdSiutZDLJyIS5Qd4xY8Yk//jHP6xuymOQBnmvP/7xj0aUbbbZJllwwQVtG8TfbLPNqvp9rGSCgTvvvNO2k8Ag9OMPG6z65GTuPs9Mgttl9fknMvWBJN+KUGCSPcjopSWQ82iNp4+GRh0GWbyPxDKeiawY4ZeHcKzH0hJdE9ZO+E96nJCRkMyn6dxuu+2q8zOhT06IBkGZyia05ZZbzuZzIgSFED67IYo86J0zD5Qb25m5kL5UaMiN4VkHm9FX+rgS4hUxkakIWkHZWFrjQZX2FcVVGiuNMmseJJIAhFP0nZxsTEPTyMjC4Vn4u+KKK4wIpMPJ2JGUICyDTIj1e5+J+vBATDFDGPmjH/2o5hCElWHZPfbYw7wZ3s8Nb4fg5WA0vFKz7F36uvL1rNJ7adlE+3mP5O+SmJ8pXAYiX3aB/zyw0cDJ3tG3oZNPZ58U9Morr2yhHv0UXsyS/saTkNlr9D6JrB+qru518ESQi+NgiFV6vyh9fsxfSzjHuyLOKTSfMwr1V2YjJFz88Y9/XKNPzjpPr4f7DobvH39ezCtxTfJMJe5sq7XGyaDR2V9rrbXsxSfhFZ14wjn+yMyNGjXKMnBTTz21Zefuu+++zCtB2J9sHbNcQELCR2SOMYhIf8yn8OR7aM8++2zCtJ54Q379wDnMNNNM1SJIKuMlyR7ymQ430Sefd955q+UHyxc8Er9yKGr6OVFRxL4o7796yLu7e7C85SlH46YPVe/pTlgGmZBAbmYkMJg9g/JuEIVZCMnA8Y4InXLS73gUtvErhl133TVZc801E95V8aKW+ZlIkjADB2EeiQ2mpHEiQXQyfxAVMjLLu88f5cft9E/S4e998qVcpxn+nEhkygVZdxYihGQaGsI5+jckOEh1M48uOuNMVB3qkzPhGusgOZ6QeaXSxi8gCE8hLR4tnSxJl+/E5fcrRPowZ/JBZOrEO6hz6hgE/vvxFA1/gxeeaEimpn2mxr9GCqvt/O+xrmXiL9g6/5p1hsUQICX+6Re/CC+2Z2ViuqI7qLwQ6GYEPqu8pC37sBSZurll6NoKI1D03VJ4AJEpREPfex4BwryyJjKVRU77dSUCIlNX3lZd1EAgQJ8pjz35+KN9iskz9YFEK3oZgTye6fJLLkiOOfLgJE0okamXW46uvQ8ClR9/NDSIdEXlL8tEpixUtK5nEWg0fqkRkQBMZOrZZqMLz0KgnmNqRiTqavoLiKwDap0Q6EYE6hEpq3+Udf3yTFmoaJ0QKIGAyFQCNO3SnQjUS4rvttd+yVxzf7fpRSvMawpRdoFe1hp/5plnkueff94GHGajM3jXQqiscA9CNes3iUwl7nthrfF7kiSv1jiD+HygXYlTq+5CPQxNTyu7uqiKF0QLfJdddjHdPl/nn2uvvXay7bbb+qJ9Ui/6D/PNN1916HtYAC0JxkcNVuNnrvUyemusPUFtqV5qXGQqcddja40zGA+tPKSyGMWKWhDijYie+JByP00UgJZaaqlk9913zyQAI2fRh2CULKRcf/31TTDFNR/YnwGAKLUiz8VxEWdhwB+jYt1QmHWlJF+HDjmCl5RHU4KRuW4MHESGDD2KQU2meq7piwttRCj1mbw1FPxEaxwhShejxPP4sour+DJl6xk6CkgSMwQcSSz08lALggxIbCF4Ehrikxgi/WljlCtehmHk1IPQCUPHUVplKLob3xlly58bSkcMj/c/hp2H2uJ33XWXqRUhx8x6BFU4FsKY6ImjlXfuuecmSHsNZpt0kok41bsOCEXYlzZ5pjQiOZdjaY2jvfDDH/6wRoaYZYTvR4wYkVxwwQVVzXBO7bLLLksOP/xwE1VBsIQZKNzQbVhooYWq6rDIISOEgkwXyq5elnJo3kFgwrLQkFKGhKxnZg03VJHOOOMMIxJaEoccckiy7rrrWhiJLBlilUiUDXZDdjKPTUxIaEqZPHg1LBNLa5xGjmhJ2miYKLWy3Y0QkGXEIdH3RljSCUIZ9vnggw+8uH36MprmXhYSIJwCGV0mjNAN7Qa28YdNPvnEZy0ekokCbrvtNtPCwzMhIcYxCQlRP0LO2bXFszT/rNIO/5fHM9W7BIV59ZBpsp4Q7oYdprU/lIcI83yZ76zzZcpmGepChFOhPHJYjvX0a9wgD40WkZJVV13VFIQggRt9IYROCMkwwjgkuLB0uGgrg3+cB3UyewXyYIhP+oQBkA5NPJSJkB078sgjTcwSokK8yy+/3HT+6CvhOdmXvttgtP6QaeKjZzBe+SA/Z5ILJAYgVZbR4XdNcfo5eAD6U6iw0qiRSmYKGgiGLbLIIqbaylQyJDFQHiJZQebNZ6GAYHgY+mfU74YKEZ4QxSF0xpnJYpZZZrHNeLRbb721j9IQ/Tb6dUiNcQ5+HoSPnvDw+gfL52Q5+kz1rkVkqodMk/UxtMbp9ON9SBzUk83yqTSZme/111838cnw1AjTvBGzniwd4pV4KCcIfbDhw4fbbii6QkRS4oR+Dz74YLW6FVdc0aapwUMxAwZ9JDe8j3s5X8dDYMMNN6xJv5OIwIMNVnOp/nw9p9qrFJlq8ci9RCjnssen3/Oh7edZO5ITD4z/JAmX06L+fiC8xoUXXmgp7PBpTqqZd0JkyzDE90kkhCL49J94D0Sjpg8Tvkz1mS7Q+ubdkC/jjZhykxn/CN9CMrEech5zzDFGvnDWPzKEIWlPO+00Cx3DqWxQdqUfNZiNMG+yST7LLfUVXqv6TCEaBb5DJNcSZzdPh4fKrb7dSZdVPWEb73OYVQIyEIbR32BCMzJo9FUgA/Mb0T9BKNL/vve97xlJPF2Op+P904033miHoj7eOeGt2Acj9Asljm3lF/8I11B3hSh4qdDopxEq8nf33XcnHJPJ2XwdnyQj6qnPhnV1+vfJJy3jl/Sr8VL3Fa+ENzq98ssGzKWSPfRLL1MmJBnLbvSJjjvuONP/9gnPeNlKVgwJYho4aqtk1tIznVMHIRlei3CLd0B4rn322cfK8yKWWSlIsbvhqbbffntbZHtokBoJZDJx9JnwZvTD3EhSMNEZSQYmMeN4oeHpPCwN1w+273imJJms8Gk3lUf+pPJOQVaLAM8tJ0ztlvpL9cgU7oEH4tcQzPSXRz883Df8ToZvXGViNMgQho5k9PAm/HLh4osvtvASCWNCM+Z/gtjzzz+//VwI0iH4j8j/PPPMYwTlBfMGG2xgc9ky+wVGiMqkaBCRT8rzIBjMhgglqq55/FOo6CoylbjreUAuUW1bdiHpQJaOvhLk4hcLEJdpN3nhG2qL896JsI3wjSk1IVr6d4NokkNcPCfJFM8+tuViWniQdz6ZItdctiJTP2/CYCZTPy+9Z3ZnLtv3P23+i46QTEpA9Ezz0IUWQWCKST+rZPWKPTZFpiIIq2zPIECK/EuTTvx1SZ4LF5nyoKQyPYkA3qmIjL/I1JPNRBedB4HJKynyKSfL751EpjyoqkzPIvDlSqj3pYqHymMiUx6UVKZnEaDvNOWkn+RKRohMPdtMdOF5EcAzTTXZxwlhXyPTD10boaNtQuALBCDUJJN8knz02aTJJ/xlTNUpMqm5CIGcCOCZJp+s4p1qfrY38cWuwrycQKqYEGiGgMjUDCFtFwI5ERCZcgKlYkKgGQIiUzOEtF0I5ERACYicQKWLxdQaZ6gDI1XThnAKkl7LLLNMepMt19svs3DklYxtYjgG46FabeFw/FYfqz/1i0wl0IupNU5DYcDeEUccYeOJwtNBbhhxxywyMS5pm222MTFIRsOeeOKJpiAU7h9+HzVqlI03Ov74403RKNxW7zsjexkGnzb0KdCmYCBgM+slbXORqVlryNgeU2ucIeIMWx85cqTpPoTywuh5o72QZQzwY2g5WhHIH6+55pqmDOtl0X5YbrnlTBiSdS7bxfB2hrqH9pe//MU8IyIroU09dV+9PwRZkEWGZEiDuTEql3qRFgutl7TNRabwzhf4jvKQD0XHUyGoMmLRCQ3fQ0AXn4R897/0bt3a0U1AQD89YwUij+mRrWElEBE5Y0a5oiQ0bNgwq4ORsywj78Xo2NAQU0H+mKHortzK6NghQ4ZUQzYEWRC8dBFK3//xxx9P8HBoSqCtFxpD31GmhYCM2A2tkba5l0uLcSKkicgMx3n77bdNfck1+iA/69A2T8s7e30D8SkylUQ9htY4OguuTcdTPhQ+4bTQyWN4OdreDB13QyfcZ6zAk2266aa2Ce+AN0L7u5HhnZAIQzrMVYu8PMeCRDTk0PCCEBfJL0JMwlIaNH94Kz7pwyG7jDhlqFLUK9rmIlPYYgp8j6E1TuhFaMSMFyj7pA1tBUI9pLXC8A8RSfZDmBJvUc/Q1fMwkf3d86HVgF7fFVdcYXp94f4IpCDokiWKyTGpj3NCUAXBFrwaEwT4H+pFhx56aE1/Cg/YC9rmIlPYkgp8J4RrFOYhQhmGeS4DFh4C8RL+8A6ufRduh0wrr7yy6eClyQShMNcVD/fz74ikQDgMxSAnE8v7779/ZgZxvfXWs2NSJjS09/IYc0odeOCBplaUnlsq3N+1zQkv0ftD6hmRS+TNeLBsvvnmJhtGcgXtcq4fgUy8KuHezTffbAkXZMdGjx6dEPqlw8vweO34LjK1A+USx6DjjtehX1BWJRUCrLDCCtWjI8OMh0gbSqw0aLxS2gj5PP2NPDKyy40MYUymvHHrJW1zkcnvesHPtKchyZCWQF7hpInC+AWrt5klmNWCpAKNmb7TggsuWLSamvJ4s6x09qmnnmphG9Nups09IOuZkYNzCYUpw/Lo5oWzdrCtl7TNRaawNRT4HktrPDwkDY/wZ6655jIvwWwW2GqrrWahDFm4MFTzfZmsOezw+/r0J/0dn6Mp3Eb/hyxf1rawHN/JDobeLtzO7Be8gwqtl7TN9XOi8M4X+B5La9wPSaOjv8GLWsItfv2w9NJL2+bll1/envCkq9NGZg3S8dmJ1kva5vJMJVpgTK1xDs+MgPRF6HwPHTrUXoii5e0z99Gf4aUuovp4BX+ZCoEefvhh66OQGcQz8G6KWTHQESfr5nM/8b6q0TurvDDwiw2yi1nGtrT1kra5yJS++zmWeTkbao1vOfGHALZ3epmVnvnLqp4Xj4RwhFmkkRHf56VqaKSq6UPx8xze9WCUQWgfAjInE0bjJbuFkXJnlj8MLXGyYP01Xujyu7wsQ27Zp65hO8tkKslYhtrmbONFLokVwkbOl/PmYZGlbc57q0ba5tTXCSat8RJ3oZjOZ7ED8KKWdHGW0afCK2X1m7LK511HcoNGT1+tkTGfLWQJCROWp+/GH/M8ueE98Zrdqm0evkwXmfyuF/hsJZkKnIaKdgACIZmUgOiAG6JT6A4ERKbuuI+6ig5AQGTqgJugU+gOBESm7riPuooOQEBk6oCboFPoDgREpu64j7qKDkBAZOqAm6BT6A4ERKbuuI+6ig5AQGTqgJugU+gOBESm7riPuooOQEBk6oCboFPoDgREpu64j7qKDkBAZOqAm6BT6A4ENJ6p5H10ock8u/uo3DxlVWbwIqAhGCXu3e4VBddwcGCeKhid64qvecoPhjIM8Is9tmowXHd4juEQDHmmEJmc3yFSOHLWiZVeFy6jXNQtZELN6KKLLkpefPFFmwwAdVj0/XrdRKaSLSCm1njJUxiQ3ZBIRjAT+WSG2zOClmH2U0wxhYlIDshJdchBRaaSNyKG1jiHJlRiOpjrr7/e9LpRXkUoEtlhDOkvdBHQpEOMH9mvnXbaqRpeIYHM/mxHT2G77bar6tpdc801CTrfqBwhIIlAC0quNHwkjF955RUjAGL8bPPy6OchPvm///3PBFz23HPPqtb5008/bTNduHYeKqxoUSCmwvdeNpGp5N2PoTXOoZl/6ZJLLklosBAImd899tgj+dOf/mQNHJERJkJjXiXCqkMOOcRmt6DBo8TK9C4I8BNq3XLLLTZv0jnnnGO6C6jCoiSEpgSiJUgJo3KEljj1QpZ9993XhPY33njjhPKQEhF+SIfSEVPTMKsG5THkk9nGRAMIwPzzn/9MIBjret1EppItIIbWOF6JWTBosD6v0dxzz23kQMJr4YUXNvKgPkRHF0VXtMVp8JAJHT3ETVzyeIEFFjDloMsvvzzZfvvtq1cGYSAEgv0Qbcstt6wK8yMdhndzg0gQduaZZ7ZVCLigIgTBOQdUkn7yk58kO++8s23Hox177LHV+Z+8nl78FJkG8K6j5IO2HaRxI5Sj0aMzzvoZZ5wxufPOO03MHmHKCy64oBpOsR7P87vf/c53N0F719tjJfLGEAlD0RUNPtRb3aaZZhqbCsaXkeVyIrEOAqMXPnbsWBPSJ6REeosHAB6OiQHwqhCwntKr193tnyJTyTscQ2ucMIqGHqZXOR3EItmGkCQeBhLhuSAWjd/JQhn2dVFK9kUfDzLmNbxjaGmhSuqHgBzr008/NX0/tPh8alDkwfBmiGaKTCGS+p4bgRha48z8R0Olz+E633gBOvP0gQj1EJJkahg8FsY2JiTDCLnoT4UhnW3ox7/nnnvOpnfxeZ3wSJAawX6mfeHYaV1zCE5/q9dNPycq2QL8Vw3+LolpOPnuy1Try5TNMp76K620ks3Ch/opIR8hG4KQhFc0UiSPCfnwIIR1KLq64QmYp4gsHF6DzN9mm21mKq9epsznQQcdZNrmzARIJhFRSeZa4o/EA30kNMQxZr1AVdY9VZnjdcs+2Xe5W66uRdcRU2ucdzRkwpicGQ9AAoLMHQ0Xz8WM6szGTjhIOpo5XhH5x0hJH3zwwTbBNEkGjGwbhCprhG30hXgJy/kw3xL9ITf6SqTSmZCac8Kz8p3Z13vd9HOiEi2AXob/6iHv7qHHytoHz0KqeqqppuqzmdCKPgueqp7Rb4GA3p+qV67RepIb5513XjJmzBgL5/CK1JllnC+ei0xjL/+kKOzvyjNltZQc65qRI0cVNUV4wmcRiULcsPCm1ez4xUK6H5NVpsi6ZsfkfMOsYJG6u7WsyNStd7bEdfELCn4dISuHgMK8crhpLyGQEO6HEYOyeWoUQiASAiJTJCBVjRAQmdQGhEAkBESmSECqGiEgMqkNCIFICIhMkYBUNUJAZFIbEAKREBCZIgGpaoSAyKQ2IAQiISAyRQJS1QgBkUltQAhEQkBkigSkqhECIpPagBCIhIDIFAlIVSMERCa1ASEQCQGRKRKQqkYIiExqA0IgEgIiUyQgVY0QEJnUBoRAJAREpkhAqhohIDKpDQiBSAiITJGAVDVCQGRSGxACkRAQmSIBqWqEgMikNiAEIiEgMkUCUtUIAZFJbUAIREJAZIoEpKoRAiKT2oAQiISAyBQJSFUjBEQmtQEhEAkBkSkSkKpGCIhMagNCIBICIlMkIFWNEBCZ1AaEQCQERKZIQKoaISAyqQ0IgUgIiEyRgFQ1QkBkUhsQApEQEJkiAalqhIDIpDYgBCIhIDJFAlLVCAGRSW1ACERCQGSKBKSqEQIik9qAEIiEgMgUCUhVIwREJrUBIRAJAZEpEpCqRgiITGoDQiASAiJTJCBVjRAQmdQGhEAkBESmSECqGiEgMqkNCIFICIhMkYBUNUJAZFIbEAKREBCZIgGpaoSAyKQ2IAQiISAyRQJS1QgBkUltQAhEQkBkigSkqhECIpPagBCIhIDIFAlIVSMERCa1ASEQCQGRKRKQqkYIiExqA0IgEgIiUyQgVY0QEJnUBoRAJAREpkhAqhohIDKpDQiBSAiITJGAVDVCQGRSGxACkRAQmSIBqWqEgMikNiAEIiEgMkUCUtUIAZFJbUAIREJAZIoEpKoRAiKT2oAQiISAyBQJSFUjBEQmtQEhEAkBkSkSkKpGCIhMagNCIBICIlMkIFWNEBCZ1AaEQCQERKZIQKoaISAyqQ0IgUgIiEyRgFQ1QkBkUhsQApEQEJkiAalqhIDIpDYgBCIhIDJFAlLVCAGRSW1ACERCQGSKBKSqEQIik9qAEIiEgMgUCUhVIwREJrUBIRAJAZEpEpCqRgiITGoDQiASAiJTJCBVjRAQmdQGhEAkBESmSECqGiEgMqkNCIFICIhMkYBUNUJAZFIbEAKREBCZIgGpaoSAyKQ2IAQiISAyRQJS1QgBkUltQAhEQkBkigSkqhECIpPagBCIhIDIFAlIVSMERCa1ASEQCQGRKRKQqkYIiExqA0IgEgIiUyQgVY0QEJnUBoRAJAREpkhAqhohIDKpDQiBSAiITJGAVDVCQGRSGxACkRAQmSIBqWqEgMikNiAEIiEgMkUCUtUIAZFJbUAIREJAZIoEpKoRAiKT2oAQiISAyBQJSFUjBEQmtQEhEAkBkSkSkKpGCIhMagNCIBICIlMkIFWNEBCZ1AaEQCQERKZIQKoaISAyqQ0IgUgIiEyRgFQ1QkBkUhsQApEQEJkiAalqhIDIpDYgBCIhIDJFAlLVCAGRSW1ACERCQGSKBKSqEQIik9qAEIiEgMgUCUhVIwREJrUBIRAJAZEpEpCqRgiITGoDQiASAiJTJCBVjRAQmdQGhEAkBESmSECqGiEgMqkNCIFICIhMkYBUNUJAZFIbEAKREBCZIgGpaoSAyKQ2IAQiISAyRQJS1QgBkUltQAhEQkBkigSkqhECIpPagBCIhIDIFAlIVSMERCa1ASEQCQGRKRKQqkYIiExqA0IgEgIiUyQgVY0QEJnUBoRAJAREpkhAqhohIDKpDQiBSAiITJGAVDVCQGRSGxACkRAQmSIBqWqEgMikNiAEIiEgMkUCUtX0HgKTpC5ZZEoBokUhUBYBkaksctpPCKQQEJlSgGhRCJRFQGQqi5z2EwIpBESmFCBaFAJlERCZyiKn/YRACgGRKQWIFoVAWQREprLIaT8hkEJAZEoBokUhUBYBkaksctpPCKQQEJlSgGhRCJRFQGQqi5z2EwIpBESmFCBaFAJlERCZyiKn/YRACgGRKQWIFoVAWQREprLIaT8hkEJAZEoBokUhUBYBkaksctpPCKQQEJlSgGhRCJRFQGQqi5z2EwIpBESmFCBaFAJlERCZyiKn/YRACgGRKQWIFoVAWQREprLIaT8hkEJAZEoBokUhUBYBkaksctpPCKQQEJlSgGhRCJRFQGQqi5z2EwIpBESmFCBaFAJlERCZyiKn/YRACgGRKQWIFoVAWQREprLIaT8hkEJAZEoBokUhUBYBkaksctpPCKQQEJlSgGhRCJRFQGQqi5z2EwIpBESmFCBaFAJlERCZyiKn/YRACgGRKQWIFoVAWQREprLIaT8hkEJAZEoBokUhUBYBkaksctpPCKQQEJlSgGhRCJRFQGQqi5z2EwIpBESmFCBaFAJlERCZyiKn/YRACgGRKQWIFoVAWQREprLIaT8hkEJAZEoBokUhUBYBkaksctrv/7djR6tNBFAURU3j/39yooMGykYZcuhL0uVLvdAzmkU3aUsgAmIKiJPAKiCmVc6OQATEFBAngVVATKucHYEIiCkgTgKrgJhWOTsCERBTQJwEVgExrXJ2BCIgpoA4CawCYlrl7AhEQEwBcRJYBcS0ytkRiICYAuIksAqIaZWzIxABMQXESWAVENMqZ0cgAmIKiJPAKiCmVc6OQATEFBAngVVATKucHYEIiCkgTgKrgJhWOTsCERBTQJwEVgExrXJ2BCIgpoA4CawCYlrl7AhEQEwBcRJYBcS0ytkRiICYAuIksAqIaZWzIxABMQXESWAVENMqZ0cgAmIKiJPAKiCmVc6OQATEFBAngVVATKucHYEIiCkgTgKrgJhWOTsCERBTQJwEVgExrXJ2BCIgpoA4CawCYlrl7AhEQEwBcRJYBcS0ytkRiICYAuIksAqIaZWzIxABMQXESWAVENMqZ0cgAmIKiJPAKiCmVc6OQATEFBAngVVATKucHYEIiCkgTgKrgJhWOTsCERBTQJwEVgExrXJ2BCIgpoA4CawCYlrl7AhEQEwBcRJYBcS0ytkRiICYAuIksAqIaZWzIxABMQXESWAVENMqZ0cgAmIKiJPAKiCmVc6OQATEFBAngVVATKucHYEIiCkgTgKrgJhWOTsCERBTQJwEVgExrXJ2BCIgpoA4CawCYlrl7AhEQEwBcRJYBcS0ytkRiICYAuIksAqIaZWzIxABMQXESWAVENMqZ0cgAmIKiJPAKiCmVc6OQATEFBAngVVATKucHYEIiCkgTgKrgJhWOTsCERBTQJwEVgExrXJ2BCIgpoA4CawCYlrl7AhEQEwBcRJYBcS0ytkRiICYAuIksAqIaZWzIxABMQXESWAVENMqZ0cgAmIKiJPAKiCmVc6OQATEFBAngVVATKucHYEIiCkgTgKrgJhWOTsCERBTQJwEVgExrXJ2BCIgpoA4CawCYlrl7AhEQEwBcRJYBcS0ytkRiICYAuIksAqIaZWzIxABMQXESWAVENMqZ0cgAmIKiJPAKiCmVc6OQATEFBAngVVATKucHYEIiCkgTgKrgJhWOTsCERBTQJwEVgExrXJ2BCIgpoA4CawCYlrl7AhEQEwBcRJYBcS0ytkRiICYAuIksAqIaZWzIxABMQXESWAVENMqZ0cgAmIKiJPAKiCmVc6OQATEFBAngVVATKucHYEIiCkgTgKrgJhWOTsCERBTQJwEVgExrXJ2BCIgpoA4CawCYlrl7AhEQEwBcRJYBc5julzWZ9sReG+BtHEe03tzeHUEvkzgNKZL6vuyf9mDCLy4QNs4jenj4/RTXpzEf5/AJtA2Tks56rsIatO2eluBo4mn35kOjev1Kqi3/bLwwp4VOEI6muif03emx0BQDwkfv7PA/0I6TH4+A3MEdf9d5e12+3G/3/9MHx+feZDPJfAqAn9/AXd8S3f8jNRv7T6/jKdiOobHw/71Fvf5of5O4DsK/AKCDewSzm3MVwAAAABJRU5ErkJggg==;" vertex="1" parent="1">
          <mxGeometry x="930" y="80" width="241" height="1034.82" as="geometry" />
        </mxCell>
        <mxCell id="rCrafW-iuFekdM2OdFgw-2" value="" style="shape=image;verticalLabelPosition=bottom;labelBackgroundColor=default;verticalAlign=top;aspect=fixed;imageAspect=0;image=data:image/png,iVBORw0KGgoAAAANSUhEUgAACtAAAAA8CAYAAAD1jWwJAAABRWlDQ1BJQ0MgUHJvZmlsZQAAKJFjYGASSSwoyGFhYGDIzSspCnJ3UoiIjFJgf8rAyMDGIMhgzsCYmFxc4BgQ4ANUwgCjUcG3a0DVQHBZF2QWGxM/x6Eyx5fvWH3ytr/1KcNUjwK4UlKLk4H0HyBOSy4oKmFgYEwBspXLSwpA7A4gW6QI6Cggew6InQ5hbwCxkyDsI2A1IUHOQPYNIFsgOSMRaAbjCyBbJwlJPB2JDbUXBHiCsyvL84tKMhRCwgg4l3RQklpRAqKd8wsqizLTM0oUHIGhlKrgmZesp6NgZGBkyMAACnOI6s83wGHJKMaBEJuxmIHBFeTPJISYhR0DwxqgH0XZEWKqXxgY+BwZGPYcLkgsSoQ7gPEbS3GasRGEzb2dgYF12v//n8MZGNg1GRj+Xv////f2////LmNgYL7FwHDgGwAlPl9k641ncAAAAGxlWElmTU0AKgAAAAgABAEaAAUAAAABAAAAPgEbAAUAAAABAAAARgEoAAMAAAABAAIAAIdpAAQAAAABAAAATgAAAAAAAACQAAAAAQAAAJAAAAABAAKgAgAEAAAAAQAACtCgAwAEAAAAAQAAADwAAAAArwExYgAAAAlwSFlzAAAWJQAAFiUBSVIk8AAAQABJREFUeAHt3Xm3JVV5x/HT3UxKIzhEEacGAREHMCbEOGAbQBKDrmQtjSsrK//mPeVFmESjuEAMozOJExoxAi3gwCjzID2kPvv2c9ldXefcsYfb9/f0On3OqWHXru/Z9dvPfvZTdXf89J57D5155mmz3We/ZsZ27NjRXlOfFy2rdet57/dZ7efxdlPf5y1btNw6hkMsBEIgBEIgBEIgBEIgBEIgBEIgBEIgBEIgBEIgBEIgBEIgBEIgBEIgBEIgBEIgBEIgBEIgBEIgBEIgBELg1COw8+DBA7NDBw+demeWMwqBEAiBEAiBEAiBEAiBEAiBEAiBEAiBEAiBEAiBEAiBEAiBEAiBEAiBEAiBEAiBEAiBEAiBEAiBEAiBEAiBCQI7Dxw4MDt48ODEqiwKgRAIgRAIgRAIgRAIgRAIgRAIgRAIgRAIgRAIgRAIgRAIgRAIgRAIgRAIgRAIgRAIgRAIgRAIgRAIgRAIgVOPwM79+w/MDiSB9tT7ZXNGIRACIRACIRACIRACIRACIRACIRACIRACIRACIRACIRACIRACIRACIRACIRACIRACIRACIRACIRACIRACkwR2Hjx0cHbwQJ5AO0knC0MgBEIgBEIgBEIgBEIgBEIgBEIgBEIgBEIgBEIgBEIgBEIgBEIgBEIgBEIgBEIgBEIgBEIgBEIgBEIgBE45AjsPDk+fPXjowCl3YjmhEAiBEAiBEAiBEAiBEAiBEAiBEAiBEAiBEAiBEAiBEAiBEAiBEAiBEAiBEAiBEAiBEAiBEAiBEAiBEAiBEJgi0BJoZ4cOTa3LshAIgRAIgRAIgRAIgRAIgRAIgRAIgRAIgRAIgRAIgRAIgRAIgRAIgRAIgRAIgRAIgRAIgRAIgRAIgRAIgRA45QjsPDQkz/oXC4EQCIEQCIEQCIEQCIEQCIEQCIEQCIEQCIEQCIEQCIEQCIEQCIEQCIEQCIEQCIEQCIEQCIEQCIEQCIEQCIHtQGDnoYNJnt0OP3TOMQRCIARCIARCIARCIARCIARCIARCIARCIARCIARCIARCIARCIARCIARCIARCIARCIARCIARCIARCIARCYInATm/DQ2hjIRACIRACIRACIRACIRACIRACIRACIRACIRACIRACIRACIRACIRACIRACIRACIRACIRACIRACIRACIRACIbAtCLQE2m1xpjnJEAiBEAiBEAiBEAiBEAiBEAiBEAiBEAiBEAiBEAiBEAiBEAiBEAiBEAiBEAiBEAiBEAiBEAiBEAiBEAiBEBgIJIE2zSAEQiAEQiAEQiAEQiAEQiAEQiAEQiAEQiAEQiAEQiAEQiAEQiAEQiAEQiAEQiAEQiAEQiAEQiAEQiAEQmBbEUgC7bb6uXOyIRACIRACIRACIRACIRACIRACIRACIRACIRACIRACIRACIRACIRACIRACIRACIRACIRACIRACIRACIRACSaBNGwiBEAiBEAiBEAiBEAiBEAiBEAiBEAiBEAiBEAiBEAiBEAiBEAiBEAiBEAiBEAiBEAiBEAiBEAiBEAiBENhWBJJAu61+7pxsCIRACIRACIRACIRACIRACIRACIRACIRACIRACIRACIRACIRACIRACIRACIRACIRACIRACIRACIRACIRAEmjTBkIgBEIgBEIgBEIgBEIgBEIgBEIgBEIgBEIgBEIgBEIgBEIgBEIgBEIgBEIgBEIgBEIgBEIgBEIgBEIgBLYVgSTQbqufOycbAiEQAiEQAiEQAiEQAiEQAiEQAiEQAiEQAiEQAiEQAiEQAiEQAiEQAiEQAiEQAiEQAiEQAiEQAiEQAiGQBNq0gRAIgRAIgRAIgRAIgRAIgRAIgRAIgRAIgRAIgRAIgRAIgRAIgRAIgRAIgRAIgRAIgRAIgRAIgRAIgRAIgW1FIAm02+rnzsmGQAiEQAiEQAiEQAiEQAiEQAiEQAiEQAiEQAiEQAiEQAiEQAiEQAiEQAiEQAiEQAiEQAiEQAiEQAiEQAgkgXaVbeCVV16ZHTp0aJVbZ7MQCIEQCIEQCIEQCIEQWDuBE+1zxt9d+2+WPUIgBELgZCVA06PrJ+uvk3qFQAgcLwJ08I9//OPswIEDm3JI/rryNmKbqc3Oa63lHTx4cOYVC4EQCIETQYD+vPTSS2vWrr6um6XpfZnr+bxW/V3PMbJPCIRACJwqBMqPPt7aqd/hv8f/PVVa0tY5D239xRdf3LSx6NY589R0MwhoP8dbLzej3iljmkDfB/l8soxnpmu7fZeetlmnzvH49a9/PTv//PNnr3vd61qxv/3tb5eL37Fjx1Gfa9mf/MmfzM4666y2/oUXXpj94Q9/mNU6C/vPU98te81rXjN705ve5OOajOg88sgjs//7v/9r+7/3ve89Yn8D+V/+8pez3/3ud7M/+7M/m73hDW9o65999tkjtht/cT5nnHHGeHG+h0AIhEAIhEAIhEAIbFMCv//972c/+tGPZhdccMHsPe95z+zMM89cJiGAeOedd86ee+652V/+5V/O+MfH0wzYfvOb38x+9rOfzXbv3j279NJLZ29+85uPZxVyrBAIgRA4YQSeeeaZ2UMPPTR74oknZh/5yEeWx/LiBfTZ+P/xxx9vsYO3vOUtswsvvHB5G4Fw+63VTjvttBY/sR8Nfvrpp1siQV+Obc4+++zZ888/P9u/f3+/avnz6aefPnvjG994VNzEBr/4xS9anMZ68YxxbGW5kHwIgRAIgZOIAO197LHHZg8//HDTrQ9+8IOzXbt2tRpa9/LLL8+eeuqp2aOPPtp0+Yorrljotz755JPNx6XlV1111Yb8bHXiz7OLL764+fRr0Vb1V+8f/vCHs9e+9rWzdw9lvG0YG6zH9F0///nPW3l/+qd/Onvb2962Kp3Xn/3v//5v68fe//73t34GU695hr84tz4nFgIhsP0I0AfxDHNk4hlvf/vbZzt3Lj2bhx9rDq18Zb7xhz70odk555wzFxS/+6c//emMr3v99devSruqMBr6P//zP23fa665ZnlfE9B0kd88NnN1NXdoHtN84FqMzhsDjDWQ/25ekUaK8dB1rOZNhivHOY/LWUtdsm0IhMD2JkB3xG5p8Ac+8IHmx42J0CCaTLP5nu9+97uX8zbG2670nU++b9++loNxySWXHBHLXmnf8Xp9xc0339zKuvrqqzdU1rjsRd/1U/odPvy73vWuxq3GFov2y7pjR0BfqV3pW88999x2IPMS2utK1ucU6fPlFK3V5BSJk41Ne9evy3O66KKLWr9uG77DHXfc0fr3vXv3Nn/D2KjqPi6n/26u55ZbbmnzLZ/85CeXY4n9Nvm8tQmIM9Dm1Zq2xzddKY7Apzbep+V//ud/3q6X1R4j222cAJ3CX3+K/3nnndcKpRP6sykzr0oXapzUb6McY5jLLrts9o53vGM5LvT6179+dvnll6+7n+6Pkc+bQ2BTEmh1aBw2wTc/8sc//vHWqdx+++3LtexFoP9sg2uvvXb21re+tW0rEPn9739/UjTG+1XhluvIHJcjZACs4+2NMyQRQP3GpnM1YOc4jRNobfvggw/O7r///tZxG5TrKG+88cZxMUd8v/LKK2ecyThhR2DJlxAIgRA4aQjouzigBlkCnF7z+hmVljxhe/2MAZYB0qLtT5oTTUVCIAROGgIG05KZmOClgKYBF9+StvBfDbYNoCVnMb6kQddUUKdtsAn/0UOTUBJ4vbthTB3Ud2zvfOc7M9kzhpLvIRACW44AzRWcN4lCh/mDbuYVHOPj0WCTK5ZJXKXTgmNeApd02c3DTPzhrrvumjtRPg+OpIK///u/b/6k8n/84x+3+vTbi1/oL8QjJIBNmWQAMZXxRDw9/8lPftLq64YIibhTviu/1qSF91gIhEAInCgCxtseYGBSoSYkaDOflC7ziWkhHabL9NpnY3T7fuYzn5lbdbp97733Np2j/+sx/rL63X333c1fpqfqqo5iwKuN/0r8FS/30AkTs26oe2k4h7FJhnXuTJ0xGZtzV44HWtB4Nu4L1JO+94ls9tP/STSzXNKXmD5GznPK1FUis6S5WAiEwPYgQN/EL9woRrv4xfSDj0kr6E/FM8Q2SpPRoTsmmucZzbnvvvtm4gtT/ul4P76yWInj8InVi366kaG08sCglQ8M/YRyx2aSWsKLyWxxjv/6r/8ab7LwO23Vz9TEeW1sLpMPTyMdQ2zZRLvkmyk9VVc3LvDvYyEQAiGwFgJ8X1os/kDnaIy4BF9OYj6N5tvRSrpNw2k23eOnSraltzRczgNdLbONmyNo8tgck+Y6jhyK/mEQ421X+i4P44EHHmh5GGOfdaV9N7LeeWMgF8R5i+VUPGcj5Wbf9RHQdu+5556Wl1M5RdrXN7/5zVUVeO111y3fgCiu953vfGdV+/UbySn6xCc+0S9qn11D+nAxNOMe/TrjfxgLGocap+n7JfJKBC8/pManbYfuP3U052O85sZ21+XY+E3GvLGtSYCuib9qJ6sx7YaeruQD0yvth+ZLsIwdXwL46y9dv5e/733L4wDXv99lyuQiupGwdKHfxn73/vLe1k7oh3LpivHM1Lih3zefjy+BTUmgdYHrTH71q1/NHv7Nw20AquPhjHBKiAAT0GTlGAk0uvOillung7Efh62e9ipQWANwHUw/sWN/+9QTsogTB9JkVy88nDqTQlMJtMp3EXiNzX4CieWUGgh7Oe6UKUN9NHblrjaAOlVWloVACITAegh861vfakFMGrTIaKIntUzp4qL9jvc6joMJJjrMJAhIJBOkdK5jo9vOySB4z549cwf1dNzdPvsGJ8VEEBZ9v1HlCj5wbPRxxZS263c4rW4AOVm1nnPHcRcw0S+9b3Dy8Pnyl7/c+qo6R+/Owd1R2AqWOL8pHv0++RwCIbA2AvSsXvYU0DQJz/dl9IYJ1Lh+Gb+Z1lQCrUCnIJMA5lrMnY1u7io/vN+XT05nayJM2fSRPz62f/iHf5gsY7xdvodACITAyUxA0FsA0gS3MXzFCwTR+Y/0UCJR+X6C5hJV+Zd8v37y3PjfRL5YBV9rJeODCpD1gVV9g4kuwXp+rAkwWmy54ylfX+GzdcxxJYXR9bFe8/083fDRx5YSHJ548omW5DtVN2MCT93t4yxT22VZCIRACBxLAmLD//3f/90Sm+iysal4Ml2mi5WQVLFWk6wmL2mYCX9mnWTS/qngtFayKF00iUF/fZ8yeqqs8V+CUIaYgBet5lc7Pj+ez2wSVKKYvmSR0XgTw7SbvusPlDnWcGXccMMN7dyMycXEpx7koAzrmPNy7uMxvHG+RK2PfexjbTv/GeubEDamUH/nq0/BqPq92lh/6fysn4qb13Z5D4EQOLUI0JenBr37wQ9+sHzt02LJn2402zHECmiOp9La9rTTT5u9/rzXt5gDf7l0ma7Q3H4uja5YRm+8aOk80xeIUdJPN6xJfqXJjkmXaGppqP7AZz60eUX7qh+d7BOl7M+3dj4muE2A8/uNAbwkeOlHPNmbz3/HnXfMdu3cddRfg1AXsWnvJsvrRgZ1pfNjPXWOtqmbpeedc5aHQAiEwBSBxwdd+t53v9v0qRLw6CJfjw9qGX2jsfxqfi9f2ovfVz4ifeMDVgzasSrGMJVAS2+V6eXzeo028vX52+biSrvXW95a9nPu4urGFT/+yY/bTXm+T8XI11Jutl0fAb+HPlvf++BDD7acIgmF+mbtWV/MtOPmYwwxMPu4aUef+0qXy6OPt5/21OcUuR68xjlF9uc/OH4dw02aYoAXDWMmfbfryHvf3n2uF99AGfZzA42/cKJ+/AcPGxxbjaHU5ytf+cp4dfv+0Y9+tPlQkyuz8KQn4LfVDnfs3DE779ylp5SOK61N8Yu1Ha/ejOX5lGPTdszbMfP8+4ZchrHRfzf0lh86Xp/vGyPgum96MPx+ZXREXMi4iAYwfascEr9xrx39PjRv546dLbZvOxqibO3Hb1t9ce3j3VxE6VW/PJ+PLYFNSaBVRRM5e4e7OG+99dbWSOrid+F6JLmG8L3vfa8NWCUpCc5x7vrBc52qjkaS6nXDXSSMQAgoEgcJBO6U0okygT7retO52Ucg1YBUgzVwNjA3IK661T7ER2Mmbu4+tZ9gqI7OpFoFBtwZ685aT6n94he/WLsf8c4BNFEVC4EQCIETRYCzT6umOum+TgYV5bz3y0+2z86DTgs+MnW2zCC/lvV11oc89PBDbYJNgNTTyTkZlvf2zODk6B/0J5zLqUF7DWo4P2NW+gyBWH9qXXLquPz+WCfqs75XHfW1ggL6R+wkIzu3sWHASdP/CWToc6fulBrvl+8hEAKLCQgS0pt6chT98F3AxcRSJU3xPwXvXKuuQ3ce85n7RC2BIdpXZS0+8qtrTZQrtw8O8on5rXxsmspv59OP9ZCO0BO2Ut/y6hHzKQRCIAROXgK0jAZ6/9SnPjXbMwToaW495ZDuCXy+9z3vbcFw/pEXv9H7WCedKX9L0HMl41PWhNZ4WxP9fEvJrOIn+ocyk/zqWkFRPv+//du/NR+090Mt9wQOExH7X9nfkrzEV6rOgnP6EK/y/eLvFeW8h0AInCgC9JifS2f/6Z/+qekgv5UuG7uatKd/H/7wh1us1zrbli6rN1+Xj+1mtDLl1oQ/H5xf3mtmbefdzRL84Uqgte9vB7/7R4O/LKasfo7vyUH0U33u+tZdLS5tjG15r7dVNt03oSqGzefWj4g9ly7XdnRZ/ZhjVz2dl7i2c9UX9P58PRWpyujf9SH6ukqQULZEZMv4/Oos1qHsGv/3+/tsnQQ6k0SxEAiB7UXg4KA99EJClYfl8E/pjxe9oq3irXuHOUGTx6XHva9MdyRq8U/L6BtfmJmrqwcm1Pr+XbxEPJMe0kwvnytJpsrSV5RmqqfkVzrr5gPa7RxqfZVPG833VaxD7Fl/U98lCIu9HNh/YLbrjKW5yNrXu3WSHTwBUnIazXUMdWL6BNrKlOuBP3WjdFuY/0IgBEJgDQROH/xH8WHa68X4hfRPzJfO8gvNC9IcGuQG3/KZ61DiAXxTui3XYt+QtCN2IJ7hYTU0szc38tJL+3z7299ux3LzwVhT+32mPtdNZ27sUt/jbWIe/HRjBVqsX6DdsRNDQP/uQUk333xz8ymq3Wmv4l7asPamT5ZTJIHMX86bGpNoi37b66+/vp2MtipvyJyHfB7JhTXu0g77HB7jLOM87UI58xLV6ppzAD6IuN1NN93U9jWfwxdwnRhvzjPX3rz16tyP/+aVkeUnN4GLLrxotnfwi6eM73vHHXe0vLPxejHon/386OTrQweXkjdtT7fEqce2++zd7UGQFSser8/3tRNwrepLaUPFZ2iEa7z+ioTr1fcyn+nJPDPXa1yl7/WQI+MM4ynmWPV5vD/9mqdL423zffMIbFoCrc5HgFGHpyOpiX6NRUa14KVGdvDQwTaZwzHpG9b4lHSSnD0dlkE3J5B5JwI1WK7l4/13nbb0dEB3f2p0An4cPZ9rEFz71KC2BvS+e+qsQbPs7z3DZFo5mzpGx/akgSlT71gIhEAInEgCOmDBRVrmZUKE0S76aUKIceoFN7eC1bn0de2XOSe6zAGh8ZIFvDgh+qTPfe5zy+etDM7qo8NkkQGXO0/7JxH0xzCY4rwyTAU+HVffwGE14BFsFTAWsDjZrBjVe18/y/Sx2oG2YVDqpd/GUeKFwIIBoPWxEAiB9RFwrdEKN475zPij/vyVJ0FJVKcp1rlpy2S2wZlBFV/YNvSnN9tKsuKf0vx5ZjuDOxPldWzbGgTyzwVGaaZ1ynEsfi/fu0xdPdXFdgKkiybpa5+8h0AIhMBWIcAXEqjug9ilc+4K93m1Pl4ft5h3/vTXS7lTk0Z8Lv6Xif9ei5VnneVeTL0rXlK+mv7DJIMJ/dJ9E2E+e6IF319irliHJ4VdcvElbfm8+EY7UP4LgRAIgeNIgK7xO70Y3dp12Df1mQ9cMedxtaw3GVuxWeNbkxHivWLWJh5q3Xhf38UVKilLHNlDEvjSyqGjYge0u2IE6nLZey5ryWH0VxIYX9rTaMUImHi4sbXEKmNt+u8mXzfh9jovbmNSWF2ND4zTx8Zf/+xnP9viOmLqXpaJjetb1NX5qxczQUzzy4zz1V2/oJ4mp+1r++pHatt6F0/p61nL8x4CIbB9CNAX8dNKWqGjlrHSzfKfx1T4rR5wU5pofo4u01TLadg8/VEWP1zZXh7S8/3vf7/N8X3hC19oZdDd//zP/2wT0eKX9Vcp1ZHu8pftK5lW/8L0FXWjBF12Duqh33np5Zdm5+w+p8WYbW+9upfP3QoY/qO/9fRZN1bgccstt7TEszpX+lparj6L+p8qN+8hEAIhMI8A/1ciId3jozJzVWLG5Rvz2zzkzLwVbaOvbew/+NJ83NJB+/ouuZCeSaCll/uGZNrywW3D6LWX9WLJ/EgJPX1ZS1vO/9++4uBM7HuR7s8vZWNr1Nc5i7s7DwnHfd+wsdKz91oJaAP64r/+679uc7XVhvWnfh/tRT8up0iMS07RuG32x9S3VwJhH5vT91ZOke31zX0Sou/agZsdzYFUGbblA9QNP8ZRvUnAVndtig+hfZlX8dedevvGN77RxoN8EWNR19qll1w62zskWfbXkDr33/sy8nnrEPA79m2or7m2NM8XFGeY2k9iuXlDOs7PHc8RKr/aeH+sfN4YAX3pAw880OIp+j8mKd/v4KnurlVa5SGcZdVX1vf+3X5iM/bTb9vX3K932uXF/L767t5oTOz4E3h1dnydx+b4PDEkBbw0BBPLBOvKAdJgDK4rgcs2gpA6FJ3PlNnH3af//u//3hqT7wKITIMSlCxrHejQwKZMQ9ToqtPROckMV+cyZQseelKMAbmGW4Nc67wY4fJodcebMoHPT3/601OrsiwEQiAEjiuBa665Zvl4nDJPphKcFLTzpzA4Y8zg2EQQXTNhQqvpoQ7ZpBD9s95g0rZ0nU56GVj0Zlv7cwQMJgx4dPact9Jg29vOIFufYDu6vFKwtD/O1Gfl7xkmfz7zmc+01TTe0w0EEhxLQNOAi75XXZyXgID6Gaipw5TZRp05LQY1BkbMgE3imQRdfZrBmzIw0LeVs4sdJ7cCGeUI1bFsi5kyOGUSJiTzGlCpKwdK2c6pEikEm21vG7/T2KGqslfz7vwlF6uf81Tf7w5/Cohz6JiS7hyj+sXVlJltQiAEjiZAf931T2/phu90pPxUgRrXtSfBSmKSvE9zXZv0lo5UwlSVXnfO22aeua77pLDaznLXN410HHc9WnbzN24+IpmKPkn8FUAyuWViiG7EQiAEQuBUIcAfpXO98ZXdUMtP43fxB8fG1+Mz974dn9Jy/jcfrl58PMeh5fwress+NDwZq3zTKt/xvvrVr7blL7704uzc1x2dQCURi2//29/9dkgq27U8Ma8M/ii/Xt8ggYtvxy92w5f+RzBXbIX/6GkzgvvR9aKf9xAIgZOBgNjDf/zHfyxXhQ9scp/RV7o2pVviFOVz25YGm3ylfbTRn9b0kAVm8oNfrtxKomorDv8n6eD2229vY3U6bRtjfeNkr7HVjQ/KdExxa8mp/GcJtJbTfn2LfsPNaZJdJYOps3GApDDH9fQkPrfxfpl9+Oz1Ek8Rj8CCjot1OI7JZX2OGyZoPM0fT8aqR/VDxgKVtFvHqnfclSNmEwuBENi+BGgpbfIqEyOUAMVoNs0bxyZpD19ZfJimMRrurz/yscUaPSmO1vguFin2QSfnxWhtWzdF0FX6qV7la1vfm3qpH+2n02Xq5Mlx+ocy5fHX1YHu1fmYS6TRd9y59MQwT7bFxL4mzZ2jGA5/W+yFHvP3mXh09VfKFleJhUAIhMB6CTwmRjvcbEUHy772ta813/GGG25oPubjg49ovE/7br3t1pnkPUabJPf1Wmg5P7diEtbxK0vDrGf8TTER+lgJXLXP0hYr/+8GX1rPxMDL6Kl5OrESx6eZNFdcRF+gr+D/6j+UYTu6qx/q66Bs/rH9fNYfyFNR5347/rU+gC/sOI7d+9xVr7wfOwL6Q+30hcM3SzqSNuF3ZhJma/64xi1+K+1Be5ky27kuvvSlL7XVvldOkViYfKMy/b0ny5c5rnYmhmZd/1T82267rZVbbbf2+dd//df62ObKPaWfv2DMVjFC15G/4nH/A0sPTTE2NKZUR+NJvoMHo2ijsRAwT+il7famTdI2c3Ty0MQXxtZr3Hhdvq+PgOtYnoYxBP0QC8Je38O/N16pPBvXsP6rNEc/pt+kK/oiWmD8491v5SYO+SrKoTsScksTaIn9YieewIYTaDWIu4dOQOdUF/bf/u3ftgbg9AyWDSwvHRrT94aBMAfHRI6GZ6JKI5qyflCp3Oqgnnv+uVZG7WOAXMetZd491pqTSFQck+mcNHCNVIPWMdpXAoFAo0G3us4zx7KvBl/76rCVr35T9ZhXVpaHQAiEwIkkQLNMuAjw6fQNKE300F4DZQNJd8R40b1e8zhyHx0G3BcMHb0On/NgooaWlllOcwUk9wzJrfaXCCqp1Y0Qpcu25zBcd911bfC7Gc4efafl+gDJaM5JUFOggNFqjqdAqgF3P2hvG3T/qTej/ya4DNT0AQY4zq3+DA5HR3/mT4PpFzlWBvXYMA4XDhwgE3vq4PgSIOrpNc7d72JbwWUTfMryZx0EKSTvWq/cGiyqv8RhrDdqji9I7Lh+cw6cvt2AVRuJhUAIrI+Aa8t17+YGN2yZaOEH0yQT5XS4rmk67FVGu7z2DPrhrmb6sxlGZ+gu7fbUABqiHq55x+c/0xx1FXz0mX7RvlgIhEAInEoESqMFu/g85bs5R34XDXa3P6vxvn0EytyYVpMv1ol92Oehhx+aeXotrfWdX2USnoZKbqXlXgcG/3JsyuF3MjGN3qxTnmCcoP6unUtPYuSPljmGhCfGJ5bQS9v5m3zjMutoP1/ThBGfV/29O79YCIRACJwoAjRIjIDe0eTSXvURUzAR6dUvt48xNH+VWUcnJcqKB0iUNTFRZmxvPE4Hp8bSfHdxAnrLZ98z+OJiC+IIUyZOIKFA8pQb4eiqGIH99RX6AJMskmNNljg2P1uisMnW+hPmjim5YTz+Vt6//Mu/zJ4c/HIxGv66mIrt9CvO3/FwM4735DFxFzGLf/7nfz4qWaLOwRhEn4O1OioHuz++8seWqGB5LARCIAT4rXSRnvKXe6N7X//619ui0mVaUj5p3QBBb+iShFdPfuOv8r8ZrfHkN/7pBYMO0tSxSXLiU9M9fYOy6Ko5PfWj5c8NfUTVwTbip/YxH8jPZdbTPev62Iv6SdDyMontHOxrHKAsOuw4TF9Ew7HwormsbuJQN9biqsMNb2UHDxxcLqOW5T0EQiAEVkvgrMFXM4dHnyRU0TPax3/kf/qrA6WBtmF0iz9Kb2tdHY+m03CaxviCYgsVj7AfE8ummXTdzRNTGt02XPCfGwhoPQ13nDLxCHOUjlFzdGIX5YPSea8bv35j+2uT9tNX8Lv9RQdlKdsNYa1/Gc7budvfX9z55NWfbDeVFQ/npP72c2wxEvoeO34EjKfkChkPaZNeEsCNk9hpu05r4zq/sRwiv9Ff/MVftHGO79rilOmzK99ImdWOj8opOnB0TpG4mRif8Z4y6lrRXlxDNWZyDKYNll9hvc/2KV/CQwe/O8z78gMs0xbroUnarWQ6T8w3/+Kv/UmYc6yai546vyzbGgRoT5/70Neaj1na1i+vzxLFxQp6UxadZnSy2nhto93UjWq1LO8bJyCe74FDrls3PxsLyDlxrXtgHX3BXj9qXkDODP/fer+xGI25YLqmb37k0UeWdcV1/93vfbfpgn7PNsYetMJ4p/pkZ0ETavyx8bNKCWshsOEEWh1F3ZU5npRREY3n5ptvnj32+GMzg0TmrqcadLcFo/84M8oU6GNExYDWgPg9ly45TOXwSNgiGmPTQN1ZUmJTA3JBScFGnVJ1yON9V/r++c9/ftlJ1AF++ctfXmmXrA+BEAiBk5aADtuLTurY6boOW3KnDppem4jhJHjSFd27b5hwesOwnCNB0w1Qfa4BNMeOMyc5THkGxxK1fnHvL9pkvzIZh0DfIfH07/7u7zY1OcsEmYkx/VAFFfQd+hT15ZBIQNXfzDN3dTkPfYrJN/2KQIUX58m+BljOnYNbpl/CUvn2FVAVdMXCU2bwMeknoQF3jpLt9XMGhZwtCWv9AN6g0uBesIKDZruaoNvMJ6CbeBN88TurO4fNu3OMhUAIbA4BGkB3XVd0ogZIlhsUld9aR3Pdl+9byzb6Tq8l5ZaZ2HIcgUvBx+oXDBbd/KaesRAIgRA41QjQ3L/6q79qsQET4Z7+WkZ3+Xl8Iz7rk394svmxgmN8JcEyZh2zrUQrml7Gj7KfbR1LmbSeb8WXHJuyayKIr8j/LrMfX5F/buJKYI7/yM/k7yqT/0a/3fxgYsE6T6nlQ9qeL8oXtr1kh/Lf+bSC9nxfk/+xEAiBEDhRBPijX/ziF5umGYOLKZTRLDpJ+4y/aSRtpdMVYzB5aWLWBKhYg8mMiwd/lnbSP1Y67b2WWa5826mD5C4aqjxaLtG1zPGZ9WXG6Pxr4339gXoxZV177bW1WSvHehP99Sd4abTyTX5N9Q3qIKbhz5SbuFU2H91Ti+oJJXTcAy32DTffmqQRh//q1746u/oTV7c/97tcgYkPYieeimQM4ljq5gaSWAiEQAjQRUkl4o50V7ygJvLRaUkhbzm/6SdN42PyJcWRaR3jo4ppinXS00oWqeQW77SnbTt87nWZ/8p/lhwm2UT5rB760L4M/3lqOP+84qjqynfm+5512Ae3rbrrO8Sp66Yzy2ks3eOzeygCnXWTseXs8ssvb+fDz3Z+tFofQ5ONBXbu2tluTrauYjcY6IOYc+KnO/9YCIRACKyHAH2TVEjr7r777uaz8h35mvSFH8qPpUk0lW75iwSW09Kx8Rm9GC1nkkr50LRQ2RXzaCs38J95LLYo1iB3wzmqL613HvJCvCzbtXtXW0bbxW7Mp/GH1dd3/RV/mu77Tuv5tHxkr7LWLww+L/2ufqjW5f3YEzDu0T/6HSpm1R/V7yJWJeGsnhR70003tbGedVOm3/UbuxGR6XO1G/lBcopcN9U3yymyrjd1EgursaD+n3nQlLbH+CBidMaP/Bgvplznor2ZUxez4w9pW3wJ157rSh6RhDo+lTGXa9h1q93LVdKWjcnGc0LtIPlvyxCQd9DHlfuK02Wx2imzjs/Jv50ybbQe7tCv114kdlb77tfl8+YScB3TIL8V/9544ZZbblk+CK1ww4d8khor2WccV/HdAzNoljmEGhvQA6/exHr+8R//sfXt/fJ8PvYEjvaa1nhMDcLdH0ynxjHpzR2lnCID5d44dX2yUb/OZxe9TtRFz1mSZMTsp1HpyKzTmKaEwTKDdC8BTZ2aRq1jfPChB9sA2kC5Apqt8FX+py711IFxtv8qi8hmIRACIXBSEaDlJuLpqwkpiac+G7ReccUVLZmT8/fSt5cSY8tZMBgQMKSvHH3JWPTXIKMCm5wFA16Dgf2v7J9d9v7L2lNODehtY7BggCHpdDPvllJ3fQXTD+iHHNMgm5NivURYzuc8c+6Co3T/+Reebw7SvsPBBWXbn4M6viFDmSbJ9gxPquH43jb8uQ/BYn2GgaFBlf4HY4Mmx1E3L0FhdeVMq2OZzxwqAz4sBa05V8rdTBMY6YMjfjv1KZabeayUFQLbhYBrSLCwBkR0hH9L81z/zJ8sFGhxjbvWe3P9bfY1qE4GfTTxheE6f2TQcsen74wvbiDoxWriiD4sCni2jfNfCIRACGwRAnxYsYKKF/TVpneCX54eyH/zVwHYx4cnHL5t8AHL+EpMQhWtp/Hl6wmau5FYAF8Mga/H7xUnocNTxpem+bbtzX5VB36kutNwcQ0vWs6P5Ls6Pn/U5L7EMmU5H9/pu8Ar/1a9vOi/c3SzRDS+p57PIRACJ4IATaaRdK43MWEPWzDBKLlWomglf9I929NaMQaTo5aJLR8ayquJUOVV4quxdE3E0kl6WclO9rUPXR1bPenWpPzY9BtuhKhYdfncfH+aLYZCc2vyzHHEBNzMRqd7n1ucRjletNn5q6eECOdN5yshoeohxmBytv7ajXNaySpeoy7Y629iIRACIVAEyl/2Ptblt7x5KXlfzNIksrk3CVsS/BkNNH9Hr8VEbSfBqcWYB02sbfijtI6PWjpI4yRI0T96SN9sN89sU+v5vMrzIISfDP2Fh0Dwn/UNnnY7Nj57+ebqSmvr5jPb2kcC8J4hziv27RzFSiRu6Y/0NR6E0DOi0zVvSqsdYzyJPq5HvodACITAFAH+Gf2qeEBtUw/3ciPU5z73ueYr3jbMQ+0bYhLiE7Ss5ubM+XmV0WPf+cUvvPhC8wHFEuidfSXueIL3ZhgfmD6KRcwzGq3v4OfSbjfR8VH1BW4Sc7Ocv25Jo/nVdaOEz0wuiCRIeqzv4Mc7f+en/yij7eIt+osDA9fY8SWgT6+H533lK19ZniupWui7tcvqz2v5anKKzNUybaJyirRlPkHNq7ScoiEe15tj2kY7kXRbvo6xUcXe+DAVN1SG/r3KVJb5Wgm26q0tOgdPdNZuPalevM34zNN2+QeW8yH4BcakxobYqEds6xLgS9bc2vgstKtxu+630WbkGtiu2hoNU6Y2TT/HN0P4rv3GNpdA/Vb6j/rN9K2ubf68sUr59MVfP+darjkCNaJbrmvapF9TrjwccR8xLTfE1Hyxvk6/3P/G2kSVv7lnmNJWIrDhBNqVDnD6aafPLh86iX1DcLD/kTlfkqUqYFjlEAVGYDQmpjFy3JhOynKiUd81uLF5yoqgpcQEAU0Oo+NrmDpOnZVyiNFa7fY7bm9/ktF+Bw/FwVorv2wfAiFw8hEwOKWP5fQLBJo4MnGi4zdwpp3l/JVWW0ajmTIMKJiBrsGJ7UzYCICWI0Cz6+ngVY5JK8HTzUygVXb1D+6i1W/4bsKKg6MfGie+tsp3/3FkPGVBH+KlzxL05DiVQ8R5PXM0+DdQrwCDwZDJMM4TBgb3EubwMbmnnEpa815Wda/vOJpY4zRxpkwKKq+41nab8d4fW5vo++/NKD9lhMB2IkCLaCXd884MeA2gaKNJGCbQUlo49o/rJge6tRnGr3bzAy302Ws8+V51qjrXcembpzVGF4pI3kMgBLYiAb6Ol0AkH5Q/RRNr4rz3hVY6P/ppe4E0Rh/5eXxpvh4dFQSroD3t9+exx6YMgTYTPXxQE13lm9tW8F7gznZutOCDm0Di41rnGGIg6sH/5Dt6t66e0mVCyVM5+KKXDJP+Tw9+Kd/UOdh+s/qZ8bnlewiEQAisRKD0lz/Mb+ZDiwGz1WqysbXJ9vKvTT4YO3vYA70sq1iBRK/6q2a0suIgtV29u0mBrvPRxUTURxn0nk/v5gP6/cSTS39Ot+pre/FnvrY+xl95GI/fleE8revNBK4bONSfeRdXsJ3+wWuR6RPUeTW6blzgibU7dyzF2vU1FdtZdIysC4EQOLUJlFbyFekyf7HiwnSutG4eBfvzgyU7VVyBlvFvJZkot0wfQEclo1asQfxT7MTEszgzPeNbTx2Xhivb/owvzd+lv7SeD+wlqYqpm/5GTJculz9sHd+arovDlC+ubLqqP2D2N4bQh/hs+3rQT020ix1XP+bc9FGxEAiBEFgvAZpovokO0yx+ruQbOkUraRG/03yeeIMH5PCB+aN0zlO3+7k382LXX3990+Mf3P2Dpn101jHKR1b+Zlhpafn7U2WKR9BoPqhkI7pOO9VJLIX2q7M+Zf+B/U3DMeDv2hYXD5yxLU32hFCajVtvOHnpa3YOr9jJRUD//b5hnvr+IbG0N21RwpoxVW9+S22Df1BjQLGyGlt5l3ze5xTVX8vuy9E2bbtvmAMez5Foh9Y5jrZc8yl9Yrb5Egmz7J1Dguybh/o6F+Y6u21IvtN+axkfQyIx30SMUOzOK7a1CWgT8/LO+IeSpvmLY6NHtE8b0lbrrxzQMON+Wi7xmkZaz399fLgWDg7tNrb5BPxWrkvjn9Ic4wB9kz6FFni5eY5e0BwaVfEn/ZLt6YX2oB/zdGrbGde44Vm/3Zvf2l8B1ReW2b/GRbUs78eHwDFPoNWAnhwuYk8ZNJHjx+bAGfTq2MamI7KPBqlDYRqHZUxykQ6MWT5VRls55z+N1F2uTz/zdHuKgM5prfa+y9/XHDL7ORcXUCwEQiAEtioBukwbvZdxyui2AKcBtg6/X1/bWVf63A9GOQcm8MvcsCAwyWh4X5bBAuP40fQazLSFG/jPOVTQ8rxzz1sun6Pi+BySRYMSjo9Apzo5H3fy6qMEXyW6KUdf1Sa7hu0MzMs4QWWOVQkVFZwVNBXEMOh79LFHZ2eeceZRDlPtX+8GVzXA4kwXp0WBh9p3Le/O2+9a5tw5frEQCIH1EaCRgix00KQLM5g2IKaHdJY/6VouTfKd1rjOTcq79jfzWncjgacWGGzTd8av9rnX8rbi8H8mfwSjaEIsBEIgBLY6AT6ZwJV3NyX1xncrv7X3Wftt+s8VXK9JKz4mM3mlHPrNh+QzKo/W0nX76Rdovb6C32p7+s/sow8o81lZtJjfSbftqzza7LukXXptksyrzLEdg/6bVBqbSTJPQF/N+Y73zfcQCIEQ2AwCFQ82VvZnOsvomzE5zaZ5i3TKvm5cpa0m0mkmbTSh2f+FB2Nx/rZJzBrHG/PWU4vq2PUuCYtG+osR4iRlHt5APz2R1nE9Xag32ktz6XLvczunOm6/vc/G4nTeOfQxb+fBxCJ602/w6fUr9qntbFMM+u2nPvP/9+zZ08b9+goTdH1MYGqfLAuBEDi1CdACukyHxCwqAdZZmyCmr7ahyb3u9FSs549K9KKBFaOl5WLGymfKkvRChyUHVAzVe8VX7SMOKwlGfzA2muomiN5MQPONK4nWnKDy9BWOTedoKJ/csjL1EHft+xv9hX6AFRM3qIkL0171l7B28bsvXuZh4r1udnCOlXxcx8l7CIRACKyWAA30YBW+qviFh93w8zwJm87RI8v4kHxcukx/6Ki5N3N/3unyIrO9MvmbXnVjwKJ9VrOu4hV84nnGly3ddb7Vt9Bj5vt4jor+qq9+gd/t3N3YUP0TZldddVU7/zou3ffCo45X6/J+4gk032Fou9q0duM313+6kXCq/y9fQnvvx2LV1vucImfXj6/qbPkn2rpxnptjxttIZnRs14dr6aGHH2o+SZ9Ay7+QKFdxOL5FJd4ZL/KdzA/xScqPUmcv7VRZ1earXnnfegTEbf2eU6ad8Q2nTJtzE5hxPZ/WTQzatoeWiS3LQ3Mt8G1dF7T+lm98oxX1hS98IfN1U1A3sIzfbuyjH/SZuSnD3K1xTWmE38sYQKzdE2X9Nsy17EWHjG1q+1pHS8ZmW9v12463yffjR+CYZMRoPJw3xgHx4vzsGYJxxEOG/Txz0WtUgpt1R6jGqYMiEpa5g6gan8Zr+ZRxgjhkNTi3jf08ZXHfkLBgeXWuU/vPW6ajroughGvetlkeAiEQAic7AQPNfrCoo/bUFs4crTNZxIHnDEgA6zW3n6ChtzXJT8vrjhoDe32Ap8Duf2V/cyBpvIEwsx+dty+N3gzTD0lO9ednmEAnM4g2CHJeHNmqQ1s5+k8gVYKZwZEJJX9ew37uKlJ/ZoCDl76kHCnL+6Aoh6cCsZxcLExIcYhtt2foG70MsvRp4yQO5bE+cLC0ZPP/12/qHyswrk67N/F32fwap8QQOPkJuHZpkCCKa8y1L/hnwEVT6B5tZe4yNICiLbfffntb708CnbfJdyEL3BjY0X71ECS67/77WtC1fxpBT5em19Nc+uX5HAIhEAJbkQA99jKZz7erSRnnIiAu6E2/x3eEj8+V/8ef4w/anlb2+1i+Y/jzcNbxm2vCh/7y+T7ykY80H1A5/EmTOIJyTICU/11mHwE5T+zyUp64iz6mfGh+p3L6iSn+byVC6WNqXW2r/vxw3/sxQR037yEQAiFwPAiYZKRDJoz4qmXGzzTKOJWGlo7W+v7d+JXvTMPpnnE3fTT27yeyTGbSQvFdr7UYTe+Nbqqj99LiWq9/qcle5yW2ze8XX/EUsClznj/84Q+PWqV8em/80JtJYS99l4dE9H2Qvqfi8/0+48/6Hg+60K/ot7CrfmO8bb6HQAhsHwJ0QCz3/Lcs/VnjOvOK3/Jfac5Y+2o7ukUHzcGJi9IqMVbb0+oyPjkfml5dOfjBbxviyFNm35defmn2+vOW/tKCbZQtnsFn1oeMTZIKja74rXMS631l/yvtYQa+6zv42FPnISHLvnWzs/LppGXW0U3jCWWIHTvf+pOuNLhM2V72jYVACITAegjQOHrHV6R5XpIMjefpjrF+aRVd5fu6cYCfR6fEPHpdop9iBbYts17+hX3NDdqGhm7U6CMfmnbqO/QPU1Y6XO9T2/TL1J0OO09+svGEeUE+t/ktXJw7P5lhKF6CHV72jZ14Atqw5FJmrKcdanfGhNqOdj7P/N7aiznocU6RuVbLzOVWm9Iuau5Tmdq4pGtzHsri49Rcbq1386W25mEoXr/50m/aONMNmq4vpnzt21890ca1yaq3BDrn59q1nb/sZxvz1ObhjeG0R8eObU8C2pybILQP4/IyfrabJLQVfrTYAl/Scm33xZdebFot7y22eQTw1Q/SIdetxHfJy+JLdY2Pj+bp6L3t3bu39cnz+rt+W5/pjyR+xy6jCW7WLv2q5Xk/9gSOSQKtiR4OCqsBtQuaAGgoU4NZ29pGEFPnSCC8NArOjAYpaUtHIwHBNtZpkBIAxnZg/4HmTBoE110etY0OTYKC/QUwx+tru3nvjumiUV/OViwEQiAEtjKBqc63kmQ57jTXQNNAgR6X0UADEwMMDr9Bhu0t90QAE/s1wcW52H327uYE2NaTuWixgQPHj6bT46m61PEWvZsgc3OGY+trlCugIGFXnTwlQNmOZb16czwXWQ2W9CPPv/B8S3LgNBlYCy4YEJWZxOodIX0gx8rgTDIxdkxd6ryVyzi97pRVd3eWlfl+rM1v4Zh+X58NVjnjnDVmoPeGIbkuFgIhsH4CtIfm0TiBu0pCpY+0w7Xu+qMhfFq+biW3+nwsngjouP5MED1TP5rmT7YKpppgmjJ1Wq9GT5WXZSEQAiFwIgkYxwuA0zxPJKmJpqrTN7/5zaZ5feCq1vXv/EE+nQl/2/KrfK6brWx76ODS07lsR2/5xT6rw/uHJ2WZcNcX+K4eJvAFQisZoD8e38xTDk0EMGX1iWbKcvNbTYI5jviFd33Rxz/+8eXi9D3VL/HFe192eaN8CIEQCIHjRMBYlBbStKuvvvqIoxrf01exWK95VvFkybE1YTlv27Usl9ilDsb54z/5Wb68xC662hvf2lNj9AvqVtq8yOfWr0zpsf1N/lcCQB1H32EMb3JZXEHMYa0mLv6d73ynxW+cj6SwWAiEwPYmQAvEM88686w2RydhpDdxX3N8FVPo1/Wf+aYSTB4dNJT/Sis3amKz/F3Gt64YZl8uzRa/4Dfzq2uOUmKYeUGaal9zjsy2U9rbl1mfbSchRxIwPVe28iRusYqb7BkellDcaLUnVPVJO1Ve3kMgBEJgJQL0ln6IKZsHozO0x3I3Z9FFfqCYhIQ8Pqu5L7EF+kPP6a99yiQE+UsJ4/wIMWPaJaahjM3QLdq7a+euppOON/Znq05rfS9tFbM236e/wUCOSs1v2qbMvKA+g89ujs65xk48AT5F/V7mKbVvfoi5aLEsn6fMcu3J9vKJKomwcor4HRKrxfz000x87PePLOUv+c5HcHzXiOvF8X0vM8drrOVYjiGG6NpQXzc9uimeL2S94/E7zAG53oz9XKPqZ4791w/+uq1XJuM3mB+SlLdn8BmM46qebYP8t20I0GxtXUyYPva6S4ctK+2655572rbaonwHekf/xRxim0PANeuaFHOnMfpLZq7W9e73EU/3+cDB4a9yDHF/1zKr30uftJbrmW6NY0H0ibaoT+z4Eti0BFodQf2QGpMBqB+0HDLrdDIGmJyUKTOwbfsNdyLNm7wf7zcOTtZ6Deq555eePvvyH1+enbbryFN1R4eGa7vVmjoJ1BKx3ggXZysWAiEQAqcKAQMFg0sTT9/+9rebI8CJM5Bgpb2cCE9PMTDgMNB3uqofsI3BRD0lxWcaz6kzOSbIqDyTMzS0BjhrZVjHM/jxWX9T/ZE+yFO86Ld1nEs6zolx/EVmsG1gc+edd7ZEXAEK52n/Cjwos56Mvr+bLLPefgZLPhvE63P0F8WBQ2udOun/9C01eFJuMV5Ux42ucwyJx/pmn/Xl3n331AR/Ug2HWAiEwMYI8IldV2OjC4KcFSyhB3SGNtIa1+HUfspxvdp2arKojiNIQ4+nrDSQ3rCDh5aelk2np6z0fWpdloVACITAViNAZ/mjfDMBr7EJWtHulQKQdFhgXGDM5EvFQK688srmR/MB6SpNp/nW80P5vxUXocPPDj637zSf78WXnTIBdb6nwLyylFlBOts7F+dE/x1bIN7xnYfAvmOXCc4J+inHcZUVC4EQCIETRYAe0T4aNjZ6JTZhfN9r3ng732kZzd1ME8/2mjLjeH85gs9tfO/Y/fGnxtP0fp7PrYzyz6eOt5nLzhz6G5NC6oJvmb5E0luNF2p53kMgBLYPAf4tf5Pm+os4Y+NH02wax5ecZ9bRxF2b6Gcqs/oC73Sf79sbX5ufLtFM7GTPEL+2H59YnNjnetgBTa64bV+Gz+N5wFrvpgU3tilfEo2JdZ/Fd7BjYuuSxpgkmXl/trdtkP9CIARCYAEBvrCxPX9T7IHvJjZAh2iQOSw3zJrXGcc3xD4k+vHtPjDcwFtG3/jfNLI3+sgf9/LZa6Pm2Mqjy25Mm/L313MMmk7D9VdiOGLkxgvm2vjT+gfxk7J+LhKv3mevbfJ+fAhod/pLv5M+lF/B9K+Mj6HN+w39xlO2nFM0tFFz1Ksx10hv2rfxkP0lYCuz2rz25OYX14o5btuJnbmO3PDuBk/19d029lVXfX+No2pcp/wrPnhFa3Pq4Gmjzs3+2u++IanWfpVT1dcxn7cOAW1Gu5gyv3u18/F6uqg90MrKN9N2vMSaabzrRRt04wPd/9SnPtXaIe3THvmgsWNLwHUsbiJm4690uPb93nRB3odruX4nydClJauplVwSN6+UBtpHH7WWMlZznGyzOgJHZpWubp/JrTQYThyrp6L4rDERfReyH9lglkgYXI9FRIehU9SoNJR5xsnRodqWw6XM8cSWxrrnXXvaHSOSEWxfjaw65Cpfg16Nuau0OvR++4ODgLHqrH0mdLEQCIEQOBkIlPapS/95Xt1s4258jhi9dQcTjeW8eXHIaL5Bjs78Yx/7WEvCtJ3kWMZ5kPglKGkwSpM5eQKbnEEOHTOg3zMEMT1hkYOxXtOv1ISPunIkvfRH7gpyfE6luhu8uIliNcYBwkN/JZgqqFCmH3Nnl8Rf59g/paUG5p7Oy9RJXa4YkikEUJ2z7QVP9WPKxsZyHN21NJ5Qm/fbObeNGGeP6bc44/pg9ccIw3nH3cgxs28IbDcCfFZBTr5ib3xY1x1d8NmLTjH+Kt/YRIvrsQbPtT/N82StlXzO8s9rv3nv/nqDxICx9tT2pfv1Pe8hEAIhsFUJCGiLD9BXvu140sRyel3+77zzpNN8XxrvpqMyusyH9tQKGmz9M88+Mzv9tKWELsdWB/sz7w8P/uDOXUvBc/vbx6s3fYQya/LdfoKvbtriZ4u7OF75mOIcTzz5RHtymCcgCqYK6otp8O/0N7bhG6/niYV93fI5BEIgBDZCgJbRXTonjtybZTSVjppsn0pI7bcff+aD++s4tDZM9wgAABQYSURBVL2M/tFQY+9+HE/3aeW4DiZT3YBA8/nL+o3yscUilCfeIJZtcnVRHZ2PbW+66aaqzhHv6ln9U61wDOdQ/UYt907HxWbEFDxJcdyn6VOcj1jD2N40jPf9VQr9wpRVX2F84HNiA1OUsiwETk0Cjw/aSdvEBV9/OJmlzpTmWEcHxYXXGpeUEFN/zUyZNE6Z9PHHw58u/dUQNy5TvnhI76uK0dJRZl99iJhKb/SYtolxitl6qlxpGF3s9VTZFTvuy/CZ5vf9hGV8dMm3Fa+h2cpWVw+fqBshbFNJP85PnX1X/4qHjxPdlB8LgRAIgTEB80bG7fxRPp2cB7pj/o3vSn/KLKd/NEcs2Tyc+aex9pmLEycwV3fvL+9dji/TYjFgWmYfPia9V1bpaB1rte/K+fCHP9zqQf/dcNzr+qJy5h3Tcj63hCPny09XNlZ0utbVPKBlNPqxxx+bXXLxJRuai1xU36xbHQHji+ojzZvWfLFxiyTxa6+9thWkPfp9/Z5TOUX6V3G91eQU2da1YA6kxkz6YfE0vkwlXzuw9iL+5joyd6P91j7Ge+aEPZjItVjXhnGn69S1ZR/m2qk/y26ddutctUXb7RmuZ36EMZ3rLgm0DduW/U+81wPJpozvWXPx/Xq+LP3Svui5NikuoazyJUsH5Se4YUtZ9P/C4a/31IMT+jLzeeME/FbGAK5PRj/uuOOONjaQKK3/9NeFPVjOb1dPgadT2oAYlv7Jdb8as528jM26wWQ1x8w28wlsWgKtQapOQsehg9MJaTA6vlrnAtcB6FB0PCZvOEmEoAaRLvrqrOZVW6eqDAN1n+3juEwnp3FJ2tLQdD6+vzA09DceTsq1vacDlFCph7ou6mCVbbA9ZeruzyR4OqELSUfunDlqsRAIgRA4kQTo0N69e5ujTudqMG3QqoOXuGobAcXeOGoGHhwBDhytpmsGLJz+viyT9db7ExY1KV+6r1+oQKqnwJqcee+w3XPDAEm55w6D+7OHwYSBQW3X18Nndd07nEMNqCqpk4P4+c9/frz5kHywa3bGcK4cTfWqctVZsi9HZJ6ejwtThskygVQBWRqv3lU2Rv0xan+cDao4Sfoa52db7/pC/c1HP/rRxh8z/aB1yjL4so3POPpTu34rgy7blH36059ufWc5z7W8f9cH+m0NMpVVg7QbPvvZ4U9PHn23pbbg3GznfVHZ/XHyOQRCYDEB1/ktt9yyPOByzbsuTXIb5NJV+mK5iR2BIgNkg2f+rgAM/argSx3Nd/ssstKuRdtYxz/mp3vFQiAEQuBUJsCnpMs1oc5H7G3f8OQHY3z+HL9zntFx2sln4itWfIE/ZV9xEf5cvfi0/kT2737/u/bnnex7zuCf8S0Fz/2JXP6yWIcAuwkF35XPnnr6qXbjhOPUTWJ333136y8cU/km8sVinB+7cM+FzbfUr/CJJYuJXTD1f/a5Z4c4yRtXjIW0HfJfCIRACBwjAuIOdFdSgHFrbzTbxL0/i1fj7379Sp/5wjTWe5kJUUYv+5tk6bW+gX4bC18y3DDru3oZw9NSE/7iHPSW2YefTpvFg43Z6fEi4/d7rdbotSeHTZlz0Y8YMzjH8Rhe/2BiR2xgbPoX/cyU6UfEzrH3F94ueOsF7Vynts2yEAiBU4/AHwZNcXMX/RMj7I3e0G0+NF+54q79Nos+013aUlpsWzom5nzf/ffNdu54VUPN79FeWlsmccCrt3HfYT5Q3RltHvv7/b5iICa/x/ppm4pF99v7TPMlNjh/frl64nDrrbe2WDA/340hODF/8efggaWbpp2//dSv/Py2Uf4LgRAIgTkEaJh4sbjDy4PPXHrFz+OrllnOX+ZXiytL1POZZvFR6SH98dAYMQvl+W5ej3/LaLOkWk/eZPalhdY73nrNXB699GfsxSXMnamTv5Rj/k1fo+5M3f7mb/6m1aWPhaur+UDnaV/v/HbzbBKV6Ln609bdw3o3gNT+/GQ3I5+z+5yWdDbuN9Z7XtlvfQTw93vrC80va6seyqSd+221SeY3rURV4xP+wOnDXIh2LemU72DudJEvYt7F2M38ivasj66cIuM27W1s+m9tSdv/xCc+0ZJd67rTvq644oo29nro4Yfa/I1rSkKs+hhfac+uF/6NGyGrfo5tbOfl/N2M79pSj5VylMZ1zPeTj8Ci8bW2ISFT2+3Nb+8BjvRJwn+1BfOC/FM3c1Xb0260SVqo/XgQmmtl3pi+P04+r42A30PM3Y3cNMk17bdzTV9zzTVNq/weZTRNfqO5Wn2c37Gu+9om71uHwPq9ndE5ahACht41CA6PzkVn5sKuFwfNeh2dxqQzdJFzAK+++urWiVnWm3WSuTg6Bsw6E52bd8fTKXH0mAZpG2LhOL5zIHsn0jIdIpFpk1ZDw1dGdcj9sVfzWSfovIif4+wZgpLKK0FbTRnZJgRCIASOBQE6NHXHiuVjbeyPT3cNXOxLJ+nmIk3jQHjRwXnb21+f4FXbrdaBmHIAOSw10OnrPu+zAYh+Qz2cz2oNCwm3nFL19lJv5cxjYrntHdP2Y37W6/vUx3rfq06W9TZ17tYLDqxk+s0KEvTbvm3oJ2MhEALHjwDNoJH0kW65I9F31z5/lB4L9PF3y78VWDSx4q5FWsLXZLSPr0sDBGdo6iIzyHYHvmOUzoy3t5xPrV5uQpsyA/bVPPF2at8sC4EQCIGTiQD9FZTk604FqC2jwfzgRb6qOMDe4SYvOkubBeIZTbW/8n22XemvSSw3WO06Y1fTfDERfYGELDfkimtI6DK5w4czwaS+7HXnvK7FTcRavOg2f9PElkl7MQ59iDq7SU5cxXp1q+PrC/iegnyWvfuid7eAvX4lFgIhEAInigC9pFvGvjSzN9/5vSZPjctLz/ptFn2meyYmTZyuZMb+Nf6mzW8d6nX+cGzH9J0elyZXWepHa1djyvGiz1ddddXkLvoUN9nVMW3kGCZj1mP6hDqntezv+Pook3zvePs7Wswcy1gIhMD2IOCJVpJc+cz0rzc+avmeK8Uj+v3qMz/Zi0+6ktHcOgYtlFwr6UqfwdyMcNdddy3HVtXVi5881ut5x+JDO0/lj43v3t9oYb3t6Pj5w/yfm+Ecy8tcqESw1fQ3+jP7xEIgBEJgtQRK0+qvm421WTmWie2KTbjZQRyaZoltWE53+IV8Otvy98QQ+vko/nA/n+SzWLYbsjaS9M8n9XAdSUkesOYhMsrjR4996ZqbHLNR//F8YJ0DPs7Xq86t9pfwpE9zUx39FneZ4lfb5/3YE/DbS0z1m2obYmLard/Rb1O/T59TxB/QjiVGayN7h3ic5Nr+L0KpuXXmWOwr1qWf53co2/Hk7/BzpkxdtCnXiO2VVddOba9u4oYSd9XJtaENa9/aX8XgrhsegPTA0N6NYy0vc03yA/YMuUSOoQxlOm5saxLQbrQV+uSBWFMmDuuhChJjbV/mt6eHfNHS3przc7MW/Sqzrba5Z2g72ot25GV5bHMJuI79Hl5i87iL4fgdMfcbynX0u3tVXyRuY3uxFHqzWstvuFpSx2e7HXfc+d1Du3e/ZggILt1x7geqH2n8WZXmLat19a4B6RA0jr486w0mrde4vHQWGpbtreudsNrXOi/bWWa7OpYyanlb2P1X+3eL2kf794N0+2vgtb13g13Z5DpZ6xYZAbOt/eqcqqxF+2VdCIRACITAqUHAn/O48cYbW8IDh/e66647NU4sZxECIbBhAnxYfmL5suX7Sp7lj5YvO/Y3reOzlp+qIsooP7j3XedVko/K73ZMx5kydatt5g3slMM3VpdK5p0qK8tCIARCYCsQoGk0ljaOx+2l2c6jYhO2pZWMTtJCZtvSce90fZFOlt5W3KA0t8p3PJ/prW0qnqJcpmxaXv1F9QmWeSnfudU243Orslthh8tTVp1PLc97CIRACBxvAuXz0q+x0TXrS9us972WlVbXfrSRblpPR0sza/2id3o41s6p7U2WeFK4CZU+6WBq21q2qM61jXOl5ergvKoulq/XlOG8qg/AR9lTrOsY1b84rn3TVxSZvIfA9iFAiyp20Z916QNN6XWK/0oz6MVYdy2v+Id4wmp9T/pVr/Kj+/LVxXG903txDfXyeZHGOR/7eZKtczDJPVUnWu8luaXXesdjpdHty/CfY9e6Wjb1Xro8tS7LQiAEQmARATpDD1mvwbUPDSotrGX0bSr2UevH7zSb31pGszbDF1Q3NwurT91MXMc4lu+Oi5l+SP8gMSp2chHQ3vxOfp+x1RhKu9G3V1uu39V1MDbrXCv20X6rfJ+VYfmUafvaSu1n+zreeHvlu9ZcG7YbmzpY731sVYep/cbb5vvJT6DaqLYy1YbrDMpX1mYX+anVfrXHsaXtjIkcm+99P+gax72u5bpufdev+O53L12xvLap2un7LNf39b+9tuPmAW1nLWOkKjfvx4bAMUugVd1qHCu999uu9vN4u6nv85YtWm4dqzovfcv/IRACIRACIbCYgMkzd48ZYNUdhIv3yNoQCIEQCIEQCIEQCIEQCIEQCIEQCIEQCIEQCIEQCIEQCIEQCIEQCIEQCIEQCIEQCIEQCIETReDov0tyomqS44ZACIRACITAFibgz234c7qxEAiBEAiBEAiBEAiBEAiBEAiBEAiBEAiBEAiBEAiBEAiBEAiBEAiBEAiBEAiBEAiBEAiBk5/A9DPKT/56p4YhEAIhEAIhEAIhEAIhEAIhEAIhEAIhEAIhEAIhEAIhEAIhEAIhEAIhEAIhEAIhEAIhEAIhEAIhEAIhEAIhsC4CSaBdF7bsFAIhEAIhEAIhEAIhEAIhEAIhEAIhEAIhEAIhEAIhEAIhEAIhEAIhEAIhEAIhEAIhEAIhEAIhEAIhEAIhsFUJJIF2q/5yqXcIhEAIhEAIhEAIhEAIhEAIhEAIhEAIhEAIhEAIhEAIhEAIhEAIhEAIhEAIhEAIhEAIhEAIhEAIhEAIhMC6CCSBdl3YslMIhEAIhEAIhEAIhEAIhEAIhEAIhEAIhEAIhEAIhEAIhEAIhEAIhEAIhEAIhEAIhEAIhEAIhEAIhEAIhMBWJZAE2q36y6XeIRACIRACIRACIRACIRACIRACIRACIRACIRACIRACIRACIRACIRACIRACIRACIRACIRACIRACIRACIRAC6yKQBNp1YctOIRACIRACIRACIRACIRACIRACIRACIRACIRACIRACIRACIRACIRACIRACIRACIRACIRACIRACIRACIRACW5VAEmi36i+XeodACIRACIRACIRACIRACIRACIRACIRACIRACIRACIRACIRACIRACIRACIRACIRACIRACIRACIRACIRACKyLQBJo14UtO4VACIRACIRACIRACIRACIRACIRACIRACIRACIRACIRACIRACIRACIRACIRACIRACIRACIRACIRACIRACGxVAkmg3aq/XOodAiEQAiEQAiEQAiEQAiEQAiEQAiEQAiEQAiEQAiEQAiEQAiEQAiEQAiEQAiEQAiEQAiEQAiEQAiEQAiGwLgJJoF0XtuwUAiEQAiEQAiEQAiEQAiEQAiEQAiEQAiEQAiEQAiEQAiEQAiEQAiEQAiEQAiEQAiEQAiEQAiEQAiEQAiGwVQkkgXar/nKpdwiEQAiEQAiEQAiEQAiEQAiEQAiEQAiEQAiEQAiEQAiEQAiEQAiEQAiEQAiEQAiEQAiEQAiEQAiEQAiEwLoIJIF2XdiyUwiEQAiEQAiEQAiEQAiEQAiEQAiEQAiEQAiEQAiEQAiEQAiEQAiEQAiEQAiEQAiEQAiEQAiEQAiEQAiEwFYlkATarfrLpd4hEAIhEAIhEAIhEAIhEAIhEAIhEAIhEAIhEAIhEAIhEAIhEAIhEAIhEAIhEAIhEAIhEAIhEAIhEAIhEALrIpAE2nVhy04hEAIhEAIhEAIhEAIhEAIhEAIhEAIhEAIhEAIhEAIhEAIhEAIhEAIhEAIhEAIhEAIhEAIhEAIhEAIhEAJblUASaLfqL5d6h0AIhEAIhEAIhEAIhEAIhEAIhEAIhEAIhEAIhEAIhEAIhEAIhEAIhEAIhEAIhEAIhEAIhEAIhEAIhEAIrItAEmjXhS07hUAIhEAIhEAIhEAIhEAIhEAIhEAIhEAIhEAIhEAIhEAIhEAIhEAIhEAIhEAIhEAIhEAIhEAIhEAIhEAIbFUCSaDdqr9c6h0CIRACIRACIRACIRACIRACIRACIRACIRACIRACIRACIRACIRACIRACIRACIRACIRACIRACIRACIRACIbAuAqfZ6+WX98+efOqZ4dOO2Y4dw8tC70sf2rKlRW3BEd+Xtz28T21Xy+t7ex9tM17Wb3vUZ7VaOrxVy3VoX5aWHK7vEUuO2OeINV1Zry7vP9X598vyOQRCIARCIARCIARCIARCIARCIARCIARCIARCIARCIARCIARCIARCIARCIARCIARCIARCIARCIARCIARCYKsTaAm0z73w4uypZ19o5yKBlh2RSLu0YGn54UTWlmbbclrbf8PSpXcZq62E5XLazpPLXi227bFU/tLOh481vB0up23b/nt126WvR363jNV5LH179f95y1/dwqckzx7JI99CIARCIARCIARCIARCIARCIARCIARCIARCIARCIARCIARCIARCIARCIARCIARCIARCIARCIARCIARC4NQh0BJoX/uaM2avfe3Zh3NVl5JHlxJiK5F04++QVfJqPdl2aVn733/Lx19e0ifPdp+Xtj0ycbYv03pWx1v6duT/i9bVlqvZprbNewiEQAiEQAiEQAiEQAiEQAiEQAiEQAiEQAiEQAiEQAiEQAiEQAiEQAiEQAiEQAiEQAiEQAiEQAiEQAiEwNYg8P/ZFgWMd3+/owAAAABJRU5ErkJggg==;" vertex="1" parent="1">
          <mxGeometry x="1165" y="240" width="2768" height="60" as="geometry" />
        </mxCell>
        <mxCell id="rCrafW-iuFekdM2OdFgw-3" value="" style="shape=image;verticalLabelPosition=bottom;labelBackgroundColor=default;verticalAlign=top;aspect=fixed;imageAspect=0;image=data:image/png,iVBORw0KGgoAAAANSUhEUgAABsIAAACYCAYAAABeQfzjAAABRWlDQ1BJQ0MgUHJvZmlsZQAAKJFjYGASSSwoyGFhYGDIzSspCnJ3UoiIjFJgf8rAyMDGIMhgzsCYmFxc4BgQ4ANUwgCjUcG3a0DVQHBZF2QWGxM/x6Eyx5fvWH3ytr/1KcNUjwK4UlKLk4H0HyBOSy4oKmFgYEwBspXLSwpA7A4gW6QI6Cggew6InQ5hbwCxkyDsI2A1IUHOQPYNIFsgOSMRaAbjCyBbJwlJPB2JDbUXBHiCsyvL84tKMhRCwgg4l3RQklpRAqKd8wsqizLTM0oUHIGhlKrgmZesp6NgZGBkyMAACnOI6s83wGHJKMaBEJuxmIHBFeTPJISYhR0DwxqgH0XZEWKqXxgY+BwZGPYcLkgsSoQ7gPEbS3GasRGEzb2dgYF12v//n8MZGNg1GRj+Xv////f2////LmNgYL7FwHDgGwAlPl9k641ncAAAAGxlWElmTU0AKgAAAAgABAEaAAUAAAABAAAAPgEbAAUAAAABAAAARgEoAAMAAAABAAIAAIdpAAQAAAABAAAATgAAAAAAAACQAAAAAQAAAJAAAAABAAKgAgAEAAAAAQAABsKgAwAEAAAAAQAAAJgAAAAA9TJ4hAAAAAlwSFlzAAAWJQAAFiUBSVIk8AAAQABJREFUeAHsXQegXUXR3vfSC0kIAUKA5AVC773Dr4LSi9JRFEVFpQmIKFVAkCJFEJGqgID0IsVGl15CryG0hEBCTSXlvf/7ZnZ299x3b4qACcls8s7O7s6278zO7t12mtraWtva2ppCU1MQ04ZnJNUDT/MzmwFGm52Y2xElR0kbY1vw/B1/lz9tD/VbiLbJMsxos601tbdLjpI2Tm9/rn9c/7j+cf1DBOprSNe/HBOW2BhttkpPvWfJUdLG6/2P9z/e/3j/o/qgvoZw/ev61/ufsm0Ybbb1pu3tkqOkjdP7X+9/vf/1/tf7XyJQX0P6+MPHH1XZMDkx23rT9nbJUdLG6f3vHNH/YhWMbwcmviSxyhdW+hd8EmfWHyllEFh/KxbdynwSV025PP/0nmYdeomRkHX8Xf68/bn+SXrE9a/0RgJD0pJAp8SFYJVhCbyZJlJsEN7/ef/PHxhqSjlLUoKg0p+cZZjGnJVnig3C5c/lz+XPWk/ZzlIrye0teSXCIs6SnWKD8Pbn7c/bnzWf2DLESq3E25/19wmSRBhws2Sn2CBc/7j+cf1jzSe2DLFSK3H94/oHMoBWkkQiESY4s2Sn2CBc/7r+df1rzSe2DLFSK0Fg6U/eMszizrydYoMo219zTiK+ErGaJDsNq74qE11bPiMPE7dnhZQArHiKpz40NfiAyCkzLLrE8vwzZhkl9VO345+FSnHJiCWBEy+XvwKZ2MrgAzHKkuXtL6EhoLj+yTKTpUT91O36x/WPIaBykSXG9W9ERiDx/qeQDO9/RDSACNRo1qz0jC6xvP/JMpNRUj91e/8TdQwsxSUj5vo3YiOQuP4tJMP1r4gGEIEayZqFntElluvfLDMZJfVTt+vfqGNgKS4ZMde/ERuBxPVvIRmuf0U0gAjUSNYs9IwusVz/ZpnJKKmful3/Rh0DS3HJiLn+jdgIJK5/C8loqH/TQlgVLqilsqURV7S/3CTpzsmrfxFqYWLj2HV8L1lAzSen4flnLARux9+kRm2IjEmNeJiMwaH+RaiFufwJOgkZEzEuhYsxD3YmmWaQt/8qHhQyQ02gMxkjVuohz0qYy5+gk3AzSF3+oqwYIN7+XP9kWaBwuP6t4uH61/qZqDq8/4lAGC6pl2Hj0TDvf6lJ8rjFmpT3v1F2DBDvf73/zbJA4fD+t4qH97/Wz0TVYX0MZUW8vP+JyLDxKOn9r0hHkgxrUt7/RlExQLz/9f43ywKFw/vfKh7e/1o/G1WH9TGUFfFKWva/6n+a+ImwmFLMgUrJEgfN4HiBbumfmCPRLqzGo8YpscSvTkDp5fk7/i5/2sjLduHtr4pAO2xqPGqcrn+AgGBSB5jSy/Wv61/Xv65/qTBLvSAKtHi0C6vxqHFKTPGrE1B6uf5x/eP6x/UPFUapFwrVk3VJ6VnDXOPMceoElF6uf1z/uP5x/UOFUeqFUtXUDathrnFKdPGrE1B6uf5x/eP6x/VPXR1TKKFSZ2TlkhnahSNI/OoElF6uf1z/zAv6p7m6CMYmkBfB2FQMBKEltHgou3ioqiKpnrrpAXTkyeFkUU/xqwa0S8vzN4DwLgSd4hGxpU8OU0/Hn6gAi4hRxofe6il+1QBGqmDp8mcAufwZEiIkfETZIpnD1NPbXwTI2x+BKOQDDtc/GZPccAhM9hfKxx/e/5iAeP9jSEjT4MP7nwRFxsb7XxENAQRYRBnJ+FBu1FP8qgGCZ/Zy/ev616TB9a8hkZRObFt05zD19PE/UQEWEaOMD73VU/yqAYxUwdLbnwHk7c+QECHhI8oWyRymnt7+IkDe/ghEIR9wuP7JmOSGQ2Cyv1A+/vP+xwRk7u5/cAJRTGXBS9qAqQ62jXjEOepUC5Fmo7e5ZrBqVI4mJRHxiCfL1DM/y1Vna4wpHc/f8Xf5YyNM475qa5MGEhtTSef2pRG9/bn+MckpZAOk69/qgE/RiVh5/+P9j/c/aBLe/1AV0JgW1d5WnxpS0uojT4mIh49/C1Ay6f2P9z/lhINKhve/SXd4/wMovP+RbkSQ0BaivY0+Sx+li6dExMP7nwKUTHr/4/2P9z/lqJZtw/tf0RCiXlXHihrNyPj8t2Ch2AhWERGli6cAh4f3PwUomfT+Zw7of/AS9HrSYrAtJN+T6cb8zhpSFSVRcbSP0i6YHp4/QVBV0g6g9hjW+lSiVBy1nO2WGtXD8Xf8Xf68/bEVzEB/tNcoNTplBvHbBdPD9Y/rH9c/rn9MFVDJ+PiTKMyUqejUiqN99HbBrn+9//H+Fw3Ff38lVUC14fq3vfJs4FPRqRVH+wjtghPoLn8JCsLm8tdeeBr4VGSq4mgfoV1wAt3lL0FB2Fz+2gtPA5+KTFUc7SO0C06gu/wlKAiby1974WngU5GpiqN9hHbBCXSXvwQFYZuH5K9ZhEIqrLUWUSApToYKR61FmMRoKFb04KpMoGpyian8GCDz0ODoKw718fyBKKEQOBz/WsGL0qhyhafLH6Hw9idNxoQjtZ8oJvB3/WPgULW4/hX1alIhDvXx/gdyktoPZSbKTdWKDctCXf8IZBGjjJ/rH0EAuLj+NeFw/ev9j/e/2tv67z/RCgKGIuLjDyAinSl7DqIT9WbVkm7FOMgjUSJPjh/Z4O/9j4Hj/Y/3P97/qLb1/ke0goChiHj/A0SkM7HeJerNquX9T+5aQXn/KyITZSTLTwbJxx8Gzpw5/sDViK0ooag/25SfGrkRrIKqSfOZNbsS3/BICWqoPCuMOY8G3plhBlQlPh00nr/iID80/P2LjFQEJcIDq4F3ZpgBVYlPB43Ln+Lg8ifCIDJSEZQID6wG3plhBlQlPh00Ln+Kg8ufCIPISEVQIjywGnhnhhlQlfh00Lj8KQ4ufyIMIiMVQYnwwGrgnRlmQFXi00Hj8qc4uPyJMIiMVAQlwgOrgXdmmAFViU8Hjcuf4uDyJ8IgMlIRlAgPrAbemWEGVCU+HTQuf4qDy58Ig8hIRVAiPLAaeGeGGVCV+HTQuPwpDi5/IgwiIxVBifDAauCdGWZAVeLTQePypzi4/IkwiIxUBCXCA6uBd2aYAVWJTweNy5/i4PInwiAyUhGUCA+sBt6ZYQZUJT4dNC5/ikNEt9kQiTdjxMCqhdUy9YBlOFY5GrvIr5gXuy/SS2A8dXj+CQqCUjGOv8ufCIS3P9c/Fc0wY4frX+thvP8RLcru1vvfouH4+INg+Pirtl1kEfHxl4+/RBp8/OXjr6wWZory8ZcNN3z85eMvNBkff1qDiPrDx58EwsefsW1EqSgtH3/6+FPkwcefPv4sFcNM0D7+tO52BuPPVnwjrDIvZuBy8UsC6oaKQNYPQQJRb0lSdZni64HFzOuzeP6OPyWornS4/DVEBgHe/ig4auqKj+sfaVeuf73/8f63fg/j4x8f/0nfUbcD8fEHetf6yCDAxx9x8NEIJB9/+PgDrcfHXz7+ghjU1aM+/vDxhwhGXenw8UejrpU9r48/iIKauuLj4w8ff0AwfPzh4w+IQX0VAeGQgLqhc13/06yX4kWlWelACEAlFO7IYBiV/DEJsbi9A9Ftha0dmwWAp5JDydjk+deg4/i7/Gkr0+aVmmPZ9Lz9AQHXP65/vf/x/pdDCJhyWKEeMQCWjz8KdAoy+PgLolKRjixJ3v9yeF+nYdETxvtf738hIPYzr1QrIh8W4Pq3qmFKoFz/UpHU9N0RINe/rn+pSMr2IoolPrz/8f7H+x/vf2WQWkdN+PhDFaWPv6ojjLI/8fEXZGTeGX81pRNhFAIqDrO1qdR9KktjxvYhtT7ZnSgjzK6bs3oqS2PG9iG1PtmdKCPM9vwbIqAQNQaqfUitT3YnygizG+ZuItqYsX1IrU92J8oIsz3/hggoRI2Bah9S65PdiTLC7Ia5+/tXiBoD1T6k1ie7E2WE2Y5/QwQUosZAtQ+p9cnuRBlhdsPcXf4VosZAtQ+p9cnuRBlhtuPfEAGFqDFQ7UNqfbI7UUaY3TB3l3+FqDFQ7UNqfbI7UUaY7fg3REAhagxU+5Ban+xOlBFmN8zd5V8hagxU+5Ban+xOlBFmO/4NEVCIGgPVPqTWJ7sTZYTZDXN3+VeIGgPVPqTWJ7sTZYTZjn9DBBSixkC1D6n1ye5EGWF2w9xd/hWixkC1D6n1ye5EGWG2498QAYWoMVDtQ2p9sjtRRpjdMHeXf4WoMVDtQ2p9sjtRRpjt+DdEQCFqDFT7kFqf7E6UEWY3zN3lXyFqDFT7kFqf7DYKJ8KiMYK7acTQLuiCVNYGq4WIY0nFhGBlH00GbiEKXmPx/CNsBKgAvSAVKsffIFHAzFXIVETS5c8al0mUtz/XP2wcRVsxEXH9G7UG9UnWKSXp+pcQef9j0qECY66iTWmAYGWkcrn+df1LiShkxfWvNhHvf6KqoKbIOqUkvf8hRN7/mHSowJir0CkaIFgZqVze/3j/Q4koZMX7H20i3v9EVUFNkXVKSXr/Q4i8/zHpUIExV6FTNECwMlK5vP/x/ocSUciK9z/aRLz/iaqCmiLrlJL8PPqfZmuQMXdYSSIrtJ0mTcESWhQ0BVh8VIP3XIuJHyqTOHjAW9MDr7AYH5ktPu1Me/7EBsYgEdJwo20BZjv+Ln9ZPowS6YDD219sTAKMoRP9aEl7sraEQW8mJVQ5LB7t9gwufxkfo1z+ICoAw9uftiDv/4mDtY6ICS3XPxEDxcL1L3GAsW5GSJMb2hZgNqTKx99EDMZ/f5ikeP8r4uD9rwgCHiIYJh1sK6Y/aGfa9S+xgTFIhDTcaFuA2a5/vf/J8mGUSAccPv6PjUmAMXSiHy1pT9aW/Pe3618RiqxmRUJMbmhnWYmcPv718X8UBR//W0vx/gciATBq+98mDFakuZgakYGxoZWUi6mW+rapISbEqzXNTtzGkDyqRCU4ORJRZa7jMk7L1+zEagzJo0pUgpMjEVXmOi7jtHzNTqzGkDyqRCU4ORJRZa7jMk7L1+zEagzJo0pUgpMjEVXmOi7jtHzNTqzGkDyqRCU4ORJRZa7jMk7L1+zEagzJo0pUgpMjEVXmOi7jtHzNTqzGkDyqRCU4ORJRZa7jMk7L1+zEagzJo0pUgpMjEVXmOi7jtHzNTqzGkDyqRCU4ORJRZa7jMk7L1+zEagzJo0pUgpMjEVXmOi7jtHzNTqzGkDyqRCU4ORJRZa7jMk7L1+zEagzJo0pUgpMjEVXmOi7jtHzNTqzGkDyqRCU4ORJRZa7jMk7L1+zEagzJo0pUgpMjEVXmOi7jtHzNTqzGkDyqRCU4ORJRZa7jMk7L1+zEagzJo0pUgpMjEVXmOi7jtHzNTqzGkDyqRCU4ORJRZa7jMk7L1+zEagzJo0pUgpMjEVXmOi7jtHzNTqzGkDyqRCU4ORJRZa7jMk7L1+zEagzJo0pUgpMjEVXmOi7jtHzNTqzGkDyqRCU4ORJRZa7jMk7L1+zEagzJo0pUgpMjEVXmOi7jtHzNTqzGkDyqRCU4ORJRZa7jMk7L1+zEagzJo0pUgpMjEVXmOi7jtHzNTqzGkDyqRCU4ORJRZa7jMk7L1+zEagzJo0pUgpMjEVXmOi7jtHzNTqzGkDyqRCU4ORJRZa7jMk7L1+zEagzJo0pUgpMjEVXmOi7jtHzNTqzGkDyqRCU4ORJRZa7jMk7L1+zEagzJo0pUgpMjEVXmOi7jtHzNTqzGkDyqRCU4ORJRZa7jMk7L1+zEagzJo0pUgpMjEVXmOi7jtHzNTqzGkDyqRCU4ORJRZa7jMk7L1+zEagzJo0pUgpMjEVXmOi7jtHzNTqzGkDyqRCU4ORJRZa7jMk7L1+zEagzJo0pUgpMjEVXmOi7jtHzNTqzGkDyqRCU4ORJRZa7jMk7L1+zEagzJo0pUgpMjEVXmOi7jtHzNTqzGkDyqRCU4ORJRZa7jMk7L1+zEagzJo0pUgpMjEVXmOi7jtHzNTqzGkDyqRCU4ORJRZa7jMk7L1+zEagzJo0pUgpMjEVXmOi7jtHzNTqzGkDyqRCU4ORJRZa7jMk7L1+zEagzJo0pUgpMjEVXmOi7jtHzNTqzGkDyqRCU4ORJRZa7jMk7L1+zEagzJo0pUgpMjEVXmOi7jtHzNTqzGkDyqRCU4ORJRZa7jMk7L1+zEagzJo0pUgpMjEVXmOi7jtHzNTqzGkDyqRCU4ORJRZa7jMk7L1+zEagzJo0pUgpMjEVXmOi7jtHzNTqzGkDyqRCU4ORJRZa7jMk7L1+zEagzJo0pUgpMjEVXmOi7jtHzNTqzGkDyqRCU4ORJRZa7jMk7L1+zEagzJo0owuJleaREMtK6UVWPSJctoYqlLvOLD4sv35eBntgaDPzJITDxqU7D45Pf8BQU8MiqKV0SNb7nGGKfhbraygd/xFygEOTxqETT8yOTyJyjgkVFRvCJqLn8EqGIMKWt3ZisTcPP2J1CIBOERJSlhaPjRw9ufoIBHRkXxiqh5+yNAFWNIWbszW5mAm7c/gUIkCI8oSQlDw48e3v4EBTwyKopXRM3bHwGqGEPK2p3ZygTcvP0JFCJBeERJShgafvTw9ico4JFRUbwiat7+CFDFGFLW7sxWJuDm7U+gEAnCI0pSwtDwo4e3P0EBj4yK4hVR8/ZHgCrGkLJ2Z7YyATdvfwKFSBAeUZIShoYfPbz9CQp4ZFQUr4iatz8CVDGGlLU7s5UJuHn7EyhEgvCIkpQwNPzo4e1PUMAjo6J4RdS8/RGgijGkrN2ZrUzA7QvQ/uREWK4VX3ZRaiELP4SWLsoEKy1+ZUBOMFLTDSy4C75EJkL4Spfn7/i7/Hn7E51QKoZCoyg53cCCu+BLZCJc/wCBEg3Xv65/Xf+6/hWdUCqGQqMqOd3AgrvgS2QihK90uf5x/eP6x/WP6IRSMRQaxfUPEZguOAVaBV8iEyF8pcv1r+tf17+uf0UnlIqh0ChKTjew4C74EpkI1z9AoETD9a/rX9e/rn9FJ5SKodCoSk43sOAu+BKZCOErXXOT/qlZCKtRtKh6XBYrwDJSISmBsZB6di23uOtELr1Kun2aGjp9nhyrllvcdSKXXiWdUzJKQ6fPY7yGa+YWKjsTY+lV0okhERo6fZ7EHDvQzC1UdibG0qukE0MiNHT6PInZ8wcU+nlVbVGCWx3wSq+SzkgapaHT5zFel79atMRdB7zSq6QzkkZp6PR5jNfxr0VL3HXAK71KOiNplIZOn8d4Hf9atMRdB7zSq6QzkkZp6PR5jNfxr0VL3HXAK71KOiNplIZOn8d4Hf9atMRdB7zSq6QzkkZp6PR5jNfxr0VL3HXAK71KOiNplIZOn8d4Hf9atMRdB7zSq6QzkkZp6PR5jNfxr0VL3HXAK71KOiNplIZOn8d4Hf9atMRdB7zSq6QzkkZp6PR5jNfxr0VL3HXAK71KOiNplIZOn8d4Hf9atMRdB7zSq6QzkkZp6PR5jNfxr0VL3HXAK71KOiNplIZOn8d4Hf9atMRdB7zSq6QzkkZp6PR5jNfxr0VL3HXAK71KOiNplIZOn8d4Hf9atMRdB7zSq6QzkkZp6PR5jHfOx1+uRmRxWSGacuHLpuw1zDjAJCRD2yr8jK+m4I0+mpbGoZcsCqincFiMwiumbR+6Mw6we/6CoOPv8le2F2lIldaUfZSPT21H3v6AQwGeaZfCy/VPlCXFxhAyEVJZKvHK0lbwRk/l0zj0cvkDRgV4hljh5fInsuP9v8qGSQhAEVLbUikvAlfELNNKKZ/GoY+3P4BYgGfoFl7e/kR0vP2pbJiEABQhtS2V8iJwRcwyrZTyaRz6ePsDiAV4hm7h5e1PRMfbn8qGSQhAEVLbUikvAlfELNNKKZ/GoY+3P4BYgGfoFl7e/kR0vP2pbJiEABQhtS2V8iJwRcwyrZTyaRz6ePsDiAV4hm7h5e1PRMfbn8qGSQhAEVLbUikvAlfELNNKKZ/GoY+3P4BYgGfoFl7e/kR05o32h4UwFYEkACYR0Z/SomGJIwlQdRnCANNmlqJHMM3dppeQSlOUIM9fYEjoOv4qFiYwLn/e/qotxPVPVBauf5PWhIR4/5O6DmqM7BBszO39r8mM2QqUuQynDKCPfxSbhJDr3wiF699CJlz/ZtXh+jerTxm7QcfG/sj7H2szZnv/QxExNExOksAgRMMSR2J2/Vtg4vo3i47r39x8XP8CAe9/rHF4/2s602zvf73/TUOKQm/GAauPP+aN8VcbjPSVoilNOVAeOMykO1PKVzwZM0dJAbXe5la7fKYoIIxL/XKumSq5ha5GScG13uZWu3ymKCCMS/1yrpkquYWuRknBtd7mVrt8piggjEv9cq6ZKrmFrkZJwbXe5la7fKYoIIxL/XKumSq5ha5GScG13uZWu3ymKCCMS/1yrpkquYWuRknBtd7mVrt8piggjEv9cq6ZKrmFrkZJwbXe5la7fKYoIIxL/XKumSq5ha5GScG13uZWu3ymKCCMS/1yrpkquYWuRknBtd7mVrt8piggjEv9cq6ZKrmFrkZJwbXe5qbd1joNOXE/DLUbfaKxC2/NyTAs2jc1af5Ch1bou0InxoQ5uCSfmVRiC0cA8yJfc0zP8//i4j9hUrNIjrxyiEON6GiYCQPsKAZi8wg23eZXsFVIhpPJ7gA32pgkfkzE84/NMoITYTGoEtb0n9Pwb0aBunaGXql5idQhrn9c/3r/4/0vxwo+/uB4wcdfPv708TcHhvL7IY3//PfH5/n7i6PGDs2UuxpTO9CMwbXe5la7fJbpGZf6xTcMR6ZKbqGrUVJwrbe51S6fKQoI41K/nGumSm6hq1FScK23udUunykKCONSv5xrpkpuoatRUnCtt7nVLp8pCgjjUr+ca6ZKbqGrUVJwrbe51S6fKQoI41K/nGumSm6hq1FScK23udUunykKCONSv5xrpkpuoatRUnCtt7nVLp8pCgjjUr+ca6ZKbqGrUVJwrbe51S6fKQoI41K/nGumSm6hq1FScK23udUunykKCONSv5xrpkpuoatRUnCtt7nVLp8pCgjjUr+ca6ZKbqGrUVJwrbe51S6fKQoI41K/nGumSm6hq1FScK23udUunykKCONSv5xrpkpuoatRUnCtt7nVLp8pCgjjUr+ca6ZKbqGrUVJwrbe51S6fKQoI41K/nGumSm6hq1FScK23udUunykKCONSv5xrpkpuoatRUnCtt7nVLp8pSpBvhNkcTCVLiw3eMqrQRZiEips/1sBcGS/AgyfAKn45c6M8f5vw1OlxwaXAUsniWYQ5/gBD8HD58/Y3Y/3zyNCXVB9RZsjOhSnRUZQfTLRAWcniA5QSp16oE+khi2bgE1aKXFRr3EdA9SbJwVMXLhjItGghTpx9T3yJYNKe/xcN/33OWhLvP8sHF8QoD1FUYCXJQQfLMA0saZGNKExaf/q0gh/CAkbtE6P8SXpcLMECHJLSdHIu6vb8v4j4L7X4hHDwdm9TEeD9uv4BEAqF69+sRbz/ARaqZLP+o6SgyXj/qziw+wA4Pv4ADETEx1+UCB9/+vjbf398yt9fvXv3DEsPHsDWxF5Ixt+idNnApF+iJ8dvtOlnRvusqp+FZVvH+oyuY3oJKdJSsngWYZ4/wBA8HH+XP7Qcb39ZsVAgZMBceNUhXf+Y+nb9y5krMUUfo2TxLMLmlv6nIyvNPlxsA0Gd6VnqFqE5UQdeTsBJZGMQu+jOUyMskBOycMckmFl6CXQUxpKnl+dPEBx/lz9vf/+N/qH+6Nm9a+jdqyco6iGaUsNENyelo2JUbVXoNcQz+ZN1C0kDDzDypxKWM/Tkiak5G2mQjzyx/Xr+BIjmi4V/GybZFurbHHbYqAPGmeXgibQsZ4kttaOHTNZCMsjLPpFCQBOrncSDC13iz7YNGYP8iQ1GShTDSDG+5er5GxKE5YuF/3k3TgudO3cKiy3Sj2+9MHjHrn+oKAUTlfss80n+ETA36t8pU6eFd0e/H/rO3yt069o5tvt5p/6iGF3+51n59/fv+t/7P//9MSf0/2+9PaYYl4lmwiP2xTIwQVvVYUq0i37a578SJgkkwUxHdAaszz8qEvrbzlDJtokXfYR2+dPfv97+IBCuf1z/Rl0hysH7nzQjNAv9ryyEKYzaOaUuCqAm2hROxJuWKmQQEqacfDJEwoRUf/oZpWVLHBJDHzkNS9viaORqHOPx/Al5xs7xd/lLLSXKhbe/Qv+gufTo0S0ssnDfQveQzG3I8Kvqn5I9hdTRf0TbTOYzymzjyLaGlOGJToRxFx5CqptPGs9fcbB3SpchZrZxZDtjaPgl3kQod1Pb1LDQ/E3hh1szYXAn/asxLX7O1eQv2zlfo2rzL3glKKdqMcT2/L+w+P/xxhA6dewMXdQVr7L2/ZtPCipeeyGQQua4ZMqSkvmMMrtILJI5DYufeBNhsQoPIdXNJ43FL2rwmba/Ml1NeO7Kf9KET8I7Yz4Ivfv0CAv0nq9SXUVY6yu0kHNX/U1+Ui0TobWvAOL1L/Sf4mP4lTgZhGYbktnWkDI80Ykw7sJDSHXzSeP5Kw6Of5YTo8w2hLKtIWV4ohNh3IWHkOrmk8blT3Fw+ctyYpTZhlC2NaQMJz3i7fdkM1opVYwjMsaHRMhxGZLkz39/R6TstwzgAjgFQoQymoyhYas+CBYioSr8xuP4A470+5PQFOi6/AkexMRkyeWvIiEUmGi8/ZVyQiVuMuP6ByJiuxWitMxt+peHxuU9UwhISAWtstyqThOFQmjxKriEVAaSKaSGT3QyMtDwmG7FymlIPkzL81coFBqla3BVQDN2ii9Ya/gcf8Ln8qfyUWl4KiqxkSf5AVpzY/vT9jLv1n9ef/+fRf05mLZe0/UvsQAgaFKERfE1eJJLf6u5/o34ZP3T1MwdXDQZQ3HSx8c/CoVCo7SAleVKAc3YpZAavi/S+Ef0C8rf1KqSEUVjnqm/VtTl39u/y7+0hXlM/3n7VwS8/c8J7Z8dsU6ky1uRIqVRBsLoqw2UZAqp4fsijT+knqyLjz8VCn29Ste8V3//hMXl33//qu5z/adqQn/UJzR8/kP05pw7/y4LYfK62Onl96ZvsxwAxPfbjgf+uW8QKsa1CGrrj3vLINo6OtAkPX/H38TDRMflL06SGiCwazGCl7c/w2Vm9U/E0/WPACEi5fq3fdtqqH+IWG6I3v4MjpltfxG7ebz9yRWp+IaJtz/Ij+ufUqUoDcEoWpTo6kLtqJvQkVIhSn61fD7+JlBR7xg487j+ib/Oo+hAigwek6KG/Z8xqO3yBxy8/QGEQlvVyJLrH8JjoETb9Y8oEG06c7D+sdfG0pa0lN77X9f/Jheu/2KTaNdOXP8DGdf/UTy8/xMgvP9XGPiczb//ZSFMS1P08LX6vM4YReLEgW+OWeycUYb0FB5jRHq6D9o8wIYfXcl4/gkKQcXxrzf+BEYqKFlyXP6KppNkiIRgZECBaV5tf9qeKCdEygAhWdAFiMpf4SSc0ShjjunyV0BnIIktGBlQYPoi4y9vWSrq758v114rqXnh/WfB/rTvvzkj5vqnFlZxi2wB5ixjmW3u7/9tkXRerX+s9zz7/r3+83b79/fv7x/9neu/2db/y2iDn2srhx2J/rTjvyJVH/8lVMsfEd7+AYu3f29/uXUUlOsfgpG1qM8/qEQUIhJJwciAAtMXef4t1+6zk/+8EMbUBSDYCbAIq7lzCZRKK9wSVRKosMbo2rHRofAzMn/iWzDdYuAhfpYIVwlpzK2u/PT8ExaKlB09jN4RPsefeBAMlz8TiXm2/UUA5tn6R9Xg9f/v+x+KEE/z5B1esd+Cfql0VdbYxObD9Y9B4vJH+cO/UmAAjuBjfj7+UW1leETdlawCPJWruaf9yWZBf//z7PuXivv79/dPBOZB/efyDwS8/YsYzFb55wKVtz99D7XPuXj8JVX19jf72x9L4O1P30Pt09tfQmRu+/0nFXP9o+/3f9D+dSFMpUgUjuWpEzIVlxbKeOmy4EQWHmW4ePPB6a/EbDdz2Cyi5w9wBB9A5PhTTipoUHKyrJC24EQWHmW4ePPh8pegIBrWls1GoIQjbG6VP1a6LVZ8Xqz/vP7+P5P6YwAqU+7WWESz4JFaD2kYC0+Zuv5JUBAe0ztmI9Agm1v1T/v6w2eerj8EwetPbSHCr/IfF+mtMSSAwGNYRX5aNBZPXfFp8cXmw/VPgoJoGJZmI1DCESZePv6MgmQAGTDR28CCU8nCgyzmFJsPl78EBdEwWM1GoIQjzOWPAFXQgAeMYUXaghNZeJTh4s2Hy1+CgmgYlmYjUMIR5vJHgIAGJiPt9yJ8XP5MVoiFCUsiC48yXLz58PaXoCAahqXZCJRwhHn7I0AVNOABY1iRtuBEFh5luHjz4fKXoCAahqXZCJRwhLn8EaAKGvCAMaxIW3AiC48yXLz5cPlLUBANw9JsBEo4wv7X8qcLYZY7X56Ymp21LF5RWOOKrLAssCSzn1FmM57Qlq/ZDBDj+VchcfyTiFWBiYJUSFYiE5GiZh+XP8HCsDTbmh8Qq3rBZeBVA754+GMRgwp4nq1/0rAg7F2aPS+8/8+g/nIazBqECJI1DiSeyEQkr+zj8idYmNyZPc/JX3VgnKoPialCApcJTzUg+lugy1/CKROJKlBSP8PS7PQCZjf+rf7+07sg4fKfhLhWVkWoC8lOZCJS1Ozj/Y9gYVianWRudrd/z7/6SuAy4a0GeP8nuBg4EOBEJiJ5ZR9v/4KFyZLZDdp/E09eGHi1vOJvgY5/wikTiSpQUj/D0uwG+Hv/7/KXhKhWVrz9lUon66kEWPby9pcUjOsfQmFtyewEz7w3/sRCGHa8FC1EySoy4gevgi3Rejqz4E+kERnU8jIqC/X8HX+Xv6SBYrvKrYMh3v4AAiD5zPQP0soIe/vz9jdr7Y94Wa/m/R+xy60pk+ZnSJErt2ALnZf7f5EjPLz9zVr7I7dJ0tzZ/pqlfnGZVOuKBmN1nvvrn7VDqqvX398/hSEaawtzZ/t3+bf3TFvetbd/b/+FUPyv2j/7YBmfufy5/M0G+XP95/rf+z+0Ate/rn8/R/2LhTB09TLu1qGFHlezYYaqYQsWO74OpStTYEUxS9I46VdMhSGLmKPnbwATIQHF8c8SFCdSAYnLH1GxVqMIla0rY1ZSJYe3P0GGsyeA0ZB0/UdUIhpiKa1S5O1PWhAg0ZYEPCAw1pLK1qV41T5LDoulcEfEvf8zgAHLvNT/sbJNzT7+cv1LnRG1gVit9IhXMrn+NfWgmtS0pkAUdbLS9Z+ufzMu3v+o9AARECZJrn8oIRENsZRWuXH94/pHxWNe1L9tTTidzYqjScyL9WfFXf79/bv8e/t3/ccRURwnkYRRTJSu/yw5fPydRpYgDMk5YfytVyPKG4wvTKzihRWv2gpO9va7mFMVrYbRxo7nQkI0F/iAiDnG0OgSy/PPmGWU1E/djn8WKsUlI5YETrxc/gpkYpuDD8QoSxaxjC6x5t72x5ryx828Wn99y/Pu+/9s6s9TPLG9UJ4oVEnpFKQEuP5RfASkqGVc/kzdtumaB8CJ8iTW3Kt/P5v2h9ZWCJWS7Txik/witr84LBcdU6tnIoLtqtvO4wtcf5f//Db9/WvPYT2syz/xmLv1n7d/b//W6mez/kMfbO9Cbdc/rn9c/3r/Y/rJxiWmJdg5xzCxv4i/P7LOS79LU7Vc//HtuvxHGU9yYUKfPGI7+GLIf1oIqxYX4l++adYZ8p+HJHTniqt/EWphYnP3fDQWJU0imgcxyzS5Pf8qHo6/y19qR9pAYqMyXIpQb3+KTT39Q5jaTO3lNub6J2Oh4lV1u/6xdhb7d2tjAEtbnrc/bXQEJMpOvfZHJu//BSqRmIiV65+qvpmnx38iE3EntkgKHhCWQsPkNqZB6Sns3v4EBtVD/vsjyY01Mde/Kh/Fb07XvyYc1nSqbtc/rn+THqGIWB9DUkSmCLUwsWde/456553wDv/eHRVap02TVNMDyRc5xPzbhP9difduYk1lm8X8cwJMXuVfd6sjpG7+GkPLVZTuv6x/vfyTn+df5/07/kTA5S+jIBLh7U9g8PEvdfjM9z8KmkHn458Sj7m9/+sovwWkk80duYhPHAG0YUDAq6BoVKwUnkK82oWJatZElNniWhbR5k/9OFYpxVXzsTw9f8ffZAFylEXIKBWxUjZd/oCNtz+IQZaRBIcQfBAi1z+ufyEIEJOyP1NZUdmp1/8Rs5JfZUmSIQnj7c/1D8Wgjv6J4kFLtFCclC7laUbyp0nktC2t7OPy94WWv1a+SezKhKKpp3/8/ROdLO0u/9XfZt7/uP77Qus/aj/7zee//zMW0itQ282d+u+cs3+PirHPawqHHnpomG++ntPt/yZNmhh+L3FU/x137LEKzmc8/m6WgVpVx3r/4/1vFDaxZMyePLz/8f4HwjDD33/QIlFwSn3iv/+8//fxj/Yv/6vfv83V35Pa4+cuLi+CcRiQ/aPGV3Zx5DD11Pkd0JEnh4PddtswZjWgXVomEJ6/418RFUqKy5+0Fz4yNt7+iEcj/SM4lTopA8dYjFrB0vWPAeT6x5BQAYGsRDmqlRm6G8kfw7z/K9pZAlWAEXiy19w9/qCmaZJfQlJtCsY8VX95z/lle/3t/RsmEAfvfzIYRllrcf2bkKiMWejr/Y+gYCq1wIfgFHq2IlSFP6NDwLz9GUA+/jMkRDRUPBKZw1SGvP1FgBSOmWp/3PghYyLhJj399pevlRZWZgjz2eLP8ti7zO9Yc/L+J+IAK2Pz2eLv+teQdf1rSCSpU1ETZw5z+SMgprNMR2V8GKgYiV81oB2W3v4MIG9/hoQICR9zUfuTO8K46qaGVSVduIXkQ+8NtRDyp8ZGhxjlI6mg4ZmSLGIWK+XkZf7vjRkTHnzwYbriH0MQWaK1hTFj3g83/+3m8N577zFAzGeR/+OPPxb+/ve/xxRTYcPHYz8O//rXHWH0Ozxyr/UqS8YIn0X+ks4cgD/LUbwsdRb4M8zrH8UxouPvn0BIAzVEYLMNFc/UpAq+Ou1fIkncUspy+//M5A9Jagk1Rz5nl/57/bXXwvjx42Y6/0mffBKeeuqpcMGF54e33357tumfd0e/G6bi6hKT/4kTJ4a//OXyMGXKJ0BT0U1PEvJK9f2PHz8+XHzxxdC5/whtrfqBpHr433DjDeG0086I4sW4c47+0ZrkH8goXDRaTjoa1V8YP2P5f2VkCJ9MYcozl//YSU3hP8+GcM5NbXiPs0f+P5kcwgdjufs35//8G03hricpE4qwoCik1otPC3lpRAgnXdUWRowxn/b1f//jpnDiFW3hqVcZseD7jPFnzmqYR3rzStfIv/BZ/igTY9STf+FjWlJsTVd4NUCe1v6yl/LRnUoxvfxjROY/9uOPw4gRb4fWVl5JJJlqKkJqunxaSCva7psj3gw3XH9d+M9//mMpaZzyOZP5awKJObz+xuuaSsz//fc+CDfedGOYSoGNplH9X4Ne/Tl2lA9/dbgCIQW3kjNZ5hPCiSeeGKhn5gT8pUDy1qSwKCNtlFOKrXQMUVY8G9WfDFpDPElIREmIQfDTUHUgOLWNxByD4JZofMw5+jeVW6pR1EsKq3VLTxJkSXVkVTQ0pZPCEnMMgtvrT/AImsJooNFXYHT8MySKE90qYXiSoHeSMQZqKCgx3v5MhhJYERm4JUhxFRhjCC2XP0GhRAS0ylZ6JkgNY7JoqEWcU+RPT0VgTBS/4Sx1mdH7t41EUiWVE9brs6q/Jq/p8inFicC5/BGICiJwJ+SVplOAK/jmUPnTskthUWgaFF6KzYf3fyUyRMflX1DgIxqVEzpSK3D59/YvDYePaFz/GRJizwnjj44siQ1AVNnDZe+MjVhadGrWUnB7lL4aRVOaPHlKmITJ0cBlNgbgxXNluWePHmKXyTMtxvrwow/Dk0OHhrXXWUei0V/yjvl3794tTMHs2W233RZ22Xnn0KlzZyyKjQnPPftcmIbJEdtNJBmKhkYuiLvogEXDMsssI4lx8mby5Mmx6+YKbxPS+EDumZ70CcqLeOKLHy3jx44P7777Tvho3KDQs3cvlIlhCEU9unTuhLSbJfyRhx7RNGM5ZYc38+cPn6L+5Q8h1n/atKmhZWAL6ru2lCMCFfNn5WGYZkzXnLTNSJAyIB6N4h8dMa5424NMdYKZElOw+pMLxvOPGJZIKzQGj4Hs+CsigpSCYdBUMCRX++D/nfyxWUrzRDn0rdL+3+Vv9f/g/ffDr3CVx4gRI8IFF1wQFlt8UZSiGdg0hYnjJ4Sbb8ai//vvhQ8//DC8/8EH4c3X3wgvvPhC+ASLYaJ/WpvD3t//XqqFyR/1zJQpU2WRqWOXjqFDU4eG+Bsvy9Spc4eU//T0/8svvxz2/clPwiabfCn88vBfSP7Uwb856Tdh7LixYZ8f/rDeC07lfOONN8KfL700/PjHP0K59A3Uw/+5Z57DBPt94aCDfpri2vuChxiLTYfVX/zaCxg4cuz2wQyj78zpP8EH7LMrfxRUDPN/7vWmcNylbaH/Am3h6D2bQ58e8IwVfG10CA882xbeH9uEPyw8fdwaho3EppMP20LHDuzHQlh1SIew/nKN6//JVL6mptAZIwWtr+bNp9WfbWoy1ieED+Jm+acIwphjT8Va11X3hnDx31rDn37RIQxcUPvWq+8O4bYH28LtJzeH3t1jBkXclALye/ylEB55vi3suJHs5an7/sdjXfaZ4W1huZamsPISKXad4jGMoM3c+wejGE1Rnwr5LPa/Iv+MM5vyt4qg8H+9+q/h7LPOCSf+5jdhs003hXxEvYGi3Y5F65FvjQjvQx9RJ72PzUhPPf1sGPPeaMhQ17DUkCFh/Q02QGqzWP+Yf1n/Vijnf2Jj0g+hR875wzlhyy23lHT/8c9/hNNPOy0stOBCYb311pOYjfC/9dbbw3XXXhd+dujPNAdhVG566LsK4b577wsTJkwM22+7ffT9H79/LV279y8FZCdFU5Q916AIUoZYp8b4T5w4KYwaNSq8+uqrGGt/FIYsuWRYbNHFwvx9+4ZmkUOVf+L/MfqcUaPeCcNfe1Xa9OAlBocB/QeE+XrNpxnHJxdNP3j/w8BvtDz3wvNh/vnnD4NbBoWFFx4QemC8Hosm9hSM0Udh8wb7O27iWGSRRcKgQYPCAgv0C507YTz9X7S/KVMmy3tefrnlw0qrrIw0qvWfMm1KeAf1YH4jRo4MCy+0UBiIPBfs109+Pxiepfzp+D9WkAz4awU0Y4HZyLdHhpdeekn63yFDlg4LL7IwftPMJ92YypSm9PHHY4HL++FV4Ddh3IRA/BZbbDFc9UVeypiaGeX/5ltvhoceeihsvMnGIvfGH6NLe/wQ+LOMuqRODqSOd8i6pvclEXNsy58bUd577/0wEtgMe/Xl0LtXH5R1ydAfcbt3hwJmlBj3k0mfyO+dYZAftv8BkJ3FBy4WFl5w4dCxk96wT2Zhtwwsy5iGlZtpcAPiZptuFvr06RNjMZK2v3Fjx+KdjQqvvPIyxjJTBL/FF1s89O7dOzQ3q75nWpq8PjXLmcu/ffGYRs5/euMf5mtmVvPnb09+A+l1jIFGjhwhv/8ojwsssEDo1IkdZ9Y/EyZMCKPeGRWGDx8eJuC39OCWlrBI//6hL3hF4IQbsgnhpKy9Dd4XXngBePYGL95h/4VCD/zeFiMFbQJvaxg9erS0hTdef13aa0vLYMjWgqFb966V/FO8GJduISVAH3RPnjw1XH/ddWGpZZYOq622mvIUAHOSY/SY0WHkiJGyuaFXL5RvsOYpMibpMqUZ4z8Bm6jYlodDfsZDbw9Zakn5fT9/n/llTM8SShmR1KRJk8J7H7wX3sC4+Z133w0DF188DIJu6gNekyGrj8aqnz/7uwcefDAMQbtYdrllteLxyfgffIDxOfCvbX+sz8L9Fw7z9YTOlIwsN60pkzAfy/8dbLr99x13hLXWXBN96lLKUMSdhrYwBnMer7/2engLePZdgPp2cOi/cP/QpZu+P2Ev8JeiFmnQzWDq4gfuvx/zD+uiH1g0+mb5I36Uv2HDhsnvj8EtLWFxYNgX/UUn0ddWfklc0qTPzObPclAGL7zwIhQIJWKjg95qw7wKv891ykmnWAaStubCWNTQjILfSrizkDnyH/E/8qijlULYd76zZ1gSfZwYiVymUHiD1FITlVx/i8duWHNMxdHIwk1S02VsSwkR1FiWYpuD6dUGM6x+/pq8xs0plPHV1/MnJvom6wAsYYqa4+/yp5Jg7Wl67d/bH7Fy/ZNRUNnJbte/xOKL3v90lO5X3qUJO3zkh3GunjQEYbTummFq1FsHJLEvD88996z8gOuJO565gDQFC2NTw7Swy067yOCcww1tXLK0FLND/vIfs2QYDOXUSTWF7t26h7XWXjv87ZZbwoP4cbjeeuuHqZjwnYgBWysWlSSyJauRZSDHX7HLLL0MBlht4e2Rb4enn3kag/dPUAKoPwy43nl3NBbtJoR//P2fqBwSQBlokYenzx595JHw3DPPxhcdwvz4IbLuWmuFzl26IN6k8MGHH4QhQ5YMXbvih3+RP38AcHGvB8rdpXOX0IpBWzMHelKdtvA0JpI+/JADaGQp0MsD2cPnU+LPOlQMkmT94zBB8xCmGvxZFs/f8Z/r5Y9yTjP75J8/KA/Yf/9w/K9PwI+274QTTjghrAW90tzcBJ30DhaZfhmWX345+eHJybYVV1opfG3zr2HCYZmwwrLL6oSI1CC2WbTx14a/Fh56+EFMnrwmE0iLDBgQVkE8TlB0xOJ92f5ffOnl8CB+CI/AD2Ji0R8Tk2utsWZYbvllQ4cOsj8ipg6LHEh/HCYi/vTnP2My/P2wzbbbMIDeYbXVVw3rYgPDhedfELbcYoswcOBACUuPQv9wsmbUqJHh+eefD5dhQQzaPgxuaZHJbf7ATvoH+oppaw6afywGrWTIwzhSN3XYy008TOiz1H9lAWZH/mX9l14shG9uFsJ5N4dw5AVt4cCdmsKSA7Tq9z0dwgU3t4ZlBzZjYrM1dOvcFDZcsTkM6Ic+EX7LL94WZP5E2DXVhD/8puHlnHNTa1h8weawDdYeumC+2iBmFIY/igWpV0a0hlEfhNC9S3Po3zeE1YeEMGhhSVQfNfi//FZbuOHetrDGsk2hX2+wIGu+v+2xlnL30LbwhxvbwsE7N4VOMjphEmCIGdPid9TveLwtcO7wPiz0DR0WQseOTWGlQSEswbqXANHJ/PGvlH9lmn3t3/KHYMbyaqFL/LXSqEBN/cvqKSyfUv6hc3bY/uvQH6/j2xwHh0MO/lnYeeedQrduGNPAHHPUUZjs7hxaMJHYuWtXmSjffffdwhKDl4C+WC4MHtyikGthpLhPP/V0eHzo41IF4l+Of9Zdbx2MyTip2B7/l19+MRx//PFhaUysrr8+F7w00W233S6cf/754SZsEFgZOq1Hz54Is9Bc//ETxoV777079EQ4N00xOvHa+EubhEGLD5I4grH4Iv845lMuPhnBEGbeNHCTzJb48qHeOX9J1qIbF5hmTf9Yyky9mnF0Wcozlf8oLCqcfubp4aYbbgzjxo0PzVgEb0W9V1911XDAgQeFTTbeKHToqDp/6BOPhd/97iyc2L0d/QA2RwAL/tt8iy3D/gfsH1ZYYQWpInG74993CO9QvOeO0N1TJk0Jffr2Dltvs2049JCfoY+CMoD5EJPFl11+WbjogotkUrpjx+YwZerUsDgWU77/gx+GXXfZOfTEIhHNzOLfCuXz1yv/Gn7+85+HPfbYPZyyyqkJKhbwYyxcXX7lleH8887DpO+o0AxlMQ2/FwYsMiD84IffD7vutnvoxW/QgFlft760evk/98wz4Te/OSnce9+9gncbFFAXtIPNNtsM+R+GdjGQqUj+w18bDt7fhAceeAATyBjfo5wUsa/v+PVw0E8PCksssQQ47S22l3/LnxteLrnkz+Gcc/4gddhyy60q8scFohOOPyH85fLLUf6qjBDHEzGe+M5ee5GUctWTv3vuuSecfOqp4cknnpD3xzx79+kVdtpx57A/xiYLLthPonOx88KLLgx/+tOfwvtYJO2IxSjmPwDjCy5Yf+tb34SuwMKZVUuhlLjygL/lP3bsuHDmGafjJOZN4eYbbwy9IYMl/iNHvIWx0InSdrnQORVy0hm6Z6211wk/+9khYa1yo6RWTfA0/Pka5C/n3rD+DJiZ918Cb1W05NU94/Y/YdKEcN6554VLLr0kvI3xD38vTsbi4hJLDgk/2ueH4Rs77YTfiZ2lLm+8+Wb4/Tm/D1dcfgX6umnSBrnZc6211wr7H3hg2PRLX0KRFOQ7sHBy1lm/w8LiE+gvO+FkON5h7z5hm623DocArwX7LSj1/2TqZOB9E+TpnPD8C89hMaML2sOU0LNXr/Cdb38bY9C9sDjdX/K3tCWiVBR5xYqX9WcbvOqqv8r3nHbZdVfok9UUey1amIz3d8vfbpHvOD3z/DPYTNNZNq326Nk9fGvPPcP39vpuWASLMOX7N/lXfJkbTRMWDt8OJ59ycrgFv//HY6GU+ob+6667DvL/WVhzzbVSGfmb/Le//W3g5olRI0eJDLXilNGG628YDoFeWmedtZCn7lKd3vun7N1+++3hOGxY232Pb4ajjjrSYJBS8Z1w3H7ZZZdKWSqB8DkO/dje3/uelMvknxHrtf9J2OR77rnnYmHogvBT6Imf/pQbwHL9uRB99TVXh/PQBw7DZrRmjNG5mZaLiXvt9Z2w997fx+I3Bl3EPuLPvMQgmTJ/zpf89aqrwqknnxxO/e1pYddddwGbRmLZOKdyCrC+6qqrsdD3AbBCGNLgQuD+BxwQtsIY3/oLlpBx/pv2x3jsR+T9x/eBngkJsixWdzjjvIkWwyqHeKwXlSuIMn/qQymzVF6TKutfD3/WgkbCJH+6WAbNR0iFIXIyXDn+2/oztpRcsm6UP3PJGbNEykl/z1/xqL7/CkARpP/+/TMBx9/lvyIGFAoxLn+qM0v96+3PpCMLieufqKMByaz1v8Tw89e/mD6ypozshCy7WaVL7zI0FlELmh0y2OVE7/rYucvJzVHYBccrvTiw5G5CQiIDDAw4OBSg+RiD2zYsWnF3FSvOSRjbMcZJ266YheMO0rUxWfwEfrgticUn/qjtj11y9QwHSP/8Jxa3CDuyY0PlDsklMXkzBQN4+zbHlKlTMNgL2F22VKy/psYrvMbhR9viAwfJzjmWlIMr/uBrjpMGrAPLucIKK4Ze+EFRGu6+u/XWW8LS2Dm66OKLIfdotLrhzTfeYor4J+jqswRa2DVW6Z3SicmpO/rWBlqW8BdFRbfkLx5weP6O/7wlf/rjyRrK7JX/VTAJdPIpJ4VfHfOrcMyvfiWTV6vCj2Yh/Kg9/JeHh9WxO1QXiMS73UNr0hRexI58Tso99fST2BiAyTdwUgdxJ+yBBx0UdsZEixgE3HHnXZisOyE8+9xzOPnREdfjYZsC4qy84krhwJ8eELbApKf+kNTURUJA3nffPeFWTETsvvvuYemll5LkyNHU3CEczDx23kUmZY7Czkzufjdj+pc6+d//+jdOC/QKz2Ci/FnZYNCGCe/1sVu3Ra6hbZOlMZ34GIud9Y88+pj+WEaNeOJgyBDN19LWEuoT6qyusfwlkJUho/D+d+9fk5BnzPJ/m39ZyY5YDNpynaawYJ+mcMKlreFsLCIdslNzWBRzmCxVS/+mcPi3msKABTqEDjr3U6l//ikNfnvRMYPbHgrhsr/j/azUFjZbgwthqReRyd2Lbm8L19+DRbD39IQZJ1g4n7HGsh3CPts2hVWX1IRK/Nswz/GHmwImUlvDzl/qGLp1kUxFXlccFMJma3UItz3QKmlstrriWhaLPqNwCOKFN1pR5xDuxFoL68BFuF7dsOkGY4gPx4EL/99FvywncYsAAEAASURBVI6N4+Hlt1vDwy+w8mqWG9gUevHEGZhmr/5nEVi7+BbKiopv/fpLUHwohz5Z53qmxF+AJqPw5vrzpMFhWFRYAIsXnMinPuAEG/VAR0zQ7rTjN8I+++wTOmNTT2WSqcywyJ8Tvpdddplkg1eeisbq/uLww+NCWM6fVf8ICybn/fGPsoDw5zP+LLv3mTzDunXrEvbc81vhD384Fws3G4fNN9+cQTHdmDEsLrDzFMDAQQPD327C6jA4OMZcdrnloBAhE9h1rzC3yZhz1Dtvh4ex2YkCzdLwZO4iGFeq0XSVv/SJwbCUI+efQzI1M/hLHpWMmKb+VbxzskLNKH/2Bcf9+ni5wnJF6Pcdtt9BFp1El992O04lH4Nrbf8SFl10sfAOFozOPOPM8K9//xubMtYO2223nSyYXX311ZiAvhnj98mYID1VTrC8i1MWR+A98rTyzrihYW0sVLyDE2fX4qrMSy+5BLqmOfz6178WXK/EZPmpiMfx/IFYYOHkNxc8L730snD6GaeJzG277baIA2WWJiFZPa1dWX/+fhiB0zR33nFn+POf/lSVRWWX3xHX4pTKKZjoZf+2HxbweOrhlVdeCZf++ZJw+ulnynid/RWKKfm0w5/eyJ8LdkcefXR45OGHwkYbbRS+9rXN5VT2TTfdFG644Qbpm3/3u98J91tYxDkKi8ZcnNhkk02En5vleKXnzZBFTlT/7OBDQlcuMEtZq/Lfion1D7B4xoUQXh189VXXCP5txCTWLVqyQDLs1VdwWqolbL3V1nJaijIssobKrInfSWbqyR8XY37+i8PkhNJWWDThic6P8C6vufYaLMBdEhbEqbD999tP2srV8Dv33D+g7XcOB2Ehph9O1L340ovhyiuuCGf+7kzIzoCwFcpgZbR8zeaCCCfUif9NWIy5/fZ/iFxouQR5yYeLhkcffYxcVb8OFrzYxnkd9H33/Sfcc9cd4TQs4F580Z9C9x6ivCV5xaMGHMs42vXqXw//2v7PKlTKn+FvWcxs/lf99SrI+uk4WblIOGC/n4aWwQPxm/jpcN111+I0/Ulh0ODBYQNs7pyATZl/hA684oor5fftN6Hz+Jvz3rvvkt+zp0A3Lw5Z5i0n/JzA4UccDvu9sOOOO4Z10AbfHfOunJL8C3QvTz7x+lfW/4H/3B+OxYIOx1Tf+ua3w4orriAntaijeSNBVyzs/mifH0E2ebLIjNautv48JcUTXnfdeadsjCKWwqnsFjk8/NDD4fjjjkM+Y8K39vhWWAkbGN5HWS9Bu7/4ootEnvaDjHGTq+RRZiSp5PzPPfeccM3VV4UVll8hbLXN1ljE7hXuRP78+yX00A3X3yD6ZcKE8eEkLFqz/2Edd991d/RfHeX073333ovNWufLBo6FFsYCIUpd2/+zCB9hAytPkd2LhWJu/PoQ1wbbfEFZRZ6IpUwPGtQiC488sSiyFuuxDhYuaRrJH5or8hklWHKDL2WkanL9H3jw/nDmmWeEt3Ay+3tYXFt66aVBv4n2ei3e34XY0NQ9HAA9ZwtUZTrMn/3Ah2iDb735Vvgn9Pvll/8FG5nQIdYZf/wZdT7vvAvk1PAPsNDdo0dPbAh+CJ+K+Hc4/tjjwurYWMcTrjRawohKtMq8STesP2Nro9MxfuX9W5raf/PJt5VMLLeNRRjC6GISEZ3MxuJKmHggsP37b9f/YEDL8lt0kqVRd/StDYyMjeo/U/kjjRKW2iw8f4Ls+Iuo1QqHeDZufy5/M9H+gaG3P0hKgybm+oeNrAE43v4EgS9C/5cuPIrjkfjqqhZPTklLgKWVqobXusjTGfcuLYSrATpylxpOhPGqnfETx4db/3ZrZhcNo2I0GbvTPpn8Sbj22usxmYarjFZaMayBSWD+kB0+7BUsYvUKgwa2hFVWWQWnF/qHBRfgQHbGphUVUzFtkzRqF6x4dQp/rC6/LCZKojwzVV4D9DKu5hi0+EAM+hZtUH9EiHXgdyk++vgjxGQimM7FwJNXYHTCxBFPUAgjgnpiUGmDSIkbM/0s8UdmycTiwV3uPkrBILTSnn+CogRH6FmV/zIBx98kbM6QP+om+/Gn72n2yv/glsEyWcGds7aoT5nhybBumDiUa6NmQv+egQnMRx59OGyD3fg//smPRf9c+dcrwzXXXIMJyyPCFphU4q770fi+169P+HV4AYtgX9l0U9l5ygmus88+O9yIHdoXXngxJhBWqpzqovyPwI7cI488Wq4b+eY39whdcCK2NMtAfx5+xC/DMVjUW3W11bHLdFeZDC3lf/jrr4X7sVOeP9jtyjOi37VrF5l8Pfa4YwN3vlJiJmEHNfuNvb79HdFc9PvKl78czsTuZ31jZe6N6TJ/+SndLvKsv3/JTQSpcb4W8nnkX1sFutdeJoRf/6A5PITrAvvENUjJG3PLPTG31QEnkmem/u+NDWHY2yH845G28K9HMFHCRPD+eRUNaev/H30xhKvvxOTKx21hu006hN3+rymMn9QWjriwLTz6wrRw3fwdwhKLhDBfd5uC0PzPwdrEEy+3hu9s3iGstgTfasaft3j+BAtoj7/UFC79x7QwuH+HMARrErX693fXtWFhrzkc+72mMD8OBrFMiCqn2w6/MIShr2AXPcqKNTGMOXD67K7mcOt/cF0o2hT9T/tJh7RIxxLQzJb+DwUv6x+LIuUpH7X11xKXHI1pVDcmO+P3T/3w4x//BCdBFg48/WWTTHz/PMHAaxBnUuzlmq7lsPi0/4EHhEX7c2EJ+UOEuLu7emJUazMNCw633nYrroS9Ra40XGMNrLxGo/Vvhs7YKtx5193hhBNPwK7+dbEwjpXQwnDC/d84pdSnbx9MOp+BxY75WHTBuDeutz4Ju9yvvPxKfdnw//gjfBcNE4sP3v+AiDknjg884MDwvb2/V6RKdiaCcsJi/T8v/C1haacoAd8YzafJ/8mnn5JTGdxYcQRONHCynfX8Ek6VTMaHBW/Hya+hTwwNiw1YLDz51JPhsccfD/1wVdp5OEm10MI4YYC6f+n//k9OPz0BvqG4vvwrX/lKuOiii2XB5htf/0Y44sijwvy44o4bKga2tMhiEBfXuCj0Lq5Fu+3W25DXJ+HEk04M39hhR0yAd5Kry/r06SsnD3j931e/+tV8lZvUOj/K+n9v773DMEw+j8fJtomTJuJaR71OOHNjoRwnqilLXFQ46aSTceJsV+TZMUxEGRbCAg9Pajz4wENYvNkGGzb0ZGGj9v/oww9jQv9B9Ikrh1/+8oiwAibXsdIWll1m2XAYFpJuxCm7nx92GK5oGxD++a9/yjVqPL19BuRvgX4LyGaUjTbaGP3yVuGJoU+E0VjIWxwb47JRaWL+Tz/7dDj6qGPkOrJx48bKgpuEUv5oCvnjaZSXgcP6664ffogTRX2BJZUYZYdGr7uUKNGn2v5vuP5GuWKNm1COxSYcygc5eFXfL7EBh4uM++67b5iIK/qGYuPh+PETsDHniPBNnP7qiI2Ak9BPs1hcWLwXC1Vbbrm1NBHJvHiw5PdjEeaYXx0d3sW1fNxcyNNk3NyjyiTX/6VhL2OR7O+CzzHHHI3Tpsuj7E1hU/T7B+GE3/3/eSB8DFzKhbAiq7ok89ccqvXPzDn/yJiDIlXK33/T/nnV9clYlOUi049wrfSuu+0ip9wofzx1eSEWov6O06sb4F0MGzZcxkhTcI3i2TgVtho2RnFR+es7bB/Y1l7CaaB77rlbFsIuuPBCWfTfFgvWR7EN9p1fvt3agjElTy9dfsXl4ehjjpE2cgVODvJavW/v+W201yOxGak73sNU3BiwimwwuB+3A+y2226hf7f2G0tr6/99tMGXXx6GGwLGyScQmlA+E1EDj7r4Kixc8cpGLkYdjcVknuLlLS5rYoFoJ2zMevD+B8Meu+0Rui/enaJrL8qSSDavyuSief+FFwkHHXIIrtT8CmStQ9hgww2wsfb98NgTj8vC+FZbbyUn427/x9+RVw8sHP0OG1yHyPXg3Aj2ZYx3n8LpzrdGvAndZvMH1fc/6m29jeGxRx+FzEPHQP6l/hQOlLF8/1xIevmll8PaOJX2gx/ugwV9XNFYCBHbYK5We/njvMOWm2+J9zA58DpVYsb5klogmP9DWFRk2bbbbvtw+OG/lMVRnuDktbA/+vGPobufku+azz+/nsI18Cz/l158MRyFNvX8cy/Ie/sEp75oascf/Abnqb/9rfStPz34p7LIznpsteUW4G0O191wfXgGGKY5DMuogW35Ezzp1xRu5UZgGgFRgIhXjEA2ks3w0FNfGqb4S4imCJJ+whyFiG5y0NDWLOvkLxwa2kj+iL2+f02sfP8SfQaPT5s/k5f8gQ0r4/nb+5wB8DHY8Te8/jv5d/nz9uf6B1rE9e9c3f/I5UMyFNDxQO5dZGAialCFwMjIkTuYHMUoDio44SF/MR4FqWf3nvjxuRUGNnpigXxMh2FvvPE6BrGP64ALP257ztdDfgAwWHhiefgjrBMWx/ihdhvEkYM8zK8frvOQe7nhQTfmXqLJ3Ny5+eTQJ+WHx3IrLI/TCIMkBfl+GGfPYJjP6pjQ5WQ0dyUSnk74Ad/M2ToY5QLBADh4n/+rw15lkLhZoqm4P/3114bL1SwcEjMOf4gvuBAG4YJ3LDfjfIb4S0ZME4btV02uv5YeAShQGlglvsj+Kd6/52+YO/5zmvyxPEnU5xD55/dS9v7+3kloWD5ee8JvP3DnPQ39qD9IUZdgiUK+w8LdmvxBzF3nq6y8Mr6pdZBcBUtOflfjteHDMXFyn5y+Wne9dXFl0/3YgfqWTBSccfrpctUr0+aVOfz+1xP4dscrL78iJ8mY6dSpreGxxx4J3/3u9+SUF0978cQEy8J4ZojrdvjWzqOPPIb7/U/C9WkLy2RrsxxDYn1aw5FYkFsYExDb4lpF2ZBA/JEAJ4M++WQSNh98ILuMmSbLxh/3F198sWTxG+xs5jfILM/a/IXJHgyM5vOQP5aBR90bmiLo88if+dar/woDQ1gBp50kkAz4mzYNp6zHcVGIUoN3JsExNnU8EO2BhbJu+F4YzXGXtIb7noQ/+miGtSEeF0SkHojLutPc+RQWwcZi4nSR5nDUHjEcoRf9vClsexhk5oXWMHJMB1zLqPzjJzaFM7CAddO908L6KzeHPb+Kk0bonGNJUsLzYbP/r7/bHPY5bWo4/erW8Ms9eLot5grrudeQ92PTwve37RCWxEKbGUkHj7HjQ9gE6X8b6Y8YE8Lp10wLW6zbHDZdrRnfRwvh7OtbcSI85gprtvZ/qL28AlbCgE0VQuHEDw8TIpIxPNbAuKs2A6OxqIxpcRPqderPBW4udGvBNBe+f05GvotFdE3Hzm1qecjF7wT1xi597kjnyf6XMEG4/rrrhY1w0oTfgaqaWMCY/2RcC/XXq64Mx2DS9us77BB2xUkdLavmb/VfEAs0XKjiQvpWW2+JEwJXiy6yBTt+R5HXIe6+2+5hIHQfF3wwCJQyU8eMx2TjCissJ5PSLPnumPhdA1dqHXzwQVK8zb66Gb4ZBgGimY3jH9adk3/pfdlLhIf5RWSkqO0eDIzmDWw+4K0H/F7KhutvIG2Z73/AgEWwqWzlcOvtt4Vn8Y3HLbbYXE758DpwntLoz0UwZoax+JAhQ6Dbt8XVXNfIKRYuhHHRrC8m3r/ylS/LIhiz46a1VVdeJSyE69hGv/OuTNLz27u8IrwPTvPusiNOYMVjqTyBsh36gZNOPgnfDRspi1rpm0ZMrAH+iw3AVWoI4y8Ing579dXhKGZRYUT9EP3IB/j2bx988+qbe+wOOdAxe7cuXcM3vvENLIQdiwn6tyHTH+N3Rk/F1IBl3jQx/9twao7ytSqw4gkTkTX8BlgL16stiyuKuQHuDpyw+Po3vh7uv+9+fBNsfPj1ccfLN714IpuLGGuutQZOj90IHdwKzLh4G98erFL/sO0tuugiIu78fhe/h/TmW2/Fd4ZoxfvnyR8uAgzAaazuOGE2afIk5NVBrscTuZc6IArisG/n9/AWxjs99benSH/7t1v+hls2uoQvY5Fp4XirBjUEv0+0HK5Au/8//5FT5gOAN2/yIDy8Gk0WsEBzUacXFs75C4YngTle4W+mk9D383fc1ltvgwXIXeQ3ExclBmJDIb/PREz4W48nCYlxRELqxu+vdYYeWR4LYCvilg17Mfy91H/hhcLQNn6T7n2RzRSP9aw1DIzGmg4Ty684xoZV4m9xxI7vXwphiRT4z0r+b496WxZVFl10UWxI+ppubkIm82FhaLXVVw/z4STRM88+I9kOf3UYTu28KVdNr7nG6vDTUvM0/N4/2Bsn7w8OL774Er6RNT48jfERv7G2KdojF8FouOF0lZVWlm+3vfM22iDksy9O8HEzJvXyD37wA/1+H3g74X2tvuYaOAW7OGRtpCyQSCJ8TKf+PD3KRSAiSn0xDGVWPRtjAxx+Y/v9MZrnj378I7mqlqGd8H7XRJ48sctvFvJ7hYtxYTi/HE2kyP9enOTiws0yyy6DU29rS3sm/vyOFr+x/eRTQ8Mtt90im6vI+wHKdDBOXi6HzVnUFPyOGhd6r7ryrzgBOSoMHtyC2DB13n8nHLHnt9iWGDxYWEbjBNvw4a9q8Wre/xgs8vN03ABszO3eoxvKOFn0G6+oTG1QUgm4HeY2nMK6XMbQv/jlYWgPg4RnceBgVZfvN6JdiLuoP+vK+k+D/PNqVZ4QpB/1Bb/xSDMVOp6LWDTX4TQsT5ethqsq993/J3Kii59y4Hce+ZkKzr/we2SvQzaYjZhYCJ4y48lM9g88ec1+k2YB5NMf30QkG0/+MpqVm+EVY2nC05oOuTO/xdb2L3FjYOJHwejFJ3Wu0OjLldJfQEIjgC5px3zA8CndPrJJ6cWYwmClR/iM2r9UxRKRvCopqKP2KZHU06KyVFo6+pMBrpnIX/gsEc8/YRgRVJBrn45/QsREx+XP25/rH2sWrn+9/6n2vx31R2RsImXvEjVo6VV24BJcDTQpA8YcmHCQQwbEwqBGftjjRzUnfW0coBE0kUn4IHDH5o5ybYrtZpS4jI8/TstZxIcffiSMxI+LPvgBYZMgDOW1irxabB0Mjml4GqwDRjq1xezaBYNW7Ljjh2nJO3jwYBnQ/wMfaefAyHZlNSM+xtDy420qdjF+GT/6eR0jE2T9WSczG224Ea6CXF94ycBB6RX4RsEGuB5yMAavNNw5x4Elv5sGlyRSKV1Z0E+JP9O35MyWQvBhoz8WIXHRH38sGo3nLzCUkCSA4Dkj+S+RraaBZB1/lbPZIH/SZIk/zWzIX/JF/hPww5ZX27S2TRV54BWr/J4DT8NyYWskrqk6FFeVccKQhn780d2vbz/8AO4MEWoKX8Mu+kOwQ/aNN9+Qic6111lHro/VX4EY+CEtLtxTD0+ZNkXSGfrkU5gAHI9vluwYvzOm0kk9usXmW4RTfntqeAHXHv0fJsj47cRrr7k2nHbaabKAfyrCVl55JWkG9eSfk2M/Pein2DgwEWU/NOyHa7C23nLLsAAmsJ988klcY3NX2OdH+4TL/3JFbgJ4B6viBztfBicqW1papJwL4gPg3bvjRC7cYJE0RkHni5kD2p8IT7uGrcUz/C3Y7Bj6mbb/j3H13/s4xUVDnHr1wHcse2qOn0xpCy+/3hb2PWMa5IAMkK3JbWHchIBFCyxEdeCVhiHs+uXmsNuXwYBoG2ARab4ejN8BJyhawx2PcsqZ/TcT0HTHI89R7zWhjwthly+hN2NQNH1xGm31ZZvDw8+1hjGxXK+OCuFcfGvsAcz1fWlNLJx9s1m+78Uo9fqfJXAA+/BvdwxnYCHsWFz3+N0tm8PqS2J3MMp7AQ6UL9i7Cf1oU/jzP+JkCfLv2bUpbMC5U9D4zE0YjGEG53C6dWkKC8Ddgo3uWNPF5C9qMQe0f3lZKGyJXYRXkYwBingE1xjgKcHVQGNCoAZYsNmJgfXnOxOrDVdZt8o1WTyNyaCOEIoF+y2kegZsvLb6YlyXdOPNNyFpfMUDk6CjcbqA37ThdVBMZ9DAQeFXOFnCibq3Rrwhi9b9FuonJ1N5fRT1GBfEukFH5MaPDURvvh7+eC6+nYPr2Hht30GYwOQV1maqZW+DrlgFV8ieKNe67bXXd+X7NBtgsY3p33X33VKtseM+Dn88/zy+aOAEHYjFFy6ONWGhoDcm41sGDZYy98Hu+T4QlpaWFsmuV89eUjRxCMAm8TWlQaEkuFo4Y0KgBliw2YmhBn8pDAMjI9sb/Vj2atzEMNP590UdeU3fxvgOWBorI39+B4bXf/HKr/64uYGnQ0a/M1ryWwkbKjSDVCSZsP8rrjjkt7c4FuZpvwUxwb700sukapEYjcnhCRPHYUG0g3wj7EN8U2rttdeSRTLbFGHvn6dbmD9P63HyuFLZBvif/fuzEx+vbDwAC6OqBXIxunXvKqdO1mxbM02aQ0TFPIerM/HBOkxI95bvfFUQLsGO+fNWiC7ol5ZcClenWyLg43Vu/C3DxR/KN78/zA12vFp0ySFLyPeJXseCDyeV5VuduMkinYS0fJBemf9yyywn3wRjQXkl4+/PPgvX5p0ssGjp8/sf+sSTsvDFxYSzz/49JuuHy/dEl8Pi3Cb/tzFOVQ1KcA59cijaxl3If5BsSEHzldN8nBxfZpmlNWk+kTwXTXgiEI0F9RqGxYfl8H3SFXEt37/wfaLzQj+0YV57/AYmzK/A1Yhs/+tiwZs40DyJE4P33nt3WGrppaFvp4ZO+MdrGi/B90BpKHfcEHMVvndEQMv6r7TCSnLim1fgG9hc8HngwYfCk08/LaegFsMiDMsp7yLCIQmXj0/Z/iSp+LKrWUTXLObPzQFsg5QDfmPa5J8Lo2OwuYC/fbngyIUqLliNGzcurAR5QS3TO2SZ+A1ZIsarECfiNBEx5gkgLhCVZsx7o7EhZByu8G/GNZZ4l+j8V4He5LW2cpKn0D8f4ipOXlvJq/a64LthyUyn/mfhG4IohryH63AV6r777SvlynHxPWzo3BUxVuSiS5L7yMBvznHT05LoK7qjrSZTgl3k/8qwV5Af6oJNrn3w/bPy/XMxjN/rGwZZ/RgL28OGDUPbmSzf073n3nsCF3vYfzHuSjjVudHGm2CeAQMDmpr2x3Qp+/zulxlesXrwwQdX5h8s/8cff0J+z4/CrTK/j22QC5b8ti9PgS4+EJsx8I/Veg3luBeL0b2g68Z9rJstumAwciNOWCmYASczjw3nX3g+xMMETKoKWW+CPls7LIA2czP64M1wsm3RxRaVTXJnnXW2LDZz8XgByhYMF+7uxqlB9iOy8IUxITdC8BpTGt5Wc9GfLg5HHnEE0mbpogHZC+35DPBxgZV/DOXpRC5u8zYHXkm5IeY6RBUyUAhLINoz3f7K9o+EkB5FUwzqzDErv2XJTPik4dyJzLsgXOeUGIHpiMUnDGoODxPzdsW0APBoyhJb8teEkESUP02NT5qYEiwJbpewcn3a/l9SiflXs/D8+cb4Ghz/LI5R6rI10+2PaBYSVpAm/6WXy39EA5bLn8tf2XRy4wPl7Y8gJHiqOoRyIx0vWQou+ks0PGhrn1x6JYbPof3hRFgcRFiOZmtxWNbCxMJZBWJhCwYhOdHEnWKP4XQBd4nyxzAncgkNf0SPxO6zBRdcCJMi3eCj+evgBvWvkz9PdWnOsTQYIQ3BIHodXElAUDlw5ODurrvu5NyHpMmEWDzFvJpov3595ZqtRx55RE5LbLPNNvJds8nYVcUfYxw00zA3lo+7se64844wGbupaCxNTjRzYoiGk0PPPPO0XCGGSDBtsrv4KfyA404vFqZHj+6yS0smenRGXtKXFKyIZjMJGE1daXNZ/iYsFmq2YWpxs0hGjgJk45UyM4LnbzALWIahIqcux58QQVAatX+EEinDbk6SPykTPpxtZnbJP09e8TrCCRMmAcY2uY7wsMMOxdWp82Fy+E25aunnhx6KK1z4AfOAK3FeCrwK57t77RWWXmYZ+LXJDm9+gLw/ePidEv4Q5i5R1ulDfDCcV9Nwp3ELJpbWXGNN2bX93ugxuD5nCvQQJ1pUvwkmeJ1LLT1E9O8o7ESHQgs34rsLZ5x5Jq6pXVlOrLW06IYBxlMcmQBKQn0SxYGThj/Zd39cC9UP3xo6MTz37LMyWc0f1T/5yY9wam0VubLnkUcexQQpftxjYm3xxQbGH7dSIElcjuMzTWYGo7Y+55z2p2WrfZpM5bKjIqkmJLPbeImfsJgdE7U01FmtPy4ADHcNDeFanLJii2NzXG+F5vD9rbT9vfVeCEsshtNV22A6Js79PP1qW7jtoWlyNeFC2ETOOIMWQuox3502DGGnjTSfN0c3YyFMS6hNXf25+DYOVw5ibiqsons8Ymk1vcH4LtlDz4bwAU6McSxw4mXTwhs4TLTDxs1h502wCIzFuAmTmRanarSsSYBiOfi9sP2/3hwuvr01HHMhToBt0yFst0FT2HjVtvBVLKY9Naw1PPRCCGPebwvrrdwU+mKxa61lIIuIbwtdLLMmFxNlbiB18kfrkvLPLPoeYo2Uy6oX48ASnaagWGCyLU2LK7yIkUx6/8SHoxuY2ZI/s22S0xlc7OaJDJaDk3Wc/OM11DytNRGnXL6L6wI3xg5xGl5hzRObLYMHyykfzE7J91nsatdHHn1CKsRTQ7w2jrvwu3XvAT00MOz4jR1lFz8X6Ol/ysm/xXWG/8J3T/bGt6Z2Cl0xWcsNTXyPxM2wJHyEiAGc+D0Ni/K/O+uscNQRR4WDf3Zw2H777WWifK/vfk++SXvbbbeG53j965e/IhumuNADpRabXgbbZEUSRz1sPMesaIq3llyft/6xPGWiT0phDw2Zlfw3wjvbcKMNIfNRzpgU5O+xRx/B4sY/cJprAZlg56kfXnVG0Vwojn+FNWYtG9iAxrgJ48InGMMffdSRApm1XrKNxUQ0Tz6NGDlKxubsj/h3Mk4J1ebPb938Fu+wa5fu6PtW1GsRWT17NTFfw0Kd1frL+FsCRDJiDOizFl43fAJKq/zW/kbi22In4WRxVxx/XRE3QeiJpshl+ZodU+N1flyk64sJbpMGw38hnFTi5j1eOcdr1HiakFe4HwGZ/Pcd/5IFDZ5G4Smn9dffMBx44P7yLbUohLHkDfJnOaRaCBeb7Ln+TzzxmJwQue2W28J8uAu37/wL4HfVCPwO4mLxquGP550rp9IY6ytf+nLo3as3fnOhvPg9xoXi1mnYHIHfL7yeUkysN9sfT5ixnY1B3bkpcYftdsDpsBflpAkX/Lj4xVNd3Jiz74/2xcLbJpoGnpthc84iWNRZb9110+KY4U8mVX3IjA0cFUztG86WwS2hpaVFqjkKG4EuxXeeXsbCxpO4kpMn63htazecvDH8pfNCKrXG0lS0mBzzMhdJdfO36CicjGE74wkYOf0SWfl7lafcukNvZaNpzGr+1Ht/xkYC1lfbgWbyKup20023IJ9pYVMsbhCNifyoJQy/J0dTlFr8yMMrP6dAB/O6QVmhKZr22LHjcMX1zViYHSkL0H2xMMt8eT12bf5jsUB02mlnhAm4upELKcIb68+8acr8zVXW39oYskiG+FNG+M1JXaxIQbjSdJx8F3cCdA0XYRfAhgsxlq/ZMQrzf3/0e7I5o29fLPTAQ1nwhGzOj40NfG88PTkRC4qsP0+/X48FpiuxEZWnJnntLhdUuIlr35/sG7bcakvE0YVbk5WYqCUec2d2WJBhVuKjT6v/4088HlqxieT222/HTQsPYNFxAXy3a6S8z9VWWzX8HldbcuMs5W/llVfG1ZO7oG31QJ1jm0Oatfmz/9FctAhG83vr3/rWnvKduf0O2E9OPPMK2BeffzF8FacM+d1eO4W22mprhD322CMsDx3HRcK68i/tD/mzMjQR977Acxt8M5CG8x7n4zfHi889H559/rkwEjLFa4P5zXOJAPzrGauThdbNX2oJaWZ9wcjibL7F11SeGVFfL3tsWUpk8fhnRtJExKZWbMxBe2aUv3MjszAphjPOn2lGvBkv5iu2ZQQ7Ny9N0d7/p9U/zGJG+VsdtDiev2AGGOz9Ky7Vp2Fq2DWWP8ffsJLGRcCsHURIDUN1qsvl3+XP2x8ayqfu/1z/zCn6p2NSdEbEHwmqEan+GICXrtpPSH3/td2LaVBWLcgECn808ccWJ3v5Q5shPAnBnVH88cuBaeUHsiSR02HuqnKYv7po88cZdzN2x7VgVmz5YSeDWw6dwE5+/NWW8tnnnpVFM169scEG68vHZ7lLeSJ+XHTCpPIiA/rLdTs5Q5YfO7gkrZimZIqU4ccfJsyQmCyIHy8dcfe97Zp+bfhr8uOTi34M5yR1R1yvKBHwpJGkSuIzwT+lKnkUubC0yBPhQiQxzCyef3wrBIiGWIKeJfl3/AW69Mh4zG7500tZ8dNmNsv/kkssGb7znW/LyVF+n+FpfMuFu3x74roc7pTvi6tIODnC7/awsN26d5MJ3ZVWXAk7rNcUZBVLTFxj8m311fVUFT/0vSe+AzEak1hjcOKMV5qcfMqpsulgEnTvZOyW5Q5TnWiptv+eOBHBRYKxmKzglTItgwfjaqk98L2vXcKe3/q2Xp3DdoCZAaoJLieKLqFDFK62lS/935fl+yI8IctNANxB3g8LYz//+WHyDQtOkrzyyiE4zXYwdqoOwY/1LuH667EzNr4TaXNIk041TD+qKNoiTrWandyaf/xpa5Gjf0pJyyzs1foLB+sS09EYmmal/QvHbMw/1p/WyoP5bSyV50v+2RZeGcFFMV31Gv5WW1gUG8I3wgEPM59MaQr3PY0TVkMwYdzf6mqhsNvVnzz4o0VcYOPGX3zPAiTofukzTWTgLt62MD9Elu9gHOf0EGXFJZvDrps2hY/Qje531jTsfGffCezlHevbkuQLv2bI2A+2bg4n4btn19zTGhbHfFkHVHO7dRX3jVaCfUMbFsRC+MXuzZiQRv/amWUs3qkkSj8iRYNJE5Ha2d/+FU8WKRYyFVFxjIBLmYX+HPuf+Xr1lIWkD7BL/xOc5jz8iCNFdzBfXvlMcdoYO9z5PSGWexKuMb2s32WBpzPWW389LIiy8Lncj2GDEU83PPv0s+FdTDTzRMCzzzyD7zI9KCdL+L2a5ZdfQXTdkCFLhm223TosvdTS8o0avl2+QTUxTWIEmRHvqH8OPeRncg0bvznL9KkT1t9gA5zwX0e+RzV/n95hxJsj8F3DI6FLF0BenNBG6oI3mJk0fSwr2qLQYoAxaKbgBwN5EPx56x+tv5WDpQT9KfIvx9g8hXI7run65eGH4x2PxlVpP8QJpiVlvM7NZGyTnTqxIVn+Wmme/qPhxG/W9eIlj0n4XtexuBLw+uuuxfeq+sjpBgst82eqQ3GSgqedn8UmibXWWlsmpu1EUXv9E0GvV3/CgvSyBlFedZM204QTyU+FX/ziF2HoU0/hyvPVcC3jdnKdp3HIu6XD5CPWn5Pobdg4Y5PM9Lb3L5PpyIanLjgJPwH9NzeRcMKYV9DxCsmPcILuFPS/d999l3yzbjD6fZ6k04IXusqKG/NXLce6McNUUYnH/J8Ahp3xnniKcs/v7IlTsL1xRd2r4dRTTw0PPviA4M+NNjTb47rRrbHZj3VoohIlaDAcB/CqOnVEC8FSQeTJBW+aDz/6AN9CwiI5DK+U58wwi8TmwlNvrL+9id1221U2FfL0kZzyY6QELrgQUd+PBOSQmvq/g0l+LmYMx28ops0TeC/gNF8r35t0b4qQRbP8aZfp1+QiVWc4N2qegm8G8pQ6TUtLS9hv3/3Cuuutg0WXTrKJh4thhx76cywW9mbBtRp8HZLprOVfjdOEDULPYcPQj3Ed9Sth0802DRvjxBgXTVtx/R1Np06sJF8UM4ON/LkYSJILZ1zwlFC+LzFYRMOJ3uOPPy5cd+11svB5zNHHxDDUuFLmJvzufQvt4TDI5T2yALkTNiEQ41r5L/O3opRpaQljGWM5SvwpY2bYLo448ojw73/9W07A7YKrM3vhalIxxkbBsoxiAE8WMtjqX+bfAfLL7wTyXU1AG5yI75CT9/w/nh++9jUsEOFqVI5TLrvsUpymujmcc+658u25IRh3sq6prA3zB84sE4tFA9vyf/RRbPTF7/ntt99OxvI8bcyrLU/77Wlogw+G4489Ppzzh3MQqQkbA9YNq0Hv0PD7bPryavJnHshLF6csQxYMi59YaOfV5Wx0PPX26ivDtLtC2rzWkuFq2tBXbyhXSHKBkGNr5m9GsqBbkkf+FpRs5SADv8F46y23hCew4Ef547cduSDOa8x5rapxWr6aT1Eny7Rh/oiR8sVtBLi6VwtGTykg7EgX7c+Sq83/diyEyTslb8Vkt8aBW4iirMbSTv7ICmbLDLa9f/PSrMxVpJnKYIlbMrOSP+Mi7aL+nj+BnTX9a69C35Ljr/JcyKqJaDv5d/nz9uf6x/Uv9EBUBXNj/4MPOrBP0e5BO4ukEa3vIEOSAxuEMDB3RTXxkcQi2GG35RZbYkDfCXeevxHuxZ3z/JHdAzvseEyfJ6VaBg+W70pI/kSXWSvKkjrzUKP5Cw2eaa3T5I7r57GoJZEw0uWPiLEff4wfmXo9ANPiZBtLRkVGlc9797lDbCh+zPFu8nUxOOXVCrn+xs84LIyZav6Fr7IhH14vtBB2XMpuWgxaOHh/5LFHce1M/zAE9bVxDCcFWFapJ+sq0NXgJxm0z198Cu+G+McC6mQjI2j9SUl0ZKflgcvzByiOf5QMk5DCBsm2A1ER2ZEH/cRXnlGIxC+nA1+0C/0hPAfJH9qc6AWpDx6zSf4XXqR/+Noim0v+48eNxWlS6jKaJvm+Dk9Q6SKY+mVcWWA19do/rzfjNybew3U33Bzw+htvhD9gZ+oaa62O+SudSMFcKCbEONFSW3+8J+Aj3xrAC18Pu1D5R7P3D74vE8x8/fxmIr8Fsj4mwTfdbDO+aKTUhB3qbeGeu+6S67G6Yuf2ZgjL718ncIg3J5p4TWxX7DznZB4nOBifUsIroShsMikEPaknOaBfUWipOQsQTb36Z5xYrM9H/lgO/s2u/K3+XHRqWaQJf/RpCn9/hChyelLNW++2hlWX0gk1fUPg4itH4dmeBSupiNZGYxnAWjv6MZRyIcbii0OvVlQODWcJdL6O71JzPWAH5XgNVyRO3KTD/7P3HYCWFUXa/R4555xmwABiBjEgqKgkkTXvv4YVCSYMmNacEHUVXVR0DYBhddewbjCnXVfBhIgBRYIKA4gKkjMMM+//vqqu6upz753wGBiYqTPzTldXV3ed/k519bmnT3ej/0aJKO9Hv8ZeYmctLM99wiqYCcT8an/X3zBV/uN7C8p1N02VbfHO+CjMDOM1yAExfMgvL0NXwXx2mvFa+LZEtbNY2g5k8D6Rf6wrZ2vPXzCNF4hqD1Z/XqveSJbuJTRFlWIa8RIJE5Mcls9CZmgCi7M/oqMVG5e/lXN76bf686WWDHLh6rkU2eswo0WPKex7+gdgvRqWedreWJ4mFy+X2V8/PzbirPdnPuOZsnTr2hjEvwQD869+1T9gIOw78nL5K1/7quxd8tKXvBTV4+z5GzHj44UKH8D+K5YMO/HEE8tTn/pU2aOqJsheZSeAzw+qtsbSdLq3YtWPgEtxcVCFe5YRXi6ZuDpeKnMAiAcH6MSnVOjpI7m/ityLytMKSsWUREG3x/03/Cc/f9g13Hb99J5c+vDYY48tn/vs58pqGDV+5jOfVV7+spfJEpey2gHrj/ZzKzBRvGv1Uf9bZEYdxkAw6Kk+nRJY4QGDZz//2c9ktg5Xetgey4G9+13HymyEof3feMMN5fPYu+Y97zkWz9/XlPtgdvBHPvxh+a1ATaeffnp5huxPx3rrPaXbOfTQQ8srsAQwewn+t4P6Jc4G7QlNgPr5gvw/vvjF8o/Hvkv2DeO+QSeccKLsrcVyOED7lKc+GXbDEYVaHjQ9HQM6HESVuuLmc08kOVrxMiBBtey/6GP4+4IDZ4cddlh53etehzLV3/DF9AN33738EL+Bzj/vvLIZZkGrPSGzXPro9ZMjNlmVDu3voyecgP4YbQCD0ZxxxvrviN8ZtGcOMv4HBiTf/e53y0xNLqXMDwft0s3/8iIW3Mp7PdDPKKQ50Mdl8973vveXM4ATB63ff9z7yj132RmD2qfKDLcvY6m2VTC49p73vBcfJq6N9obZZPWw+rN81oX6Ob+D7p/+X/6EHuhHMmej/uhHP5b79/nPf74ciwE+7nW2Jwbj98EAIw+5/1LqaH6mj9fPhFI+/ZnPYLnGz8h+05wtzX3q+EESlxBcZ+118bHmybIEHAdXZIk4Xi4LlROJpdePC4Kfu6F88pOfwsdJ7xb7YX3efswxMuOQ94I1Ycn8PdmUafunDVC/2CTboUhT9lYsXfcLDKwdKQNc3Bv2ne96Z7nPfe7DwnA0/Oej8zzl5JPlYwfO6tsIHyUdf/z78SGVflzFwY+HPuRhhQPbql+vaL/99y9vfctbBAspUlKRxt9Oi2h/vFbOvPvhj38ks9L4YRT3uPrghz4kgzVa4RksvbobZsPdUFWyojOyx+wxx7xdNBEN8eED/MV3o91pO0U92eYguyNs9fgPHg/b1Ocfzoq9/PLL0AZ/LIO5O90Nqx9QktVbwt9/kNTrE6KUE7FU6E143t4Kz/JcCYEHl3tkH/NKrObAZSO5nDj7P/ZJ3JNNDkIG1SP66+WoEGuhB22B7f3rmOW8AQZl2a7ZBrgE4qvQp56B5Uhfjxl/H0B9t8d+b/wYl3+T7J9bpMrzHGcJy70TEKo208vZohthb7Ovo7+cj6UWTy5ve9vR2IPz6/LhBP2b2V8FcZCfRav/Y3pr/xCr9df2jxRxvTzxaPo1rryh/6vcKq/Xrzlxxn9yFqd/BH8Wehv0S3bPn/oT/0Xbf9pfbahL6H+lfcvJWpr5LQtj+832l+0v2588F03of9P/NP+zqj40CCTqXdynOCH84H9ULnDtIYfPVPx9Iw1QaMuFn7B8kgGPXyVybfMLLpgnXzU+EstqML88kFEln3jlmYgRzc8HLiuJanm1/IF2FqbsM0W+MoT41VdfSxVSlMjJgx4ZyIEC+PJ1r732kllap/30p3hAvxUveh8iywfIxbFsXqccTT9/aAjXkqqEosaCp7BZ79d1WQv5YaDXyK9BuWTCr355BnLgZS6W2uDLba4XLw+RVQXr4EW7WidEm6dX3Roo1/I3/OWScFk1V62/ZwXbywNh+SXd1TohbJf3Qkgo1/KnfsXdcEj8q9XcmewPN4f3xe0ZhNmvmLabvRPCdnmJ2Um5lt/uu4VLev+5lIv5H74MOfus3+qyr6bGQopZmxbeqP7Nt9ii/Oz0n8vSOd8/+RS8QDpWvvr90PEfKi/BF8+SHdnm33KTlgq6XT/qDP/LF2s6c8IUYy+opz3NIz/4wQ8EwyOxVBH3JTOk+IKZG2nPmzevrArfO6z/q/Ayk/vS8COES7Es2j/gR/za+DqWe1/wZdNN+KL+LW96i1zjT7F01/l/OL+85S1vxr2awYu3H5c5c+b4NSgxWn/Wb2nxt/pLmVYZr1XU1NSzj6sdVcBv+bZ/XjKvipd29XUY1MBA0vZbyA3W+26XD5a9dmBDmFR/thIky58UXPOTRyXsK7E/fFlvbZWjXr7kvJkDYAhXt/nmtf3P3bIU/rFEvD8vZ55XyjabT5fDD7T2KBdTLrsay9z8FINdfpH1GpDz5/go+rgvIjOU/fVKLMeGQbPnvGcBBtKmy1P3pqXMlFPOwCDajavIjLS/XD5T/vPk6fKbeTPlmutmyiWIs0JSB70U5DD9YCBZE52gVJOXmJ20FMvP+i+V/TED7oTll1JdrRPC9us11YFr+ZdaP8tAwZZforhXMuxYFZ6BGTRrYTDJlj0UtTjJM56gIk8yQpn+k7CcEpdU3ARL7K2OF3LEdAvMij8SA13nnHOOLJl9JZZVa0tdTYkfeNaznuX4f/RjH8WMs23K4Ycfjv2OtjO1eGH9x/I57FW1HmbO2l2x6//jRX8sb33bW8o111wrHwNwSe4XQOfqGHjnIBsHKn6ND7DoU6joInwkcB1k3yQ+Z0aWZJTf5KJt+eBPrHTYl/r5p8dtuf+cgfl///d/5V1YqvYczOy5B5Yke+5zjyhPetKT8ZU/9puECg5wcUCU/v9KzJbxG1H18yUybzIHVPTlMpYlxTK7J338E9hv5uMYDFql7Lvv/uVV//CKcq9ddhV70BNKgv5zzj27vAczo7717W/K0nnPOeQQ7C30YhmopH7Wj/q33hJLiSHCdmz3dwMMqo6rv7RaiEn3CWmzPwvPPfd35bjj/ql87Stfk8G2Zxz59HLUy47qBms4cLPlVtu08lEe9XOWNQ/OXuaHJddhGbnhcc1VV8tA0npYSpTLvPNlOAccD4PN8rD+bw0s//joRz1aBuQMR6+P1HWM/wFfW5aGLl8vgoPAdhhSrDf3ZeJylJein+XMERkMqf7X5Plinq71FgyaXYOPB639MJ0f0nCAjXeA+wFdfPHFMhuMH/l96UtflhnmlHvMY1if/8ByZgeW8/Fb7mIMgnKWzeL9Hwctat3kRlGT1p+6OBiyJQYWODOeUlxF4+l/93dY6vnq8k/Hvbd86ctf9oEwpvOw/HbfLTT87fefCPOEbJdgv1HOWH/Vq14lM0q/AJ/yFZR90QUXoW+6FbN37l9e8pIXy2B7zeLZG7F0+ul7OKB3MgYVtsV+YX+D5Vyf97znyb5MLJO/jddcXZeyu/xKtsF2UBNnsfHg4D7bGyty2WWXl0+g/X38pI9LnLPLXoXZsm0QDOx6/zlb8cMf+XD5t3/7rAzOPO0pTy2vfd1rsfy2LsMISenTt8aqKFw9wPClbi4Nyt/P/YEUlC3tj2RtOxYS/0suuaR8DLOzuMwlr/tJT3qiDNp4f8J8qMdW+GBUdFoZ4HJ/Q/olLmHK2arXYPC8vdzjlWDWOZbt5UdSm2M1FrY/flzFZ5DnHnGE+ymr/3777oeBsB/J/nYz+JiWe0bSFsx+pG7ISx65rf6UGD223FLbICV5WL13xWo3m2NvtktRd87i4nLgtHk/QHsUhOtHQXym4gfDUf9ll11azj3nXPCnMbPtM2V3DKrz4OoQ//6Ff8fHaBgUQxucd/4FMhBm1zHJ/nkt0sdQEFfi+hG7AjZ2BfaN4yAYV3HgwY+ZH73PPjKI+3oMgHFwjANhVgvLb3otnKSflZf6C3D64dKULVevl4SyneAliDz7LgVZk/kBwt3ufne/fq0O8uE/IVys/lqwXT+jTW3TrwhJ6uAktej0E9slrj9LozxOWhLirtYJ0enpErOTci2/6bVwWdWf2lK/YR7DxJ9opP1p+7V2Z2G2v+o16vOHtxyw3Z+AMPuRdHd7Tgjb5b0QEsq1/Ia7hYl/RS3xX+zzl3yiFI2MD7X6A6xx1SSrYZqVBYM0SXvYEwMEU3/M8oy8jMtTQsEGvxvKJtun40tSbiy7+eZcOhACeM4epx8/nWpZUAr9/MHAH/N7YkaCHCiea4B/C2t187CHEXkaEoaweRXCYl4+lPPH4gIuB6PJkpEyvPJr8YB9Fpbi4Mbxl192BR6a8bKGXzuG+vNaKcv/u++2m3yNKTrA5Rek3/mf75SdsZ/FNvhqk8dfsVQZlzQQHTiZXgspM67+WmYtOeinPA/L3/BXvp6pSCWkBJxUR5Ox/OSkfuJZsa4QaazyEn+3J7Mgs5+7hP3J3eW9bIddPznLw/5jAz71tJ/Kj+cXHnmkX6BeLfwUCdrf4OCSQfRlnHm6zbbbSnPnC0v+QP4z9g05+ui3yY/XF7/kJXgxzSVNZmT5JivG6s8fwKw/lxHjcjN2UKO1Cb5M/h5mfa2Ll5P3x8siHpYfbzzlx7K8qLGvX9mWqmE87OEPx0vWK8q8C+eVCy+4QL4I3hhfx8+dO0demND/82ULXwTw0XItfGFOXy/64X/luDO0P9bYK93I5W//ahu8js99D7Ol0LvvOqfhL6k41R5Z8cQ5VKWzfy2N8qwvYwiB/xqYvcU/8v6Ed3Ob1+URpf4QuwIDWRSV1eiQ2+6/lIATbexivFe/+K/Yvwb7fSHqB9M4s3D+rdOwVWVLPpYDyU3xfvpR94dNQDf3IfvTXxeWfRCnuW2zqcqsg6Ui18YH2vyonrPmuPoS4zfdWgd5almmdKjfbN3So/7Y/1u65V/a++/yVhDC5eF/7Pp5GayrPK8B68uxV9c3v/XNsjv28tOluphICRzMJBntZ4jfZnkRLzJygnyt6A47zpV9i86fdz5erv8Og/06e7/Tj8hCfDD039ifcA6+rufePRF/Lh/L5flkn9WqxPKvv/46Za+H7yU+iAPn3LuJz4jcn2yzzTcDtrz/8CzwJfLCEfn54nQaM1pYBn2P2HrVWIvv9C/L+2/l2/UzzvsvCONa9Vo07jY5C//3rW9/q7wRe3rdjMHJQ59zaHn2c56N/drmmHqp+xpYym5TPIdT/5nYW40zQOzg9fzyV78EdtNYcm19GTy7FffoXZiZ8J+YebQzZlkdetih5YD99sesoLinEkuYKdwrji/cWe6BBzwO+g8pD8bHD6vUPsLqf89ddiknfQIv9NGP0LjkviNxgw02NBNCGrjVnqStoH3bx2uVLclcavgNmNH189NPL/sesH/hwBuXJ1sNTlHK5aXhmDN3bvnExz+OYlluLR4SqnOqzJkzp5yGJdB+/4ffayIzQdEt828pf8SeY8RhzvY7yMAZl+Nkv7Xm6qtTqh5aLmcocnVPVi3qpxDYfkidIMFy5P4jUX+h1Fy4zksxAPmZf/20DBAf/PiDZbCIBeCyePbyeG2iTRNUL4rhvkFcepnL47EtPhL/7LgSSytfJgMu02h/czE4fDlmc16GgZVddRAs4H/PnXeW9nkFBmOuwoeJVY2HWibrrzVkDWhg4l/Irkot/JdPf7p8/3vfLy9+8ZHlcY87qKZixh1exM/dcU5Zb531ym8wmDQ8LP+S6Ie5iI2//OWvkJf+d8OSrJzR9hI8Gz3pyU/GzPzf4IOcG2VPJ65cwoPXfVvaH+vPPV5fhZl6/P23P+zxuUc8F7OwHijl24l+aQP8Nl4dM/jOxhJ0dpj+M/hBJfDnR0NrY8Y9ZyEei5mOX8SAJO/FYWhXBxz4OPmowPLK1UP/nzEIxvbwrW98E6sD7FaOwJ6M++67rwxsN1kMdGMpvY9+9GN1KwO9dbzl66EzXw9bEcT2J/mk/WkJQ/z/go+duDzjV776VVmOlAPE+z1237ImBmLjwft3wscwwxHLdot5VcTXgb4NMMi8w9y5MjjJPeu4F58OkmoJ8+adJx9dzJmDNoiOnnvh8VGRsyD1wMXXC5umv0GUS0uKiiph9sOotT+3TiSy/WmfSAEt71LMWP5XDEptjQHNJ2B5Ug7YtvojEwvFHz9+FZpZycJJdSBSD4rKMa0yVOGZQF1x1TVo85eUdTCTjsu6xmM91Hk37An2la99BfaMByocdh0qp9dL2vXX2lCv8FRQzt/DIO3HPvpR2evvFS9/ufBEBsL0c9yT7Xe/hy8Mh12/6bVQRcboRwbm4Z+VbfUdwd9kIPmvmMEpOaCA+bilxetey5lpengbtcKFPVl/zeb5GR/Rj7KG/ncAsOe3eluo5d9G/bwm/Hndqv1p2Xr2+lci9Ud0En+zV7EjnCb6H8A2Yv/k4S/tT1Ew/x8tLNufomF+x0LlArfKEARxSvuz3q7iFowp21/wNRUXbXl6vr3aH54M46E/wOQ2Vb10g/rTSps7XyZYw7c+WURdXsuThznyXJo0GMjMH9Q748GdS+j8BTMIOBDGYwqfcmnZOHt54DHm6qXGAABAAElEQVQbLQQH9fNH6yoIp6cxoc1EOaDFJ+AqJ/lFHfNpYVICTtTPpRv5Y/YWzIxYBy9ceUyhXJYnF4kfGfxxx6UXONPhoQ9+CDYT3kT0iwik5Pc6xXHV22CD6FhVLi/GZb82w2bAXC6GiVx2gj9yuGE1L9MuVYqQU8A61l8KVq1Lin8rk/n6+tv1NxmjUr/beuJf7TnYBC0JDcTsZ1Ht3yxKC7lz2d+YhlcvN9T1Drz/9G88FmIJkg9j+Z/tttu+PGaffZSJtkvE+Y9i0WcY/t/5n/8pn/7Uv5TnHHqILFFVM0qe7bfbQdb2p5+lH+ALYe6FyKV04kGf+nt8ccl7y83uw12utN718+adL0sIHYwXVathUI2HQIXTAuxvwdlenK2hXywzlflEovw/7AnB4+en/wKz1L5f/u6ZTy87zdWXTb/4xS/K0578lPKWt7wJ/n2q/OM731l+hOV03owXuETga3iZciXKvjPYHztj9iGGv9Vfqio1jKdWf0EQJwmjiNPLxv7+gplS3zx1puyxM76Y3XqMfhrR2IsY6JfrQu1Q0dj/ro/ukn+s/y9/N1PutxOsRW+xzPT6w5+1Qhuva0o0UWI84WXwD39bykWXzZS37uGVB6H6F+CNMZf4Wmv1VZxnF7wDZpQdfiDz4Gvw67E0G94zHYoZZdzQntV68C6lbL3pVHks3jFedGkpv79oujwG9MEPw9fzGKD7/AarlE3wPm/8Mai/XHDgIdOytD9py9b45YKCroqnYWL1X5b6RzGA/nqT+CzE/UHmnXde+cD7PgBRSZD6Mx/e2ckSlKTlUuv1XohZVm9605vKtliei3sy6bOVJt56yy0ycIC7JYPczNsfWv///d/vyiyUI+JX/VX/tddfJ89tnGE2bH/co+XZz362FMl9Cbn89mGHHYEXx5zdw6VeH1LuiS/In4U9FGmwnHXKD5je/KY3S3x1vCjdFR9mSV31kkGHe8LYHdD/iUbor4gjJNXwVwrXQhlE5FL9eiEajkuwHCL3AuISXv/w6n/AzN6/HbwoV2HO8pq7w/YYvF6n/Pu//3t5wfNfIPtSsnTO/PrSf31JluXa8e6c9TNVvoF9xr6A2Qi7YW/Kt77tbeU+u97bLjFoL5hJdT2WtPtQOQN7dB1yyCHlZViK0WYadIKIrIoBiblz5ijb6+OE8Dv8OV6GZGlHQew6vCz/KGahnI4BrGdgj8tXvOLlMmNEC+4vk4Mgc0ynItn0g3rE3nthOcfPy353F2LgiLMTAbnslcNZGuw398QqE1tvtTU+QtkGsx1/jr2t/lv2CNOCpjAAeaPsGbTJJhuXTbB0O/OPP4Kt8ebieuQ3Cclw/zlL5gPvfz+ue8ey8z3uiVlg93X/y370UgwY8JB9kCSfgiN6cWL48L33Lp/AoCOXAHzSk54kM9+o75yzz5JBmHXxm4j39Kyzf4vBhfUwO/s82QeNA8d2/VxO8E+YxbUjlplbl4MkYw9KN/0wHblhvGdy30KeW7GM5a8w4PpfGATfFwMmq8mAIpedXwA/dD4+Try27PGQ1mEsif1rbZt+XjwvYTPMcOOfHbTp7XD/tsOHRHII5qTCPWEMcszPY0n1czDkda95LWb1nC37t774xS/BxwIbayHdeabsAPvaErMif4JlIf+AQbOd7rYj9LE/XFg+hqX4uCfWDjvsIINSX8egFpcavd/971/edvTRWGr03pCkZ44HZ9wsKJ/61KewLO23sY/iw7B06bvLdmjrnFHTH3iuIQ64hnrLkKzYmVyMVRMVTETMhBDyA9PPYubZt7Bv04N236380z8dV+bMmSMfNgUxJ9l2Ol2uaAYz97APJYzlHMyu4juDB+/xYMn35z//pXCfrpvRr+z98L3xcda6ZRcMpv8Pnoc5OPj4gw7WdwK1DrR1VK9shw9TZa88125EuNdVv7W/+PzD+8/f8Mcd9/4yFwNwO+9yr3K/+9zXmihs+FeydQPV3uPu94S0FsZ8NB4JSQ8Oef9hD1Kh/utg4HADzM48B/uY/+H883Q7B+Ql/gvwfuI3wISzN7ls4uhBbQP9HJHHf7Y/nX1muWbwzmJV2U+Rq+A865nPhN/cDKIsY0r2C73iqivLFlvo+5oltf8R/VWd6xeCzFH8Ox6vWcVksNPev0jttIq1ppATQQrz2jWRFKMSkh45RvXb/bdcs2n/t0U/8xr+vNzUv/T+N/Gfvf2n/WX7S//DHkN7jfS/K6b/HTwJ68tWeT7Afddnif6xocXgIKqM8FqCZOeSG7/Hl0O/x8PrxX+8GANOWEPJH070S9z/hx/l98WPOD34zdUE/Sy7ls+Aa3BfcNGFWHbwR+WHWNf9J/j74Y9+iH0lLqtlNXn7ullVtwu48sqryg9P/oEvN8GMTDWJ9fDl62PxxdyB+MLub/7mb8q9sd76n7Gcxp/wY5j6KSn1BylXPah/e8Dkj8tzyw+wPwC/duRLYs6Y4FOorQZA3XpMqL8lI2xqFo1/yCK5tF5Wu1rPFq3iqd8hAdBKN8QJUosl/otq/9WgBnbl6Cq2LTqQU6BvF/yrTgmWh/5a005/NapTTzsNX97/qrwaLyzXgZ/Qy9NE+kYeoRty/7sllrb545/+WH7wgx/KUjlVhbykOw0ve2/E/jtzd9xRlp66P/beWBdfkXJjafpmO+ifP4eXKmthqcJd8JECPyqI+inHFyrf+sa3ZKmoQw871PXLleF06/yF5XL4YL6E5oB/O6ysCjh/7OP/NH+Q14Mbib8bywatgmXMVsOP8VUwE5e/dlfFxwRcmuUJT3xi4Vf9Lcfya3+8Bi6BdWezf30xhUFDDIJdeuXC8qq/xT4v0sMP8Mf1q6yhb6HJIY5K8v2EWBwqygdAjWF2FcY/t8B7PIwblM98eyFe9IqYpP/+4lLOOHdB2Xqz6bLJesKSRL3zev4LBqS+89OF5eG7Yg+w9i7S5W5EeZyQiHeuwuPZDr0Kxhr+tYpiG0dgkOxxeFe6Oq6Nf+yHV10FdgRz2mrjGew3hn08thbzqycrmeGg/pLUNKqEMHFq+itMljAmtHK1/hQgxf5/WLpLIEHpoYQVf9v1VwVWIK9IWVDJAW3u4/VYLCd1r13v5TJyNbgwsX8ALy/DmFovk8sd/g/2AfvqV79cfgZ/poeWezqWbL1g3jywZsrO99zZKlhlGPBjoZvKO975DvnS/mA8d3nBVeqqy6+UGQDcY3FR7U/NlRfF0RLV/wSUdyj2b6J/4T6Fq06tghezq0h8NcTf+OY3l30e8xjVhKzLC3+r17LQ/5//+UXMFv6rLCH1+IMeL7NdLsesXP7JMliY8XPzLTcDyynZs4v9xLwL5mHQ7FXlIixDecEFF8qebldhphBn5z1oN12W6xjsa8Ql9g7G8m7bYJm+K7CUG5duk3JRJmcScZDoF7/8uezJy1kcRx31UnnRPtR/HQY3KWv3SW7A0uCvWfW+4fzbM3+D/cZ+hutbB4Ngr5B7rTpxXfUauaSarKHmuUhYOxVS7v+B+OBjIywLd/rPT5e9NjmjmUslfuD4D2C5x3Pw4h0vwfEbZi1g8chH7YO+b/3y9rcfU7785S/JAA6XRz/0OYdh5tW8sseD9pBZ29Qk91ZvMKP1CPrBof9FK++aAGIykEi952Bg5R34YER+k8DP/ebMMzFA9gE8A1yGWVUvln6YBR911MswoHI37Ln0SCyJjN9hOJ6Jl9z4ckX2LTvhxBMw0+Y67Jd2Znkf8nP2yQEHHiCD1VzN4u4YPP4TZhQ9E/u3/RmDX/z9wxlyf/u3Tys3wvlzX6RttuNARimHHXoY9oDeEfsJva0ur0eu1atWmJUY8/uHWFOCSweegD2R6AtoFl/FRzDcF5B2+qQnwoHLcTv6P5Yv2FdC9OmJl67Hkus/9SenllN/ehoG3jaXZR6ZP7a/y9FWiD+V3gPPXhz84l6NR774ReW3WP6f7eqd//iPWPIae05vsaUMBPH57G3HHC2z+54Iv7YtBpKugG+M7Y8090xkG+aHR7z3r33NazCbdn185HmVt3/q5+91Dra5SS5N/ZmpAcPqyRK21MnlDt/4xjfJDEtuZ2Dtj9d2LZY65DNlO8xOwAn6OTC3J1YTmDfv/PLPH/wQ9q08D9sgXFU+gmUeufXAmpjN+tSnPRVZpssjH/FIaa//+93/xf5c78Xg7Q2o963l7e94h6wYwyUjdSUDV9DUo4Rh/b391fpZNTfeeCO8E7i3DM698+1vh6+8SFal+e2Zvy3vf//7ZI/LI7GqA5+1WZkTTzpJVod5MGZXn3322arHleklUFfUp8lTMmA7Zy5mxWFAle9MzsBvBO6XxhUcjnju8+SjEc5enDN3RynoePgmtkF+FHIVBq6oX8uqZ1Yd5Lj3D3s+fC/89lgb+xSfKzN++Z6Esj/D6j3c7+xy+Bb2I+KZKoSCiQGjVRmce/1M5JWofmT0vCbHRJUJiZKLv38oPu75m9jxpwUP7f+VZhnKrolgC9WiVdDkWEDQ79cXrwbaqowkBxnT2kIrtylcKv2tIKm7RlN/4l/bEQ0i7S+0kiGZ7U89T/ofs4z0v0CimUOFxdoJorVvGzqW5mZWrP4Hr4r0ICasZKuo0TpApRDVVBEmLY8eWkB3nsHa3dfix+jP5WFhPr5aunU+Hnjl6UQ1sTxu6GoHZwFQedUgbKVVf7xrXF98/kXzZTaZdIbyxg5r2uMBnz9aRVYyt9KU4nkGD98z8nXehlgeZIstthJdYhMoLJhCvRbVz2VG/vD785B7Bnm2xP4lhI7LNPLc9Ehh4PDgSxa+zJ2PJWkux/IhXArjnlgqkcst8gWdvVykrKIyuf5Li39fksW0/oxJeXI/qD31J/5qI9GSlVb7X1HsT/YTRNu7s9g/Z1CccvIpeHF4pbw0OBDL5hx4wAHSJjv8EeGAEJcKVGfBVPW/+2FJqh2wbAk/DODG60980hPEt/7glB/K3gzT8DfPOeQ5kJ8qD8FSYXfHRuKnY8moV2Avib//+2eJn/rCF74gS7c+Al+Kc4lFHlE/p79+65vfLv/2uc+Wp+HH+BabY2pO1S/COHH2LPeEeOQmj9DrtASEWpZdMxPghxG95Zb58mJxI3whvRGW/FE5zahf4d4J7Q9XyX/D+utV82zepHG0XpqHaCxL+8P7q3LOhZj9dPGCstG602W3e06V//fYVcpWuvKcXITrBwFzkC9qpQr1Eu2KVU6ZfKlA9JnW1QmMx+42Xb7784XlsitnymtOmikHPQRL+FwzVU76+kIZfHswBrm21i0mJLfpvxKzuE78GmdrLSyHP27Vska3/KHaydkXzJR115oqG8skg8n3HxbkLyOuwntE7ou2JQbo1lzdagPVUNxivAqNLUv8pYLdqWk0ttU/6mf/L889flXWTjSX5plcf5aldmhaLFwy/fo8pnmYg3uwfBVLLPF55fzz58lX7tzTRUvry+Rsd876pDuKB5dVfcpTnyKzijhT6PmX/qXMmTOn/OG88+XF5XV4wftGLNG1uq17WTOz9CuwFOP7sKcT91469j3vhZ3CUKFda6n6OeDPfa02xHJ5i6o/pXlwgOXqa67GANyFWN4NMyZo1IIayhX8RazWcfniz/stf/KhlV1LX3+5WqkCJRd//zlDiBj87LSf1X2DkEfqzUJ482bKuzBD5FnoB+5xj3vILIAPffCDMqPiP//zvwUvLI6AWSjbl+c/7wUyG4XPshddeBFyLsTSVK/By/XXSjk44eB1cYQXMzjwAdiFkOOL9huu53Jz90PaqP6nYCYwX1Svj5lHzG2H0pPrDxVUY0BZNiz5dzH6Miyjdt0N5X748EMKrb8RTP9BBx2Eeh8ry7Qzo1pFXxSL5hJrx7z9HZhx8xb0pZ8pn8TMGnZcq2GUfVvMHnrHO45xvU+D3fMl/ec++2/lRS96UXnZaq+QFSdWweyRBz7ggbLfHWeE8Vis/8GXAK3/Yw67QiU/+pGPlmcf8myZabY7Btg2RbkcfFxvvQ3K/vvvV1728qOYSQ4ORvBjGBlYYqVw7ILfIVyq76STTizHvfe4cvwHjpe+mO3y/rhPL3rRSwS2LbfcohyBZfw4GHMabGiPhzxYlmi7AXt5cbnHh2GW5Yuw9yhnpPCgDqbdgkGriKaqxewk3n+moB0Of//shplDr3nNq8unPvFJ2MM7sSfYcXJ/r4ftbLzxhlhO8HlY7hkD1Uth/7wmHqbfcFws/p5nsv2xrCXxv5yZymUM+az3COyJPWx/vLonY1nGD37weHkGeuHzni8zirgM5GMf+1gkT2OQan7ZdJPNZMBnzz33lOX6+VEBy3rt616Pv9dJPbWm2v442Hg2Zvhx7zUOPDHtwMcdOFb/AzGz8yNYEs9nxC1h/fHzVlXynviBvTixLCIH4Hkc9PiDABUFKdTa/33vd//yzx/6Zxm0MevW+8RcWizlifIb3/iGwoGl/8Pg2rf3fLi0S75X2Az7UL7iFa+qv/tLoQ29/vWvE3/yoQ99qHz4w/8sz6UsY8cddyqHHn5YuRsGhZf0/ot/gbReu1yWkkjgEoLPfvbfY5DzpzLIzRmG3LONSzTuhzZ4FGa/2jF//nwMyt2ksxzhj8fqB5jkcxYSD8ViRpbvfeGRL5TlLflh2wEHHIjBqnXqQPOMDMY/HzYzd84cycf9OW/A8p5cClc/MLCytB48U8+45w8+g5/w0Y+V12DJwS9ixi+Xvl17rXWwJ/vlWJJyvbLvfvuWV+J3g5bIerC04WF3s/FVSvUzr+kXCYhrje06NZ/mae0vviNSvdTfDsWUfRrs30vU9HH6xbnU7HbFfXksRfXXm67SIkzJ21b/JdGvV6B4OTqpH1Ak/ml/2f5ui/9N/9O8/ST/n/639b8rcv+D0Rw1ATcJs4jKZ+U1zSUCHpbG5wMDTN3zlhhgesy+j8Wgz6qyMTGXw+KyC3yYaQ+Xmo8FLsSyWnItY/U7kxnK7g/aXf56btNPmYWY2s+vzTjopOXi+vGf+rlp8B/wg/WBuz0QD3drU1yuicsB3HorH6J4WOlax1uxPOKV+AKLe/BwTwmVwCAX+Pw6bQbXzwdL+/HKr+u4bjl/BG+PL9q223Z7efu44Fa8mMELJ74AXh1fspkeR9fUDvQ76FRchftuINafFW1yEuEPEbIn4F+LDPmsALvHLpH6KxSJv9kGjfKuYX+6UQdvoNmz2rnFWru5/e2f+0bwB/4lf7kUg+ubyaDVC57/Qhmo5xi6XqNivDW+un/6059ett6mLcFq9sd9FN6BF4nHve84WZbpv/77v/ASedVyEza9nzt3bjkCezM8BS9aeGyy8abl9a97Q3n3se/G3ien4Svjnxa6Xt69h+AlF39Qiw4HAkvQ4WvhL33pS+WDeLHwALwwOeTQ5+BLZO411lBkCdzf7GrI7rDDnOBHqBWSwf9w2Vj+1ucekf/2r5+R5W1e+MIXyJ4V/KpXbg1elOk9MRvzO+RKrf7UQB0tDtnu4nr94/ofL93zGTGqn1VRfXhZSVKOO06/KbX6nvKbUt7zuQVlsw2ncM9L+e4vZsrzDtI+yq7N8J+DGVh/s+d02XCdetkVKK+HVRt8Lj+s/6BpJpQH4fvtWMqz91+1fP67C8vJv1hQTvkl6g9gmGfvB06Xpzx8qqwnM7qoR9PO+WMpn/hGKaf+dqa84AkYsLuHpvGGmv6bMGHhv344UzbZgDO4mG5pJiEssZ+F0HftDaX8xyml/PSsBdhjZKq87MnTZYctIOv1QH4aW7C/23r/7WINf16l2kO4VtevaeP1Q6hWy2vn+YwIZYoenKrwbddfrw0F8sMlLmH3+c99vuy99yMwIPbl8jjs57QVlnxTdX6FZVW8LD/44MdjmTeOdBq/2f9b33o0Zm3NL98/5eTy0pcehReD62FZs+uwV+o2GJA/tPz9s/6+y8cyLsbsow8ef3w5+funlCMxiPDoRz+KF4ej1Z+zFk7DLLMd5s6R57VF1X8+9HPp66985avwL6dhltBZslcNZ+P7/eegmAyMUUs9DHY3oKbfREx4Ufo9u2RCoUthfyzXrotXptfmV+gXuzj9vCN7YEnvLTBj2J772BS0JKQKEDPl3vfeVXmIP+Ppzyhz58zFjOFvYJbItXL1XMrwgP0PKA/a40ES50dhhx1+KEq3ayOb2njZeMan70bIQZW5c+fKLJhF6d99t93Rn9QZxEuBP5ckO/zwI8qDH8yl0pr9bbf99uXv/vbvpKJaHNJwPayu1Z+zQtZEH8Z8FHR0x+h/PAYPNsWHGt/73vdkVQgOAHMQjCtGPADL0umBj+LQ577yla+UJerO/PWZmEX1J5mxw+Xu9sXMSn4EJ/pFmWkcr58DzHsAb9bv7vJhisnL5ZbtsNw6Z5l8/atfK+dhubQbMMC8KV7E32fX+8geVGutob9reG0H4KX8FptvgfRNMXiNn3xyTJUXHvkCzBTcqZz641OxL9hfZaWK7bCU8kEHPa7c/R47udwjHrE3ln7fqnz5K18pF2NfNA6qccnTuRhY+JuDdTaS4X/w4x9fdtxpbtl7r0fIQJkWgjpW++eyzPs8CjPnMENwc1lira//S1/8Usywuz9mhX1PVvjgABIHGPbATJq98ZEO97KzY9T+7D4CK7+PlG76zQ7EOKSgXn/LZwWEMk1xvRVLqn+nHeeWwzETlbN4zP4Er9r+2Fa4b5ddDpfaPP7495f/wkA0936dDz+2Pva+ejhmRXFgjL8/tQ0e0ewWFy5XjLKs/TGRe8VujvvO5z8uLTlJ/5y53GMLU7it2k4suv73xMzew1A32qpnheKNN9q4PPGJT5DnQQ5QGO5R//ZY4nHDjdDR43Dr9kKMUP2cyfWRj3xE9rrl3nbEZDPY9N577V32fsReKKG1/ydjYH2zTTcrv8DMqfPOOw82P1W2wnKTe8GOOSuTy6G2Q/VM0s/9Dw/H4NlDsb+gH1WY7wJOPPEk9JVfxQD4H7BU8/Vl8003L7veZ1fsl3iALDOreWawhOxuwOlwtLG10G/iIcxr3PTvtdfDZVbe7rvTz/b15zKnx2Fg+Ktf+xo+4j2nXHvtNbi3a2KG4Bboiw+WvdYtxx641sMPPbzsjGV+14A+Kau2P7kP0H1/DEIehnrda9dd5BJj/R+1zz6Ygfmx8k0svclB1Jsx65MfGN/rXvfCIPv+WIJRB72X1P5H9IsynnjFtf61H/ZqO9Hsj/jEgwPx7TD7RyiO3msEEeiI9Xf9zF31W0EaDXzqd6ZK1aJve/1Z3KL1t74p1Cf1y31I/K1tqB01PGAgnckiMkv7T/szjLP9SaPjKf2PQNHaG6Pt+UMAyvbndiLO6M7uf/DFEG+Z3Mhw5eG2xhuskn7ubrZzZRNmvrTg8jd8aL8JD1LX4cFto402wUMoW9GU/MjmwJJ9Hccv1/glJx+qeTSt2KsCD2Trr7t+efhee0qan8bovxVfXl0qX4NeX0499VR5eHsAZmJRK8VvwT5dn8Wa/xusv2HZD183rY2lwHhwCYFvfvNbssTJdttuJ1DIS1l8XbQAX+hynwS+rOGPwrvd7e6S58J5F5Rv/893ZECL9RQdFU6rF0N+4DuNBz35ESAPfFNYeugamXmx3377SVl6ddXDgBPr3ze4Ks5gTP3HsU1Mw3gOZQ0KS/2GekMioiW0ATtIGLItHpE3Xsvac5rWRjXZSvVZPHnItriG8exZQJiU8prWRkVpofssnjxkW1zDePYsIExKeU1ro6K00H0WTx6yLc7w9F+dU7bYbKOy7dabW39e85mURpvWRrkCI/osxh3UpNVMxfV8BZYc4f5Xv/n1b8rx+BJ4bawD9wG8CP7JT36Cl89b4WXafWTQaq211pAXbNNcKw4lyz84FP445ZIw+x94IF4wb+1fHHNJkwsuvECWZdoGG3nviJdo3BB+DbyUjPovuuiP5UwsIcUfujy2wizbXfBDl/tPcNYZ9fDh+WzsEfKe9/6TzFo7GF/2HvWyo2T/H37dzB//05i1wY8B6L8/+clPykvXE/GVOZfwsUP1Gg4z5WMfO6H84z++S17QcH+LRz/60eWR+FJ6c7zYsOPt73h7+eEPfoQXH1/FldjDqKXW0ApeDNvENIznmNGklNfueqNMercjbi277jRV/uXVGK1sLtuSK84e9XjU3GujbM9pWhvVSqwUsvwOt++Yzywsa605Vd7wjKnyVyw7+L7/WCCzo7bZDHtXYr+s9deZwswroIhrXYX9EC6ag0hc4oqDR5tjcs2+u82UDXxPL7W0W+ZPlZ+chcFTvKu6J8Zfu/cOvOKFpZyNwa0LLi1YirEtmXj3bWbKlhs1YG7E4BaXa/z8d7Fk4xULy8v+dtWy/+6YbbEa9go7c6bMX6BLOF6J9+4nn7Gw/OjXM+UZ+02XIx+P+16vt5Wmdb/0qlKO/tTC8rOz8KJ04+my1/2nyqPwd+85nBGmt4V7hL32xIXlyY+cLk98mCEc70LFUYLZ4X9b7v/usKMH3HO6nPhKbdvRmNpdb1S82jGX7Ml9TazeFo7WfwH2Y/sCnomOxdKkr8YskcfgZeuXvvTf5eMnfQIvrNcp97r3veEftsJsk3WwZCn2ZeU/GhPsh8+38+djEHL+zVg2b7fy0Ic9TCz56quugn85E8tZzcMSTlfiY6Bty7bbbV/uhcGAtdZex62dL7q/8Y1vYA+Z9+Jl/o3l+c9/PmacPk2WVj3rt2dj5gNmFcAf3YSv6f8Xz1pf/sqXsdTbUeV5GLAXrzA0DKDAF858Qf+rX/4K+7fsXB6CPWYeBf+yF16a6odR+mrrIPjOB+KauYyboWMgNtQbZWkeDoGuCUO2xSPyxvOyHJGCr/lvKWeee37ZaYety8YbcolcqWkTNWq0EEkZsi2uYTxbQQxNSnnEkLO4iNRa66wjH7FFaaH7LJ48ZFtcw3j2LCBMSnkN9UZFaaH7LJ48ZFtcw3j2LCBMSnlNa6O4b+ENWGqNd2NtYDLJ/ljSDOyaA0ayJ/Bqq0HWNMxev15ZOKMoXh1nftyMj164/CT3eutrYnotHNXP9n89XuJzxrkOFPOum9U1ipq5POHN+NqCcpwVKhULl0RyafVr9j7XAnzEeOMNN6Ew9G3AenQ/qzGKtKBlor/VulG1+Bb0l+z8IdviGsazZwFhUsozrbK0H+7POpiV0w/gjGTxwvqSWslR81CmSfX6yTdLcAVGjBYiKUO2xTWMZyuIoUkpr2ltlErNwC5uwAerC2Sgic+fw8NK4qsNzobkg89asNeo2WRa3p7TtDaqyVaqZuHvera/W/BMzplaHBCP3ZKVrGE8xxJNSnlNa6NMmu84OOOLy/lySdbh0ZfUkI2ahzJNquln537TTTeUm6GP9sclhbtjtBBJHrItrmE7X3jBBZiRelItcqYcfTT7YT1arRtlaR5awZXBvUl5MAdXwNhxxx1rXN1U06z9f7xH4+pP//6zX55T1t9g3XKPubr0qxRop4H+SWwTm41+rc0d3/831Btl9fPQKuYMJYZsi2f9aYcRhQicoWQYmtdN/A2JiJbQPWSePGRbXMN49iwgTEp5DfVGRWmh+yyePGRbXMN49iwgTEp5TWujorTQfRZPHrItrmE8exYQJqW8prVRUVroPosnD9kW1zCePQsIk1Je09qoKC10n8WTh2yLaxjPngWESSmvaW1UlBa6z+LJQ7bFNYxnzwLCpJTXtDYqSgvdZ/HkIdviGsazZwFhUsprWhsVpYXus3jykG1xDePZs4AwKeU1rY2K0kL3WTx5yLa4hvHsWYo82egATfzxA4fNNxzypGCPC6EAK1mSEJE4IpXPdeW32YbLFilvTXyVtuYa/AqqHXyR+oNTTinzb+X0fXw9CpnddnuACwz1T9UFrUVF1aPXh4jEVRe/POZGufwBtcEGG5S5c+aqGEqGBGYt/EzWQ+dyYjYIxvqvi6U97nu/+5Zf/eJX5efY8JqjVjKYhcLpiNfEi+R7Y/PobThIVvUTIj74PgSb93JPH+OrJgrhj0JcP4LlKQfnImu2C4HTssafevRQ/bwNPDSIZ+WnfmADkGKTG9qf3EsgKLdeTgYoMSYNXCu/wg0m0/AQWxkR+SYDEYil/jsGf/qaepvU+HmXlgP+3J/rjDN+XY455uiyK/wKbeTYY48tP8Ym6ZzR9etfnSHL2fAr3oW4QG6KTVuiO+FYOr/63QlfZD90z4fK19ocvJqzw5wyZ84cqQ9nqOoyisygVdVAz9vhxTT/+LKA9Z+Gjxra/034aODTn/60zML4IL5Q3mefx8hm7QTwZMz2eB2WT5E8iPMat95qm/LGN7wxDILJhY7YPz9M4Ey4A/EimpvGT+Mr9VH9dtn14utdQ4lSf6mTJFEHmYhIaPlYZ6Yt+/YnN4EXsJz08/5b/c84f6b8FfuBfeQVWKoLE3S2QTf74ZeugoGnheU76MZOxUDTtTdhsOkWjFrh4DKK3YE67LHLKmXv+2HADHjZT276Pw5UPeK+BqsqlXPVz7HZXbbH0jzoEtHby32R8VoFBmogiHLmXYKZYFgycZtNp8s/H7Vq2QQfFNcuUQazruLEE94+vDxeuHC67P2AqXLIY8ASfOWkZUHI9K+PGW2PxMyzxz1squyDa8e7J+z5pOXgrAfjyGAlaBjPKkb7Xy7+l40ZF7jc9Gv15aOk75/yA1k2i/uh8iX3IX//bNlvhUumno7noV9gf5rrsNTcLfBDt2I2u8w64P3AxbMWfH5bH0sncSCM8Q2xxNKeez4MS6dxYIxLSHOwrx16F4oMxL8BPmPjTTYpJ30c+6jcQz+e4sv2E7F3EZdmUqtkGavgGh+HfYKeIvdLS6ONgQrtnx8NPOUpT5Flq/Z77H5lLTyj6TKLvX57Ilve+I/q1zopRoaUVFKrqmQ1bJWN9bccAsws/d90mcbAik4bpboK8h2m/874/MWX7uvAxt3/Gi5yP4B6vS/Efwr2zr12tK8QweqH9O60ewQR5Jut/2E5a2L5Rpndpjeq6qFOMJbg/rNdcVn5Yf+vBdmVauW4isUaq2FWlrFFB1SF9udJS6h/XP1Xwf59aX/cJ3Ptgh2lAbfeXLkLeivqPUBE4kC98pcF/nfG9qcVxiA0BmWWxP5okmtxRlQFRIN4ZhsBbMBttu2PoLNE9plrYoaW6ZKCeUOWoP0trX7ub7n++ng4k4M6QCzj9mf3X+xPIKSSqkr0UWfl3Cb9fP5BQeizl8T/iKoJ+hVHXpZ9WATB24g/VemhSuWs5DKqPy4R5d0W+7s973+tJCDI+hOLvP9AIe1fm8Uy8X/Z/tP/wZzQf9/W/q+66PAIgoZ6G/s/NXT2gCu4/8eLDNZw9DBn5ymRUW9ZZAU5fXEBhqc7UXm6TxfXzbaDX+pyGUE/QhZu/sx9IfhjTY9F678Se0yshrLWxCwLXxqxmge/0rzkkj+XOXP1ayHXNySCftMZjYJ1vBlfKV917dVls02w5Ih/mRbM2ctwwuv/V8ww4xdWG27IPc3GHCGLpkbGouu/JPi3uozRTVZUJyKRkfoF4wiJw7hk9z/xl6cIR22EGME2MmZvfz/75bmYEbZh2W6bzUdUdoyoThIiY/b6tV0hP4rjxtMbbLShfNnZ6WYkqrsd9C+p/XFpHr7E5h4kLQ++tMVX6H/9yyXFVsxbAy/CufwSL3xZ+J/zzzsPy1BdUh6GPc30iIDcdvxbXWrxwyCqk7TGeOAR8zEjbJXy6VfjB/eIGS+b+i/p/b9lQSnX3ljKRng3pGMNd6z+Jak/Pt4uf7kCgyPovtflCmj+Swozya6CLd3CFyHK3hgy6/DNX4O73pnIWLL7j9Xxys9/V8r2m8/IzLh2G2NZtfhhMCISGUumv9Uh5BVS45xZeH/s53bSK0e/am957cJCGUhc1v0P99FaFS/E5YMeqozq5BIiY9nqP+usszDLfic8D9E46gF1XGaVy07z4A8FPv/x4yb3MfGSRIqnem1Kil11lZE8mvF0DO7xY6hdsMTeyDFSdmQs2/oPdV+PGWFnnXN+mTtn67LJhliuTI47Tv+IuhHG7Vv/EXUjjNS/rNu/QBxP0dwSfyAQAUn7S/vTD3+W5Pmnsx0xo2hLsdEFekQkMlYM+7vggnk6I0wGwkp53nOfK62Mg3pczlqXOGS9hwd5XIGHMprGD7g+ij3byONqB895ziFlR77jkfSAnZAhPiza4lXkNPxe3GCDdTAjbGukVGXUCzo8xlouhDWNHFfjROWFeMjZkSMikZH6E/+0v2x/8Bjmktx5pP8R30A83GU6kf5XoAh4uN0MiBGRyFjx+p+RkSevLhqY00L0LU5iPEmaSvLMlumS7qnqlxQURyIlOAOAL0/bobm1JCnG9W+KgaZWqOZYlH5u+KqHlsnMVu6aWEpg/CCYSpgc9TkthNdKimZszbWwRje+BNMnIpXX2lX1i6g/173vj6XXL5hItpZ3SfX3uhlrZRi2yrGk0fqnfsOmYZf4L1n7p8X1R8PwdrU/KuXXkyPHHaQfqokQL4F7erTjjtXf9Bo1Xv/mm2PAkEmDg7N8t9th++o2Wt5lZf9zsazJnLq0ibqm/p5JjCdRvez107dpqaaj6efXsstTP2+F6V8dYyibrHfH1j/qXxL8uU0nZ6rxmvVKG5abY18zPWIdwAF7Ev6Ul1w8iVDM2/wPl4N86L0o1Pp/e/5gGf3RyrCyb6v+9qZkvH6W729yam1dJy7CaSHkqvyS7RoXVf/F6ffCQGwgHxm161wW+C+p/l122YVAyOV4nVHB9bH3Ifc/bEC0K14W9d8Ne1O1QzVH/U4Lcfvib5Wkqml7CWgq72D9hu3yqn/qhxEAhMS/+vm0fwBhzkA9lrWRZeX/zdrc5tL+sv2pG6qmcTvYH22aD2RyzJSPnPAx0TUNIySbtijDXVjdh/avcfD5FaG1B5HVV59kc/BMl9NG5kW8f1Gd8czSxz3/oDwWTIccDonxJEktL+VccpnoNx1eqlxF6gcMiX/aX7Y/tIP0P3QGRCH9b/Y/3lMuRf+LT9rVl0qvAkvyQmhS8gAgtlWNzISDlJA41byeIlbpMW2rEFKOmqwVqrFWBrTIkforTgqNgjLAVQFt2Cm+EB3IiU0k/ml/YkXVrrqg2ZAa2orZ/tUAuopXN7Ry1F/9Q9Z/tBks+f3X3+4VQwG05VV80/9m/0MLc2uY+Pwzhbc+aknNhsQ2mTufvxQKhUZpAavhuiI+/4h/QT2nsAebHCtZ/bXSaf/Z/tP+s/0DgfR/9RkBWKxI/R+X6ebzj3TneIHH8S5Wsd5v+j95OuIgGPtDpiHkYJfAUJmyjCPTOQhGHiT1fYcUjDg4mkHKqCAOAlXacjAPM0nBqo8FSTlBSsiW11MGcrPXz4v3S039A1z1hib+YqZqKrTSETtJ+1NQtH2KEXmj0lizIcEPp3z+qjil/0n/b41iBfW/MhAmzqE+VFh9JbQHjshUTxI54dmgNhymDuT0x70xa6jeWUVT/whm9hVUB7ZBGJjNNhN/h2WAU9ofkNFfHCBW9vZXrST9jwAh1pD+15tFtQ7E7Ssj51QZItYcTPpfgyP7H7eUZh7CGtf/yJfLC+sXXNn+YpNSGCe2P0dZseVZnVhLWAL869uxO+fzJ68ff6FFad0G9SIz/Y9i1aE1wGlc+7tT33/e2JXZ/rP+ef/T/ld8/989/6An43OQHXb/B77ckukfeXC/UvpyLIoofaaAVn/bmext8v9Rf6Rr4dn/AgjBJd47Q17D24R/LCrxj2gInfYHGNL+AEK2P28cAz+R/ofmYaDUMN9/irkQjbY0Yn2okBS2J8OKDMRjssjISQUNXmYKWZsYKJExQQjZZusuFBWEQiQL4jHZ81RtVmzqT/yD6TQzSfvL9kdrgKNQf8J24isJq51EBxOMKP0P4En/2/U/4mX1yUqMKvsfbULZ/y5d/2v7XAh66X/MiMTfqKM2f42wNbImtyI//6lR1P5qJax/vd/Z/8IQsv9d+dp/2n/1gGn/K2r732GHOeXotx0t97k7hd9fwh/GXXg0YZSjwtKcapsinkv6/kly1/E1V+uEarNi8/l36Z5/6ydg9QY1FOtjnfCFC5hXuue/CkfWH2aQ9z/tP7gHd7/VUbSk9D/aIzWEjBKMDCgILWn/J1lWgvYnM8IMLHlAYMQBI6whrrF29hFG8VXg29KHVaRmF3uVk0x0l0R2gpbsBYIhvNSvkNjXUYaHA1WJxN8RUVtK++tMxRqYhDxl+2tNKv2PmUdsRMIzI2pguUhHrKT+hxhxNk/7wqb2W2hfBp3gZABLyFO2P4Mk+3/6H/yLBgNwBB/jZftTd2N4aKydA3hqVytO+5OP9fL+r7T3Xyqe9z/vPxFYCf1f2j8QyPYvZrBc7Z8jMNn+9D4Mzyvw85dUNdvf8m9/vIJsf3ofhudsf47Iivb7TyqW/kfv7x3Q/nUgTK1IHI7p1BcyXUwvymQZs2QnAyOmC5un+g1IFfPZ61Ym+DWpvhDqYizR3jgqbcmIKRkYlLCohDylfoeCaBjuFiJR0pEmLP8MxwQsASEPE3YyMGK6sHlK/B0KomGwWohESUda4k+AOjTAwGFYkbZkJwMjpgubJ/wBdFlKgzEry0ImMx+OxB8g3A74C74V5Lss/ngAlVfuZiyEikbj1iORFvVKp/9zKIiWtTsLkag4rkztDzVeqesPQ8j6q8Nw+68faVhjcIACVszh6UYGRkwXNk/pfxwKomF2ZyESJR1pwsr+j1aEwwDqSQcLbMXN0GMeHBaVkKe0P4eCaBisFiJR0pGW9keAOjTAwGFYkbZkJwMjpgubp7Q/h4JoGJYWIlHSkZb2R4CABl5G2u9FcNL+zFaIhRmLk4ER04XNU7Y/h4JoGJYWIlHSkZbtjwB1aICBw7AibclOBkZMFzZPaX8OBdEwLC1EoqQjLe2PAHVogIHDsCJtyU4GRkwXNk9pfw4F0TAsLUSipCPtjrY/HQgz7bx5cgy+rOXlhYs1qSqKwBIj2XhGWch8QpteC5kgR+rvIUn83cR6YKohBcty0gnP2jhpf4KFYWmhNT8g1rMQM/D6hLse/hjEoANeaevvHhaE3UsLV4b7vwzqL7PBrEGIIVnjQOFOOuGsxkn7EyzM7ixc6eyvfzD26sNiekgQM+PpEyrfEtP+HKdGOBVQUp5haaHfgOWN/8K8/34vSKT9uxEPbVWMOli2k0541sbJ/kewMCwtdJtb3u0/9fe3BDEz3j4h+z/BxcCBATvphLMaJ9u/YGG2ZOGE9j/FmRcG3lBW+JaY+DtOjXAqoKQ8w9LCCfhn/5/250Y0tJVsf9HpND/lgDVWtj93MOl/CIW1JQsdnpXv+RMDYfjiJbQQJXtkhAdWEHNaZ2cGeSeNaKDGxcgsNfUn/ml/7oFqu2qtgynZ/gACIFlm/gdlNYSz/WX7W7r2R7ysV8v+j9i11tRI4xlSlGot2FJX5v5f7AinbH9L1/4obZa0Yra/aalfHSbVuqLBWJ1X/Po37+B1zfrn/acx1MPaworZ/tP+7T4zlHud7T/bfzCKO6r9sw+W57O0v7S/5WB/6f/S/2f/h1aQ/jf97+3ofzEQhq5enrv10UKnq9ljhrphS5aw3g6lu1dg4TIjaZLkhVdhUFE1pn4DmAgJKIl/s6D6IhWQpP0RFWs1ilBsXQ2zSEWJbH+CDN+eAEZDMv0fUaloSKC0WlG2P2lBgERbEvCAwVhLiq1L8Rqeo4TlUrgr4tn/GcCAZWXq/1jZqel8/kr/S59RvYEEC8moSzKl/zX3oJ7UvKZAVH2y0uPP6X8bLtn/qPUAERBmSel/aCEVDQmUVrtJ/5P+R81jZfS/M1OYnc2Ko0msjPVnxdP+8/6n/Wf7T//HJ6L6nEQSh2Ki9PhzlMjnb3+yBGFI3hmev3VpRLmD9YZJEG5YuNV24RQf/YrZq2g1rCG+eA4WolrAAVE11tQakyD1N8waSsrTeOLfjEpxaYi5wQkr7S8gU9scODCjZlnEssYkWHHbH2vKHzcra/31Lq+893/Z1J+zeGp7oT3RqNzpBFIS0v8oPgJS9TJpf+ZuZ3TMA+BUe5JgxfW/y6b9obUFo1JyhFGb5F2x/dXHcvExQz9TERyp7gjjLlz/tP92N/P+a89hPWzaP/FYsf1ftv9s/9bql7P/Qx9s90LD9D/pf9L/Zv9j/smeS8xLsHOuaRLeFX9/NJ/nv0u9Wun/eHfT/quNu12Y0TujtoO7hv37QFh/uTD/eKdZZ9h/eyRhvFVc+SHV0iTk1/P1sCz+EtEYxKzRlE79PR6Jf9qftyNtILVRGS4hNdufYjPO/xCmGXN7rY2l/2lYqHn18fQ/1s5q/25tDGBpy8v2p42OgFTbGdf+KJT9v0AlFlOxSv/T+5uV+vlPbKJ+iS2WghOMJXiY1sY0yc8inu1PYFA/lL8/3G6siaX/VfsIvznT/5pxWNPp4+l/0v+6H6GJWB9DUkwmpFqahHdt/6tfq2slQw1XmvrLreUJlc/6Oxp5/62Nq2n4WRCytBWg/fsdT/vP9u/GQHNvz0fqF4N3tLS0fwLV7MYguxP+/tDNCPrL1Z8H9QlgJgyIWT1oD6F6jIafFIzBKES4GUcXrWz5qV8LjeWprAql/grQAOOIFxFvUowl/ml/1Q4Y4NA2pbR5ppWy/RGI2lGtlPWnCaT/lYYw2/tP80n/W41IkMz+Z3b9L8CrD4XRntRX5/MPTWulfP5byHuPrzLhaFbK+vPG5+8PopD3P39/ih2ILTiVzx+xvxxiQ3T6HzyDaH10me3zH/Wl/gpitcnZPf/YferxvLM9/0zXysU65v1fee5/NfHuHVve/7z/ZhcMo2/I/sf8erMR9ekVscrO/tdwunP3f2bn0cZXNP+3Kp8Z28GqxirCVP2TGJptJ6ytv7JaipbB9zsywVKJPid/3KBcydMyQnfqT/yjlaX9ZfszB7Fs/A9Lu/mm+eXKa66Fu6Gt4WWj+Th56aL2R09k/kgcVX0hY9YpXxCLb1NJStfShBJPxhETrsKICWi8ero30cdETkpL/YrHXQ3/qTXL1dfNlG+eRv8kt7HeW7m7cv/JkDTec7n1tDzQsCPefk1r9sdUvvQ2+2J+ytFi5H+1P4lQlqlWtmRmSuqv6ApCd3b8eccWLFwAX3QDbzQNACe1AL33Ggerplmq3X/ahkoye7z/kjP9z13S/95y8628neW662/CPUVHkfc/7b/6f+sf1P9n+0//l/5fnCVO2f+157/s/2EPy+j5hz/z+MRlvtfsjc/f0je3QOTIlJ+G8oxOH+1impW+HA+nUqyclE0dlGws/oawWOqPyAhiib8bllmJ2VDaH6GBgSgQoU3BcrL9pf9J/6ttojkONoyVtv9ZlR2KvICTDpeoEAwepPEn2ChAMYUS7mzdzagc0xRfnElIRpysU7eQgjhSvz3wOFhAhTT+BFLFVWCsKQgSf8AjnZ1gJYg4OkRP8CMhwOFkdmehyKT9rVTtD/Zw9TXXl6vk5bPuFcbnomm3JLxiUuOBYYCLxBl+EijObhhW+0MaUmBecharkmctMz2mQUJlUDiLEZtN/YThrof/juWPl5by+hMWBKvhzzRu+KTGo5agdsEKkqv3XwkZfK1GwvY3DZ/EfcemsH+dSEsGxJEm9uj2Zyq0xGp5kif137Xw57276aYby+/O+3P6n9CSxN5h5iu1/0XzvuTSq8ulM1dl/5P9L9oCDILPF12ozxXkad+ivY40HZDaQzCmcioDLoh8/iA6+fxFI+FjSD7/tiep7H/EZcAw8veP/KRT7ypn9aWKj7jimlY5COhXwplROl6e7L2DhWTjWKl+f7PCWX+i4EfefzyNiE14YwE2pPHHtlPfq0gzqikI9FEo219ExGmiJ/g5pOl/3O+k/xHrsFP6H/gfgFDf0IrHaX6ntiMDa3Fh56S6yGjOkWRRLafUD7j04YvEKHaTOB2mXWQ0x0iyQC+nxJ+wjwA0iuGQ02XpIkNJ7dvJ9dsr0Msp8Scui8FvFNEBpovIf90NN2l2yGh/iLvANwFQyoEIMjn4AEJ4FNYY71ZwlUjn0lUc/mAKhy94iJT8kkacH/O3d/OSrlIgQaT+ithdDP/z/rKG2kp9Qav3X24v7j9ubL3/3IpuSn8tqxGpSLUUtR1h0ShqWSSH9i/J4DPk2W0s9QvWd2X8115jpmy94c1y09P/4E6m/83+J/tf+Hm2BfP4jInXlz5A2fn8kc9f+fyZz9/5+0Of/9RXipdcxr+/Vll1uqy5+ury9D3ppNrFa9uDeo2M5uhkmUyGOPU6GDsiMFrGkNNl6SJDyTGXl/oT/7Q/NsLWFNls6EyW8OiaXBcZLWAkOdtftr9sf2goy6/9TS3EQFjf3qVV1tYbmmxlx1QKaXxCYi2FQvajRVlWCl8s64OciVqJTY4UrnCCCmVPSLRCkZz6I9IVL4AauQ1zswjK8Uj80/46MxCr4EktqdqTmZWnVgL8bH+xpRlQ2f4iKmothg1jpHmk/0n/05mBWAVPai3VZqLpuIQKpf+JLc2ASv8TUVGTMWwYI80j/U/6n84MxCp4UmupNhNNxyVUKP1PbGkGVPqfiIqajGHDGGke6X/S/3RmIFbBk1pLtZloOi6hQul/YkszoNL/RFTUZAwbxkjzSP+T/qczA7EKntRaqs1E03EJFUr/E1uaAZX+J6KiJmPYMEaaR/qf9D+dGYhV8KTWUm0mmo5LqNDi/A8mPyxE9jASB5sbHpPKH8pNinf5GeHhejRVzp2givE8gd0EFkN1+RnhkfoVh2hKHVA1GcEEdhNYDNXlT/wVrbS/ajVqHXLuDKUZ1QR2E1gM1eVnhEfirzhk+xdjEBvpDKXCg2ACuwkshuryM8Ij7U9xSPsTYxAb6QylwoNgArsJLIbq8jPCI+1PcUj7E2MQG+kMpcKDYAK7CSyG6vIzwiPtT3FI+xNjEBvpDKXCg2ACuwkshuryM8Ij7U9xSPsTYxAb6QylwoNgArsJLIbq8jPCI+1PcUj7E2MQG+kMpcKDYAK7CSyG6vIzwiPtT3FI+xNjEBvpDKXCg2ACuwkshuryM8Ij7U9xSPsTYxAb6QylwoNgArsJLIbq8jPCI+1PcUj7E2OoO3HDLjprqRjVQJcKQwQyZke9xORYK5aj3zhogG6Exkj9if/QLmgbeqT91VaHoFIGzWJDymtzy/Yn2KX/MYOotqPWkf7HG8pIm0r/U70OgkqNYDSJQfn0P0Qn/a/YTvpfaxC1yaT/JRDZ/xCEahKDIPuf2usgqNQAoclRymf/Q3yy/xHbyf7HGkRtNNn/EIjsfwhCNYlBkP1P7XUQVGqA0OQo5bP/IT7Z/4jtZP9jDaI2mux/CET2PwShmsQguEP6n9GlEetVyL4tpMdfXXPwg6tmNPYWY7PX3AhsC5WRUlJ/hX4sgALx+JTEP+0vtKaxRpLtTxpX+p/0v2gf45sIjEMSxqam/4WLGY9M9j/Z/2T/4wiMbSTZ/2b/C8PI5498/oAZjHcR+fyRz1/sRcZaRz5/TkQGCexe7RgLX/a/2f/CMLL/zf4XZjDeRWT/m/0vO5Gx1pH970RkkHAX7H+ndVFE3nAcXQVoAF1qEzAfEeWZ3w4ObyK7bT42ImYJkOk0REFsmj5IRbwKaPEeNbUepv7EP+0v2x9dCI7oVpRRExCk/wnoBLKk/4WpdNbRLCn7H3bvYxoWmTiy/83+FwZij3nRrYh9WEL6397DRKDS/9KRDPruClD63/S/dCSxvYhjqafsf7L/yf4n+195SB3jJvL5Qx1lPn/1TxixP8nnL9hIPn9Fk3BPks+f+fxJD9obh/pUnvP58y73/DnlM8J4U/ngYCFv6IRDRSYLjqYMOS3ulBEWTtBNtopMFhxNGXJa3CkjLEz9ExFQiCYDNZoy5LS4CXhVkQAAQABJREFUU0ZYOFF73n+FaDJQoylDTos7ZYSFif9EBBSiyUCNpgw5Le6UERZO1J72rxBNBmo0ZchpcaeMsDDxn4iAQjQZqNGUIafFnTLCwona0/4VoslAjaYMOS3ulBEWJv4TEVCIJgM1mjLktLhTRlg4UXvav0I0GajRlCGnxZ0ywsLEfyICCtFkoEZThpwWd8oICydqT/tXiCYDNZoy5LS4U0ZYmPhPREAhmgzUaMqQ0+JOGWHhRO1p/wrRZKBGU4acFnfKCAsT/4kIKESTgRpNGXJa3CkjLJyoPe1fIZoM1GjKkNPiThlhYeI/EQGFaDJQoylDTos7ZYSFE7Wn/StEk4EaTRlyWtwpIyxM/CcioBBNBmo0ZchpcaeMsHCi9tvH/jEjrB5GcDRTDoaBDqSKTvhaAHmsqFoQgsbRYhAXIsiaSOqvsBGgAHogFarE3yBRwCwWbKoimfZnjcssKttf+h82jtBWzETS/1avQX/SfEok0/8Soux/zDrUYCwW2pQmCFZGqlT63/S/tIhgK+l/tYlk/1NdBT1F8ymRzP6HEGX/Y9ahBmOx4FM0QbAyUqWy/8n+hxYRbCX7H20i2f9UV0FP0XxKJLP/IUTZ/5h1qMFYLPgUTRCsjFSp7H+y/6FFBFvJ/kebSPY/1VXQUzSfEsnbo/+ZtgZZtSNwi+xom03uyZIaLtQTLD+qwX2+5KgbJUoenMDW8iArIiZHYcvPsNGpn9jgMEiENNwYWoKFiX/aX7MPo8Q6EMn2VxuTAGPoVB4DaU/WlvDQ20hJVQnLx3BUIO2v4WNU2h9MBWBk+9MWlP0/cbDWUTFhkP6nYqBYpP8lDjismxHS7IahJVgIq8rnbyKGI39/mKVk/yvmkP2vGAJOYhhmHWwr5j8YNjr9L7HBYZAIabgxtAQL0/9m/9PswyixDkTy+b82JgHG0Kk8BtKerC3l7+/0v2IUzc2KhZjdMGy2UiXz+Tef/6sp5PO/tZTsf2ASAGPY/07hYUWai7kReTA2tNy5mGsZH5obYkFcWtdClzYBZ/REl+wRJ3rhMTGTNL0WuqgJOKMnumSPONELj4mZpOm10EVNwBk90SV7xIleeEzMJE2vhS5qAs7oiS7ZI070wmNiJml6LXRRE3BGT3TJHnGiFx4TM0nTa6GLmoAzeqJL9ogTvfCYmEmaXgtd1ASc0RNdskec6IXHxEzS9FrooibgjJ7okj3iRC88JmaSptdCFzUBZ/REl+wRJ3rhMTGTNL0WuqgJOKMnumSPONELj4mZpOm10EVNwBk90SV7xIleeEzMJE2vhS5qAs7oiS7ZI070wmNiJml6LXRRE3BGT3TJHnGiFx4TM0nTa6GLmoAzeqJL9ogTvfCYmEmaXgtd1ASc0RNdskec6IXHxEzS9FrooibgjJ7okj3iRC88JmaSptdCFzUBZ/REl+wRJ3rhMTGTNL0WuqgJOKMnumSPONELj4mZpOm10EVNwBk90SV7xIleeEzMJE2vhS5qAs7oiS7ZI070wmNiJml6LXRRE3BGT3TJHnGiFx4TM0nTa6GLmoAzeqJL9ogTvfCYmEmaXgtd1ASc0RNdskec6IXHxEzS9FrooibgjJ7okj3iRC88JmaSptdCFzUBZ/REl+wRJ3rhMTGTNL0WuqgJOKMnumSPONELj4mZpOm10EVNwBk90SV7xIleeEzMJE2vhS5qAs7oiS7ZI070wmNiJml6LXRRE3BGT3TJHnGiFx4TM0nTa6GLmoAzeqJL9ogTvfCYmEmaXgtd1ASc0RNdskec6IXHxEzS9FrooibgjJ7okj3iRC88JmaSptdCFzUBZ/REl+wRJ3rhMTGTNL0WuqgJOKMnumSPONELj4mZpOm10EVNwBk90SV7xIleeEzMJE2vhS5qAs7oiS7ZI070wmNiJml6LXRRE3BGT3TJHnGiFx4TM0nTa6GLmoAzeqJL9ogTvfCYmEmaXgtd1ASc0RNdskec6IXHxEzS9FrooibgjJ7okj3iRC88JmaSptdCFzUBZ/REl+wRJ3rhMTGTNL0WuqgJOKMnumSPONELj4mZpOm10EVNwBk90SV7xIleeEzMJE2vhS5qAs7oiS7ZI070wmNiJml6LXRRE3BGT3TJHnGiFx4TM0nTa6GLmoAzeqJL9ogTvfCYmEmaXgtd1ASc0RNdskec6IXHxEzS9FrooibgjJ7okj3iRC88JmaSptdCFzUBZ/REl+wRJ3rhMTGTNL0WuqgJOKMnumSPONELj4mZpOm10EVNwBk90SV7xIleeEzMJE2vhS5qAs7oiS7ZI070wmNiJml6LXRRE3BGT3TJHnGiFx4TM0nTa6GLmoAzeoLJ02T5IBhoHSnrczImw2gSaExY9WT5ZX9J8CzUZMhXAcmJ07AEy0/51C8o4NRQUbwqarzLg8MkDXcLVQzyib9AIcjhNETQ8KNQ2p+ggFNDRfGqqKX9EaDuMKSs3VmoQsAt259AIRaEU7Ukx9DwIyPbn6CAU0NF8aqoZfsjQN1hSFm7s1CFgFu2P4FCLAinakmOoeFHRrY/QQGnhoriVVHL9keAusOQsnZnoQoBt2x/AoVYEE7VkhxDw4+MbH+CAk4NFcWropbtjwB1hyFl7c5CFQJu2f4ECrEgnKolOYaGHxnZ/gQFnBoqildFLdsfAeoOQ8ranYUqBNyy/QkUYkE4VUtyDA0/MrL9CQo4NVQUr4patj8C1B2GlLU7C1UIuGX7EyjEgnCqluQYGn5kZPsTFHBqqCheFbVsfwSoOwwpa3cWqhBwuwu0P5kR1mrFmx2uWsjAQ2qM0SZYaeHFhFZgpRaZGKSDnJNOiFyMpf7EP+0v25/4hOgYgkdRcpGJQTrIOelE+h8gENFI/5v+N/1v+l/xCdExBI+q5CITg3SQc9IJkYux9D/pf9L/pP8RnxAdQ/Ao6X+IwCLBCWgFOSedELkYS/+b/jf9b/pf8QnRMQSPouQiE4N0kHPSifQ/QCCikf43/W/63/S/4hOiYwgeVclFJgbpIOekEyIXYyuS/xkMhA0cLapeh8UCWEYqJBEYSxkXDqUlPiZzZEV6tExNXbRMyzWUlviYzJEV6VaSUZq6aBmTNVybtFAt6oKRFWkXcEJTFy3jwrUDbdJCtagLRlakXcAJTV20jAunfkCh26tqixLcxoAXWZFuSBqlqYuWMdm0vyFaEh8DXmRFuiFplKYuWsZkE/8hWhIfA15kRbohaZSmLlrGZBP/IVoSHwNeZEW6IWmUpi5axmQT/yFaEh8DXmRFuiFplKYuWsZkE/8hWhIfA15kRbohaZSmLlrGZBP/IVoSHwNeZEW6IWmUpi5axmQT/yFaEh8DXmRFuiFplKYuWsZkE/8hWhIfA15kRbohaZSmLlrGZBP/IVoSHwNeZEW6IWmUpi5axmQT/yFaEh8DXmRFuiFplKYuWsZkE/8hWhIfA15kRbohaZSmLlrGZBP/IVoSHwNeZEW6IWmUpi5axmQT/yFaEh8DXmRFuiFplKYuWsZkE/8hWhIfA15kRbohaZSmLlrGZBP/IVoSHwNeZEW6IWmUpi5axmTv/PjL0oi8XFaIRxz4slf2mmYSEBKSqTOdPPPrEWQrR8vSPGTJoIAyRcJyBFYt2za6MwmIp35BMPFP+4vtRRpS15oaR+V41naU7Q84BPDMuwRW+p9qS4qNIWQmpLYU8WrWFmQrU+U0D1lpf8AogGeIBVban9hO9v9qG2YhAEVIbUvRXgSuilmjlVI5zUNOtj+AGMAzdAMr25+YTrY/tQ2zEIAipLalaC8CV8Ws0UqpnOYhJ9sfQAzgGbqBle1PTCfbn9qGWQhAEVLbUrQXgati1milVE7zkJPtDyAG8AzdwMr2J6aT7U9twywEoAipbSnai8BVMWu0UiqnecjJ9gcQA3iGbmBl+xPTyfantmEWAlCE1LYU7UXgqpg1WimV0zzkZPsDiAE8Qzewsv2J6awc7Q8DYWoCbgBmEZVPa9E0l3AD6ochDDBtZp69gmnxGV2EVJqiJKV+gcHRTfzVLMxg0v6y/fUtJP1PdRbpf91rwkKy//Gugx6jRQQbi2f/azZjoQJlMcOpAZjPP4qNI5T+t0KR/jfYRPrf5jrS/zb3Kc9u8LG1P8r+x9qMhdn/0EQMDbMTNxikaJpLuHD634BJ+t9mOul/W/NJ/wsEsv+xxpH9r/lMC7P/zf7XHymC36wPrPn8sVI8f2EgrHcIFjUzoGU0WnpVP011CfbAWm3JipVuCBH8p/hUzdSymmDl1GhLT/0NC4deiMQ/4pH217UkiwAi+cGIOO0o25+2ptamDKjKqdGWnv6nYRHbG2ypS8j211mSRbL9pf/hww/+s7mk/1Wn0VyHNZTKqdGWnv63YZH+NyKQ/U+Hhv10Ez/jEYjk81/63+x/sv9lP5LPH9qbtj41nz+0F6mI5POXwNHsI58/GxZqKXbO5y9DgmG+/+g8qUWATD5/Agz8ZzvK/le9SfMpZiiVU6Mt/Y7xv7I0Ijc9452KKqcmzNwSUbtKuWhEtAC901ISy+PBNLEBiWkd41nYNXvqT/zNsGAzaX/aOOhB5VBs5GwwZfsDMgAj/U80EbeY9L+0jex/zIPEntd4NJzs/4lCPn/k84d1rPn8kc9f5iEtVNuQs5mJJCGSzx90oNLXMjDEhAF4LK5hPFPa4Ev/m/7XGlb63/S/vdcw5yIWYmYiIoik/62OVANDLv0vbSP7H7MHDeO5mo20p+x/s/8VQxCjyP6nbzXZ/6htyNnMRCBCZAXof2UgbKre8zamrQ7SzmYSjAuNTwEaIOC0AiAR3AkHMySDISfJdkKoR8suwsb2MHKFTv2JP61DzAoW0QxImG5taX/Z/sRhuEVUmwlxWEwzn+hpaGB6RK7Q6X/S/9A00v8ABLSI1oAEFG9d6X/T/4rDdItI/ytQBDzYgmoHk8/fFQhgEo/IFTr73+x/aSDSjGARrQEJ01tX9j/Z/4jDcIvI/kegCHigxbTmEz0tG5gekSt0+t/0vzQNMSNYRDMgYbp1pf9N/ysOwy0i/a9AEfBAi2nNJ3paNjA9Ilfo9L/pf2kaYkawiGZAwnTrSv+7xP5XBsK0uSl8DiLwdVqI2Bxr+WRJmkryzGmQLokGqwe/NtCD96bmrhwLWhnCgZzlUcJLtWQtRoRa3tSf+LulpP3VxpXtz3xJ+h+ahLeQah8Mmg8VZvrf7H/MOsQ0epuRGE+S1mwn+9/sf91Ssv+tLSj7X/UQcBfuOMy5WNh8iHAgZ3mUcKuy5Hz+JyQCUsMu/W/6X28p6X+rc0n/a740/S9NwltItQ8GzYcKEyKGWfY/RKTHTGI8CUgNu+x/sv9xS8n+R1wJ2475kvS/o75EQWo+ROIwIsMs/e8oZul/gcky7H90acRgee7EqMemvC3KKO2OwGpJen6xYo/V/WTYTfKoJt4FSKlliAhOqb8CpNAoLMJquCqgDTtPGchpn5T4Kz4V1y5oGKb9KQLZ/qqBqGlk+yMCA7+S/oegNN+h/mUUp/S/xCn7H7WPruOpT0PNhogUj/S/6X/VEPyJOf1v9j/0DGIWZhvZ/zTf6cgM7CT7X1pL9r9qH9n/iu/oYGhtSNJwyuePCpBCo7AM/Er+/iEszXa0fYE1wCn9L3FK/6v20Tme/P1D0whtSKLk5Pt3hSL9b20jgGPgV7P/oYnc9v4Hba22NgY2xU7NT87Enc7LwpDkZEtrlCdWQlJGkgMj9Sf+aX/DZuPtLrSUiTKLaqXZ/tC8RkAMjPQ/6X/S/0z0LaGlTJRJ/zMZJUkZSQ6M9D/pf9L/TPQtoaVMlEn/MxklSRlJDoz0P+l/0v9M9C2hpUyUSf8zGSVJGUkOjPQ/6X/S/0z0LaGlTJRJ/zMZJUkZSQ6M9D/pf9L/TPQtoaVMlLkr+582EBarN6z1MO6yowmjHBduBIRm8FY6TCJuaaSGhQzjLj2aMMpx4UZAKPUn/ml/+n1OaxiVGjaiYdwzjCaMcly4ERDK9pftL9tftr/mFAI1dCLDuIuOJoxyXLgREEr/k/4n/U/6n+YUAjV0IsO4i44mjHJcuBEQSv+T/if9T/qf5hQCNXQiw7iLjiaMcly4ERBK/5P+J/1P+p/mFAI1dCLDuIuOJoxyXLgREEr/k/4n/U/6n+YUAjV0IsO4i44mjHJcuBEQGvqfsEcY5ChAcbs/HCWPcY21sy54KnGVZOMOR82uhTIyoyQoNgJL9hxgCM8KSf0KjeHhQFUi8XdE1JbS/jpTsQYmIU/Z/gyS9D/pf80WohMRnjWi7H8UGsPDgapE9j+OiNpS9j+dqVgDk5Cn7H8Mkux/sv8xW4hORHjWiLL/UWgMDweqEtn/OCJqS9n/dKZiDUxCnrL/MUiy/8n+x2whOhHhWSPK/kehMTwcqEpk/+OIqC1l/9OZijUwCXnK/scgyf4n+x+zhehEhGeN6A7sf3RGGLWb8npVPSvEAukVmC1hZVkYyulZIRbIID470sqyMJTSs0IskEF8dqSVZWEopWeFWCCD+OxIK8vCUErPCrFABvHZkVaWhaGUnhVigQzisyOtLAtDKT0rxAIZxGdHWlkWhlJ6VogFMojPjrSyLAyl9KwQC2QQnx1pZVkYSulZIRbIID470sqyMJTSs0IskEF8dqSVZWEopWeFWCCD+OxIK8vCUErPCrFABvHZkVaWhaGUnhVigQzisyOtLAtDKT0rxAIZxGdHWlkWhlJ6VogFMojPjrSyLAyl9KwQC2QQnx1pZVkYSulZIRbIID470sqyMJTSs0IskEF8dqSVZWEopWeFWCCD+OxIK8vCUErPCrFABvHZkVaWhaGUnhVigQzisyOtLAtDKT0rxAIZxGdHWlkWhlJ6VogFMojPjrSyLAyl9KwQC2QQnx1pZVkYSulZIRbIID470sqyMJTSs0IskEF8dqSVZWEopWeFWCCD+OxIK8vCUErPCrFABvHZkVaWhaGUnhVigQzisyOtLAtDKT0rxAIZxGdHWlkWhlJ6VogFMojPjrSyLAyl9KwQC2QQnx1pZVkYSulZIRbIID470sqyMJTSs0IskEF8dqSVZWEopWeFWCCD+OxIK8vCUErPCrFABvHZkVaWhaGUnhVigQzisyOtLAtDKT0rxAIZxGdHWlkWhlJ6VogFMojPjrSyLAyl9KwQC2QQnx1pZVkYSulZIRbIID470sqyMJTSs0IskEF8dqSVZWEopWeFWCCD+OxIK8vCUErPCrFABvHZkVaWhaGUnhVigQzisyOtLAtDKT0rxAIZxGdHWlkWhlJ6VogFMojPjrSyLAyl9KwQC2QQnx1pZVkYSulZIRbIID470sqyMJTSs0IskEF8dqSVZWEopWeFWCCD+OxIK8vCUErPCrFABvHZkVaWhaGUnhVigQzisyOtLIQ6I2wwCMaR656FGDPx6BMq3xKR7qQTzmqcKmZlWSgKeEr9PSSIGXh9QuVbYuLvODXCqYCS8gxLC9P+KgLZ/nqTQMyMp0/I9ie4GDjpf9xOGuFUQEl5ZksWpv9J/yMIpP/tmwRi1nj6hPS/6X9jp9PsxA2mscyE2MSENluyUNqepvYsxCxzn1D5lmgFaxlWnKVa6KlWloWWAcp6FmKWuU9I/YKLgQMAnXTCWY1TxQxLCxP/ikDaX28SiJnx9AnZ/gQXAyfbn9tJI5wKKCnPbMnC9D/pfwSB9L99k0DMGk+fkP43/W/sdJqduME0lpkQm5jQZksWStvT1J6FmGXuEyrfEq1gLcOKs1QLPdXKstAyQFnPQswy9wmpX3AxcACgk044q3GqmGGJEANhmK4ZJJQ0Cb0zwgMriDmts4ODvJNGtJsaJwNaaupP/NP+3APWdtVaB1Oy/QEEQJL+Z2gnwERMJdiLk0ak/zUksv9pLcgwyf43+9/sf4d+tbUOpmT/CxAASfMejc7+hxYS7MVJI7L/NSSy/20tyDDJ/jf73+x/6UP10BbSWge52f8CBEDSvEejs/+lhQR7cdKI7H8Niex/WwsyTLL/zf43+1/6UD1W1v5Xl0YUDAgB3IMElR7hkxHTRGCpTp4bBDvx6JBSf+Kf9ofmNOWtpLU3ZzmxVO3OhD03iJWx/Z32y3PF5xAHHlPVAc1Ib2jeqKIkUaXllkAejw3IjwQypBAKKZfl0YdNTS0UKYlCRnSYuEjUrKSrytRPMCsYAiwxJoLKT/yJhVkasTGDIkhpf/Hnbra/xfufLTbfuGy79abe4qydaXMb0xad5YTY49KePDeIlbH/yfo3t573v/V42f5qy5DAW4n0bYKSs5xYWtcj8p4bRNpf2p88YkbLEANxK0n7s2dxh8SJbH+zQMDRA5H+J/1P+h9rRLVlSOCtJP1v+l/YAFqJm4QTZjhLFXpuEOl/0/+a/121WVFlSaDfDijHRM0WNc73xv4SV0zVTcwEa+ivjkVVzS2ZW8lMqjEJUn9Ds6GkPI0n/ml/2f7EpdQ+srUY7zSF1fsf5lh9jVXKGquvIZljO/J8SBE+Q0qhyeGLAXSc2vaEllVlkSoDEhz8Ai09K+QQUlTL0HzMKWWxPFAymEaKRWixKlDp1C+wJ/40F9hE2l+2v2Xlf6697nrxOeZ2aGLa2izI5y/6asWnoaQ8jUe/rfyWQ5wWxYQFu3Vvb2UiAU6/lQxZiwkz8W9oNpSUp/HEX0yIhlPNrSGW9lebk0CS7S/9T/O11Xuk/83+x3pc8aHZ/9Z+VoJ8/mi9acXF+9nqQSBgv9tVtuXI/jf7X3EuYhL5/JHPH/n8YV60es873fOXzwjrmyu9fvD09VEhBiPyMbHvCVqK9RUWuhx/zMXmgiypv/W0DUGnRvDyFBIGsIU10aIWulziP4Jn2t8KaX+nnXFu2WLTjcr222wW2knaf9p/9j/tcY1NA52E/dKr3UcMRuwlJnq/4h2NplrUQpfL9jeC5+2I/2m/OLdstSVmhG21Ce6LPZqm/af9288VmMXtaH+t2bsjACvtL+0v7c+70Wx/+fyRz1/eHIbESH/RCVi/YmFNtKiFrSPK/if7XzwJZ//jzSj7n+x/sv/x5jAksv8Z/F7rALIO1sKaaFEL70T977RcC64zdgK8TnsJpkt2aUWEr2QnT1ZMY2nKaB2LlumZhSCUljH1D7HSeOLfLKtRvb2m/Xkzag2sa3CD5lhNbaVsf8SlrrO3UtafFrIy3/+sf97/ld3+p7UnTf8HQ6gPFfn8WRsF/KM+Omg8nz+rgRgu7D9wRHthvElpagWRETkU0xpZ2f1P1r/aBICohhPtSW0l2x9BSv/TPEuj0v/E9iJ2Ii3KTtauqqOhHTHJojXM5x/Dqben9D+0FTWS9D/N6zSqtxc2rZgmDU2NiElydNFsfxWTbH9mONGfq61k+6ORpP9pnqVRy97/TPvDQXNXgYVHBR8VlscGkfJTuLLq23jrtCRhgK4yLZ0iyhRenyB5Gyv1J/5mDWl/hoQ0Ep5q2yLZ0pTJVfpEINsfgXB8DBbnNeDACn6JAohn+zOAsv0ZEmIaah5OtrRsfwKNAAIs0v+IjTT7QHS5P//IHVKf2F/Y4FrT/6X/NwNJ/29ISCPRJuRkS0v/L9AIIOn/s//TJtLaB+LLvf/TNirX1F+YXGxjZf+X/Z9ZQ/Z/hoS2aLZjp/z3tTHz/QOxyf7PbKSznfT/0nAEkx6Yxhcq+5/sf8xAsv8xJKRp8LQM+59pKa86Jn1dzNJNA1QLyZOuG2wpkk+urOOIHNP0onEmQRHXwURNBSVHG/V04ZqCuBTPU+oXGCsyDPxhw3mKE6OKMM4OqQCpkom/I0Yi7c9sw42l4oO4JKld8WySghvFew7iwmxnLzLkXJ72h+vRK+S165H33+6N36yKDOKSxFP6X6JgSBGg9L+CAk/1UDthRNsYzm5SAbnl2f7l4vTq6kWvdP5fv75rGKT/M9t0Y62mgbgkqV3zbJIUyPYvKPBUD8WJEbUunB3SgFy2fwNMwmx/ZhtuLBUfxCVJ7Ypnk6RAtj9Bgad6KE6MEEk5O6QBuWx/go6dsv2ZbbixVGiy/aX/oSmoX+HZLEW44mQ6DtjCbGc3qSCX/ofw+ZH+x2zDjaVig7gk8ZTvH4iCIUWA8vlHUOCpHmonjLgXcpMKyKX/McAkTP8zU1ZVozFrobPBaxKzGbLFouRUjathGLmapU5wjPlVgRUkmUeTWRK5qT/xT/vL9iduQn3PMvY/HI/nA4R6G9WjXiv9T/rf7H+y/1k5+p/28MtWn89f1iOk/a8c9s+eXx4tJEz7T/vP5798/svnv+z/sv/L9w/6XkAeEOQh4f+3991fetzYlWB3MzabOeckilQcaZLHM2eP7XHc3Tnes/4b/YP3V+9Zr+3j8XiCZ4+kUSQpMScx59QMnfbe9/AA1NcfW6LYFCn2LYmFB+AVULj13gW+QgPlI4UYL+TcPH7wVPYeMZIusxVxgYUR8Z7Wte0ilMM89T/qf9T/qP9R//M8+h//WkRD1HTF2gGQnJ3iewJn8JJL88VlWbVen9WQzo/LxeHuzlhOVf3AwkDAGTgZmI6P8M920w0Ijh2eLPuT/z0J/4S3iX/Mf8S/4BLxLwlV/Q884mXvfzlQG2AjxX/iv6A+8Z/4T/yv/m8O9H/o95zt1P+p/1P/586g/l/9v/p/9f/q/1/63/8a/0wb/+F1iA2F/FxHRewTcLBzzBreT+YCLNNO0X02kZqZJa7A8L96QALr8DWdEJiq+gmToSD8zSaIhx+yP/nf7PIP3wFPiX+Kf4l/1f/QGNT/BAh5oGMe8nL2P1NT+DSsbVWt8Zf4T/wn/hP/q/+bO/2f3j/EGEf9v/p/9f/q/9X/q/9X/+8vQaJvJCu8nL//Nf6JZ1zHP/hGmCfaaq7Ipw00h780QQLYwrvNJvMrROp7sc1fX3XqUf2EUPgXQyEcnUP2l71O/vfU/GNzYOZsYWLiHyIh/iEIYRPdUPwj/jGLeGn4lw0JYxf/8dmK/wiCWfm0k/hP/GdG8dLwX2vi4j+iIf4jCK1dVFn8J/4zaxD/PfXvb/Oxjp+Jf2lb4l+CYF427ST+Ff+aUYh/xb/T2GHmBHqO08rM80++NSLL6iUh+4vh7IDxcTnohFrO6X8XzMz/Qp9XVjlfjSBLteAoUfVnEBEIf7cK2V/xoeI34S9tyMz8r/qc/I9Y0JUKJsCo4FgSM5Din2xEGTTC0mBXcGN675Ftj+BWWGV/FYuMHoIstUA5mrI/4JDRUf/nNjGb/sdf3rK/sDD5XyUn8Q8REP8SBLcF8W/GodJERsbTe8/MzP+qW2n8U7HI6CHIUgU2sJT/ZSNCIP9zq5jN8Q9LlP3J/9yyxD+VnB0R8a8TBNEQ/7pNiH/L+6wybnFkumdm5n/VrTT+q1hk9BBk6bnzb9ka0Z5kuSvEzPlj4Xg859oAa1SrHyoM+ZIFCvFHx9PUIgM6nRpaRdVPIKuhGL4ZIIe3sSLLrCfhL/uT//XlHx/fGXuZjXQ8TPzTcAgx6qCDuPjHABL/snsv5mCYtCf1Py98/2NfScFD7Hi4+K9ascafwKJjHYiL/81AxP/ifxpCy5dmGPmk/u+F7//sSan/6zJ8a8/q/2Ai6v9akyiEp/5P/R8JtGscRql2Uv+n/g99a7zmn2YmkaH+t9vDtECp/wWVfHv9L1aEwRp58CFQbB9GTkKQD9d1O4ZivjRyI4wyI7u3Ob4O2LVDV/UDD+Ev+5P/BY1YGBziiR57Gv6xEuZNljrEPxlh8b/4l6Yg/incQCF7R07z2NPwjxXEH4r5eB78w/FYtKtI8n/5v/xf/FepyakqiKqJfdf5T78/60MW/+eeUP2f+j/1f+r/KjU2PV50gs4V6v+IB4DK1BnoRBh9SmTr/W+vUdV4YKX337Ae8a/4t7qG0UlwiHOLx54F/2JFWD5CKC9peEdxVwgb0VV76a0qRFFRdMuYrgUNEwoNVBXVn2EjQBXTVhT+hEj2F9bhBhOxxqc8w7AK0bXmrv9NmiPh04gGRINVkJb4J5sKAao21YriH0Ik/gnrcIOJWONTnmFYhehac5d/Xoj246/NpvLWJ0F75Uet+C+bKp9UtelWFP8RIvFfWIcbTMTEf4VTHBizlRAdJfG/80ljKwGa+DebCi2l+lQrin8Jkfg3rMMNJmKNT3mGYRWia4l/xD+0iMZWxL/uIup/MlWQKSqntKL6H0Kk/iesww0mYg2neIZhFaJrqf950fqfgbiheFA0cD8YVtln4ZokE+vDb3X9etCIvWxhLH+ozK6xaF42WQ2CWn7UOtsyVX8PPIhWKuJzaHFzXeFf7TMkQwkRtyfZ35zz//wSeLae//379+FsM/vfvbt30607t80pv8r+rl2/nkbvP8j+XH06+G9yciJdvXo13blz9+v7/9RkunHrRnrw4IGzhOxf/m+mJf6bc/xHtjK6ogHo+c/F5882z1b/Z53aV/R/7B9pcjyMdlS/8DdDEP+4Y4R3FA/JnmIgmRzjP3cg6un3n37/ht0wrLZixoGTfv9XfEIylBBR/0crEf+Kf2kH4R3ZJhgYn1ROUf9joFSaNYQCN4YVq6wp/tX7/2wK+v0TnvKi9r8D3heGE+O5xR1XwR5moxF+jtBTYw407D7CebbPJctsPxTnl5XyIMT1VrDqNxiaB2HxglfO9UD4E4ewn7C7CGV/2Wrkf2WYwrfAtIviTxDCfsynnoB/bt+6nQ58djBdvHzZBj20uwlMVD189CiN8d/4eHqE8Pz5C+nsqTPp0cOHFn80PpbGkT45gS0am/rHxsbS0S+OpNs3b5hV2/3kE++X3emX586lgwcPpkOHDibWzyPuP+w+wrD/8fHJdPzI8XT0yJE0OnrP6pyN9ov/HcWvwl/9X+NvNFjAJvsjEDgARNiPxZ+AfwLFuD78PsLw//72lyt6bvVba59j+1W/IaDn/5z8T/Yn+wMC8j/5Xx0NcTCQjyKEm0RGE8J4cHyz/j8XI/sr+GUwMzDCPwNhgVtam0JZ9kcU5H/ZDrLLfL3fH0QOh/in2I/hUWinCAGThd2T/I94yP/kf2YHT8E/QyzAYaQEo0LE/9KqprL8kkaWiwkuu6JeH8kRenbVt3Jw8jryxVZ2lVV/g3WGxXCDuxvSwl/213Ww4r+RHKGbD+wmJ5gF4TSn/c+YjEjUozJdYGNIFQWP5bTG/5YML0nDS5ekw4c+T5N7J9KmjRvS5UuX0xFMOPmBqStcNj4xgXAyXb1+zT5PMYXtB7gDwa5du9LmLVvTQN6gdhSryx5ggmzJ8DAur3cV9V88fzEdP348vfLK3nTl6uV09Nix9Nprr6XFixdbdfHcI4x7GBwaTHte2ZM+O3AgnTxxKu3dtzfNH5rv2Z2anqz9UUDcadQbYdT/bdofsb6GFXMLFy5My5aPpIF52AYz35DhiFNr/6Oj97G67nZaunRpGgbu6n9oeW5x8XzD/swmG/uP/Bfp+fOenqf9fRfqN1LiQ81HPD9GZf+yf/m/+M+4PvOD+L/hBPV/vR1sGalGvxuhmw+sZ4bxF3XU/2RHQ6D+t/G1DIv4p8FE/FP4JLwm+CN4J0LPF/+If91CjEdwan//00bCfiiLfxuuISA4xL8NJuLfl5J/52H5PO08H27yFiliEbrJiIVNmEZW++APf3BiQdySrFfCyoeWbpAxOH8w7d+/Py1csNDK9VMuhJEiFsFU2li/+r2c3nN7VW9eG2/0ijiVHj58hJUfB9LSZSNp+47taRHu+fbtW3jhfQytwstutJEvtofQpqUjy9KqlSvT4kWL0/wFC9LgIF7E1sa0lfWRS6XNJU1aT0nfVvvbZ9fejep3TjBMWmCmPdkZMxvtRq+IRTC9Nib8nxz/Dz45ktatWZm2bV7b4B5ig24Ri/BY/E+cPJnOnMIE06t70+rVa2wLwiiRvnPmzCmsBBuzia/BAe5Gi6EXCGPRokXGf2Nj4+nylcvpzq2b6eyX58CLr2EChxQwL61YvgyTbUvT9WvX0qHPP08bN21Mu3buSg8wafbJp5+m4SVL0qvg0QWc2GpHdPUGIHkbrl67ajy2Z88racuWzR0NjzRtzSIn8K5cuZpG742mjZs3pQXgtKjmRbS/u/fupd/+5jdp3dp16fU3XrcJsWh/nwankydPpKNHj6U9e/bg+eyESm5dgaIIdnkbexHb36+NM7W/q9+0rohFUPuBQIvGd/X5v//xkbRh/cq0dWMvBzatK2IR9PxfkudvD7LvqXnWRSyCnr+e/0vBf31Nv9e6i9kXoVej7+/f/mV3y+ivw9RGr4hFsMva2He1/1H7H4dA83SLWAQ9fyDQoiH7x68V/FwxTFpgppnXjJmNdqNXxCLI/mR/8j/YwIv8/qNx5kbs+nCT0SM2ekUsgum2MfGv+Pdl6X9sRVj1huZvQaODLW7vWkEC7H659U5xjJzx/nvvxx8gWA89NvYoTWALsMGhoTSElQkO3Dx7obpz246eibBueV52rZF3UGP9669taaUot9ztYwYPoecVRf2jo6Pp13i5ypfHG9evt4mwixcvpd/89jeJL7YXzF9gNzYJZhjDC++pqYm0fPmK9M4776bdu3elkZGRjNM3q7/bkoh9e+2PGhk+D/xVf0VA+AcW39D+6YI4zBOrO3oirLskAWiXK+JUqrFa//at2yz9HieLNixI/G7YrVu3cpk+kc5tD29hoosrlFjuIqziWrpkqelMTIyn8+e+THfv3rPJ84uXLljl1ONqsTv4xtjRo0fTihXL04Z1G2zbxQFMsO/YscMmcQ589lnavWc3eGYZyq93mG8Agbdr5YqVWLW2MZ08dTKtWbvGeKxpUNGzEnBi/bz27NmzmAy7klatWQW+BtfZUdsf+jmjTxC4OqJUMKlG8zWhh2iuv2dTveZ2H1O/33T7oKwwr6pWaJLpoiJrQI/GN60/t6QbRLv61G91h3bo2S1/bfuzIjrlRHkRRrmqPwzDkKhwZKACp5cff/vTxznc/rn+/NV+MIHsP+hwzvGf7F/2L//3cU52fosUStT4V+Nvs4juD4sae8zvr2pMjRTj6mJdz+73X1NrFVW/Iy/8Y8BjSFQ4sqmEnSAq/hP/mRlUxqOR1Jj4r9/8DzGafoRfVYd70fyvTITFLdYHHQ+dX6bh68jQQDNNpKbntA3/+c9/brpcYsqXLceOHbGtwviidtfOnYkvcJk1gAmkxbYFmF8dpT9t/d3SPMazl2s3ZTFrT/PS+Kvqt0ZDydvF8lAWJr62bdua9u7dZ5N8k5OTeAn+IN3CN36+OPyFTZRdx3ZoP/nJT/L2Zd+8/q+Lv7c4WuMxnp+2/aq/wdREf5a9L+qFPxFosHJAXhj7s20J8Qv4Sf1/Jvvn1oNbMRkGSkvzMHH16NHDdP/B/UIWY/wmGLbsIzeQctiBcILLuAT4cGXY/v2vp8PgjFWrVmGya12aQmG0ME5CnTlzNq3FxNXYo/F0+Mhhg9c7oUmkr8YE2mg6eOBgenUvVqStWfNY/AcHB9OKlSvSufPn0ymshNq3b39+OvWJOU94slu4879p8LHyeIHt3+8fN2hCbY1LPLttdp4/HsRUfhj1iuDMJ+v/DJ8X2P77tr+gEm32VjgWav+TjH++C8/fOSh8pHvHsn/Hg2fZP1GQ/79s/k/L7vR/9pTd3uX/tHk/5P/EQf4v///673/cc3yM7bKf3Zd47jP+LqnR57bXyP5kf7I/66/ziNRdyH1J75+cWZwx4iz+6TJpxMS/6n/U/9Iben//YCIsgMkkUjgkhKDahnCy6B10JR/G9+59xRPy5bfx/ZUjhw+nNdgybC9e1M7Diohm/gm6s1u/3xrOcft2N4jwRSeTEXr9rhmKEavXRQEOmuXzlJM5PGN5K7DKYs8ru7EqbD5SHCu++GZb/+8//zO2MzuUtmBLMU6WffP62Yhyh0WM+qyJqL3GoRu3b5mIPFX7VX8BvYGi4s1E4V/xeHHtL03y3uhL/MfDHSVi1W/CgabzH5/0KLbge/DwIf6qHPmY1Fq8GNscYjvUcWxzyNWgy0aWWxUsZfLERHr44FHavn07uAerYpHGT1dx20Hno4E0iVWkXBnGrRVPnjqNFWML07at27EF6+20f9+rmPBam/gNsQlMqJHASOQse8niJfZHBWfOnEkoDSk8UEPcvsURyf5/7979ND4+kc6dO4/72WH3Tf1+7b9z+45Nmo3eu2NlnsL2j8NLh7HqbaPdx4WLF9KaVWvS4iWL0+XLl9KNmzfxxw670zJsIcutFM9dOG8r48YxMTh//kKbpNu8eTNk/v1F1DiFb3TdTRcvXcQfENxEuVO28m3jpg2OYbm3eVbn2S+/TDepB45dsXJVWrtmrdXHBtP+/EDI3XgLHlipi+dyFd8Ou3r1Guq7g2+CDadN4OVJPAPqzbM/D86XWDEBYGATZUMni9XekZbr9yyc43JmMSL+dbOkvxhIGcQMVMQqbgGg8HdsCkJPbX+GMeG1w3EupQfs5UEI/9nGX/ZPwwuLk/0Ri0CjuF0RIq9oFOjU/wQ2tCeNv6s9wFYKjzs2Gn8AE8Ki8YfGX0aldjLeEP82PFp4I4TIC7wAWRYr3zjH1DgU4nJmMaLfP+IfmoX4V/xr/JFJJBNFxCpvBIGIfxybgpD4N0NR+5un73/wRjIAzoZXKomc9geG9Wrl1N1aIAw294G5HAaTiZNfKAdVDAxM2QvNjz7+NF3AdmB/8zf/NZ0+czodOnjQtgX767/+6/QI24gdO3YUaZ+nS3jZOj45gW++rE9vv/0mVjHsQxmDdg+sny+GP8XWYMePH7MXnVxdwe94vfO9d/BCejnq5Stj/MOL5tOnz6bDmJg6jRUWS7Fd4e6dO9Prr7+RRvDiNt91NLr6IyQiwzK8Ug94tvZbJvNq+4fwvZ6NmzZha8R30q9//ev02cFD+H7QPi8zg8bLvMRcrudGYsSg9XT4owCUgHtDNVan6jfkhX+Y2hyzP/APHfdpnj+3OTx27Hi6cvly9qmB9Comq7jt4K/+41dpAitDA1WyAieo+KXAy7+9gq0L3Z85IBzGBNIPfvADWxF2+9ZtfE9wCN+0WpAePnoEouQ3B4fS97//LsrD3eL/EXwrjAX7ijJwINMxCccVY+uwiox8x8PaFjdgcfd/3vedOzfTZkwA8VtkFy5csO+W2UV+VRiFxUaxgu0MuJnVMOPixYu2spXfQLz/4EE6feKUbQU7OvogXb9+FRNc89MOTK5dv3E9ffrJp/i24kPfCpL3PHU3Xb56Bd86u5LeevttbJU73zC6dOly+hzfPnv4kKvliFLCRNeNdOr0qfTuO9+3FW/kr3vYNvLTTz/BNpF3EPPGXbtyLR0/dsy2oOWKOUs1fHHDTfsfciXdF4cwqXchDQ3yZgZsu8nzWBk3HKuSrY3WTLsHwzBLxp8md0+ZSnNi3NXj8bcy80W1/LjRnJKjNV/8L/yrbbUW+I3tDzbG75r6EaHsz0hD/mdmIf6JLkT8K/6dZf7F4KT6l/jX+yH1P+p/4Avqf9X/AoHKj+p/1f+q/41RgveVfv7Gv/80/mj4JZDV+GMujz9sa0T/6J2vMQjK4UoHH5R0DcXMJXopy0LE4ojk9LjCEpAWfwHr6fNsRcJFvIQ9dvwEtvr6Iv3qV7/GlomDae8rezBhNZX+3+9/nz7++OO0FC8pV69ZjQIG0m28HP2Xf/7XNIbVDG+/+Zbd2018c+dXv/pVOnP6tE1scSUGtyX77LMDSDuTfv7nP0+bN27GbU2lDz/8KH3w/geYbJufluNbO/yW1x/+8KG9cP2Lv/grrMRYZXqPa3+sGOAL7GgnG+bdNBuOo20/8jZu3IA2LLVVEWwXX2BnUGO855cZRlFWRmnW8EeLvMhcZy7favbTs33+ql/4u521lpdN8lu3f/pvdtPiAU9q//OHFqR9+/fZqk+uKPoMk/qc5R/EBP2Pf/QjmzianBzPzoWWRmNRMd2aB78tOGQTXwuND69dv24rqybxPUWuDJuaGMIqsgfGV//5n/+ZJpE2H98i5CTZCDjl7XfexqTS9bQSWx1+efYMrtmYli/zVWhRnRESKgz7e4AVZaOjDzEpvx3faFyYOAm1CRP2CxcuMm5qf3KQ/1djm8Z33/1+OorJJvLv/n1vpOGRpZiQG8FE2EOb4ONkElfDbt26BenL7NuPR48eSw+wNeSOHTvShvUbsVJuoa1s47fM7mCl2G2sAONk2gO079Chgwnzhmnnrt3QxZaQwIhlfomVX9T/2X/5maUdO3rYJsM2b96Stm7emgaG5uGPJC4lrlI7/MXnaMPbWEG2zADGxpNAmE+ZgKd04fw5lHkB+SNpz5496CuWWlmsg98+46zjFPqY3vbPTv9X8ffn0p5RNY4ntb8yALaivI32kNlkpHkNVjIKV/1h/y3yFaO5hz/NxNyDIQ7ZH3wGRiL/r69cZm/8L/4R/zjPiH+JQ4uC4yL+Ff+q/1H/q/GHxh8YLVmnoPEXcDAoHA//wZLf3eTfuZ6v37/2W46DTP3+N5sJizFA9P7DXg31jjwrRvr9z/G3TYTVH2otPD5IrwB63DTwJs66LHM8pMRlFjbdOYzQ8lgT/2c+QtIZ6+Tk0u9+9zv7dtjO3TvTWmwLNnp/1FZ4rcNWYD/88Y/Teqx0mIeXxp/jhel7mMj6/NCh9PZbb+Ll8WT6+KOPbTXZVnyn64c//GFagYmw+6P30ieffmbfzDn8xRGslFhvKzc4CbZi1cr0Rz/6cVq3fq19r4cvYT/Dy9Zf/vLf0t/93f8sK81qy6uUm2D3bkvB2Bj/BVNebjsOtf0LFyxKS7AF1+VLl7CV14St8GD7fSkZwfDjmePvlXplql/4lzfpc8/+6HXWfG+6nZ/Y/7CqjBNJLGcSp0Fu9WcFY9UWVpfevn3HJl5ID5YOgQNco0Ok8Vtiq8B169evt/q5ReIdbIFIN70/eh8TRXds68X7WFG1c8cO0MxU2rxlCyaKNmBLw3M2sf7o4Vi6dOGi/QEAV4VZRQxQSPk5EfzLNJTNybaFCxakpViJtmTxZqzwOp+uYJXW1i1b7T5iEG4RnLgibfXq1fhjgdO8NfsDgmXLMNlkMZyxVGxwwWDahe8/bsH98fox/CHCkiVLbPvEV7EdLLeNpD5X6i7Av3H8AQK3SuRxFhN4jzCxt3XLtrR7105bEcd0Tszxhm/fvWt4cGXZdWyHuAp/FPHa/v3Az3qQNLJ7hC1LJ0+eTNeuXUsjmOhiXQWB3P7TuP+FeF6vYNvedWvWmQEMLxnGarAl+L7aHUzIYYtLTOv1tp/3wsNgddFlPPMn6v+gXUoxsYkzJ1eg+lukM+AVOUswDeH/VPY3j3xE8sqH7M+BkP/J/8In2rBFRfwDZMS/T8W/+v2n8U8ZD9KdMsGo/2mZtjJwmyr+Ff+q/9HvT/3+Rm9h3SgYMQjSwvL2A69CIq/pb01s4up/1P9m+5nL4w+bCPMhhztHcRGAU2QTMlp5fGIxnizPNXmmVxZN+8HkA70pyKaOEyW+mKX+Uqwi+JM/+ROshsDLT6TfvXc3vfHaa2kzVhjs2LHDVk5QcdWq1WloaCjdxUtiHrdu30rnL5zDSomp9LOf/tQmvKw8vAz9o58M2+TZMMqcwnKDgwc+s63G3n7rrbQN2yYOYOS5BC9Cv/+DH2Lrry/TebxcvoTJqo0bN3lzWIHdpwUgHL93puF/PyjwHyvlvxLU9g9iGy7eM190j2FFB18sOzeVUvzCcjVf8OY6oFJkE7rXWIwny3NNnnl10XSmtDTXgDoyGw27wk+1jCg7rvE6SqmmHjqqn/BW7DroCn+CY//Clp67/dF645cn5XLUZxi2Hfc8k/3Pw2omH3q4K7K99zGZf/3GDaxc2oRJMt8CkF+iojmQSc5/eRYrYOeXiTByxJtvvA6OYGFT6djRo2khvjm2detWW31F/hnAiqUhrGblSrK4v7rwiXda67d8JjT29wBbD3IF1CZ+owuTQrzPtfgjgyuXr6b1a9elBdiSkWmlzSjEZbAFyZq1NrixDkaXgb/X448NyCnUGsSqte07tpn+2NjDdIuTepjQunr9Bia1RsGH/i1FKKSrmLwawuq6VVh5NogVwTxYxiKsINuN1cH8lhlXm926cTM9evjItsE9ceKEYcSt3Vjjg/tYmYbtce+h3xgfx0q6nG53jPZzEu0Bnsdq/GEFV4y19jeMlXWr8Y2z81gxFkduqTW3yF5YqFjI9hMSB8k1eWai5ZkYJVRc2/pNvZxqGVF2XO11lFLtitBR/YAj27nwp2l8tf1Rx1a2myXFSfZnuBiCfpL/EREcBoT4h1DEIf4FEgTBbKNyBxOLpTTjj/Al9X8dhMKcAkiHk6kAMTCT/xGPYlVEx21M9if/E//AGcS/ZASiwLAwhfqfzJT6/Rl9qcYfHQ8xj/FT5RDzH5wCM40/6EaFVQyuwMixqdh10BX/EDj7F7b0ovqfb41ot+qW3z5vewHKBM/yDsZaxMblw0RXaK8N57FsXDNvyrer8iuZgOsR/OAH76ZFWKFgB+LcSvBP/vRPE79nw+0TL+M7PHxRyQkrbqU1jNUGvPgeXq7yL/m5pSFXfbGsqJ9bd/35n/3c64D2l+fOpzGsoPjss09tK63i4rjm7r3bCXNp6fKVq1jFsKmUwfup7c8dCfTsnbABgtffVidOPEx2MeJjWLXGF7jcAm0RVodRybtpXuOY1cDj0QaWUesvd5wFR5E6vD7Kaq/l/bSNcZ9U/cKfBjN37c/9he3vheGb+x+3MZiabAbgqGTJosVpA7Zl5aROrctxv37tapMGEY67fMXK8ljOnj2bFmFV1BpM/psP49aOYHLsKP7x0a1YtQIXtfyT791Lbcrms/bj3NkvbSWVrbDNyRvWbUgfX/gIq8Ku2XfDWHbLIeQfQwqJFpLwKOQ4xQWYnFuAVWZxLbd4IS8f/vwLW4HmF0DRekCsupo3nxFw51S6c+sOtk1cgJViPjEXZUABE2BIH5rCNpNT6f6jB1btdUycXce9emdKrTiw3e4Ypxpxa7zHTKr8MhsnJcl68wfmY9Jt0B+/leaYDY8MYy2YXVnaYFGWwrIIiKv6tbn9oeOJrkDVcvToiX+BDEAQ/9JIqo1W25puQ8/M/miM027jW6z/ebdf9dMZe8xQz59m0XL4M/M/2Z/sT/4n/ukMA8S/4l/1P+p/0TXmQ+OPPCCrQ9XcZyAhDhOnc6cPsaqefn8DMP3+xqiLNtHpeHNsug3J/+aO//nWiCSVeOlHOQ70StlkIsV+P9eIS6ZjnNNoFw5yMKds6YQnmjF6clqxYpWZZtQ/hq2y3nv//XQQWyByNddCbqmFlVQj+K7LOFZVRbGPuMUWVgAsX7684bzp9fOF611MmjG8jRevo9h6jGVQk+eFCxbj3yJbXFEKtzyccvvb9NpRsxV+N3wx62K3fr6EHR29m5bjezi2Iq68wc2tcHbOl2ZAom6Gs4K/F2hVq/78nIS/WcVctD93Bz/PVvtZDrZLLB0spBs3rqf3338vv1hrJtJhetw+cPNmTP73qX8CnDYJ3nuEPwTgdn+L8Z1EFrL3lb1py9bN6fTJU+nGrVuoquEftsZMuss/TCbvXceWiKdOn0p7du/BdoAoLx8jy5ZiFezmdOLEcayMWpkWLc5/kBAK5B/rF5AQRWfXoQpX1g5hxZZl5frv3buXDh08hJW7t+0bievx3a+l+MOERVjhdvDTg+nazeu4EveOazkJNoG/QhhHW4P/WS6PUXzPjH2B8X+eaNuJ7XNXr+S3HFmZT6pwqo79wpLFS2yiC5fYgeJNZyFXukEen5rA9rST0GG6ZSLwFWWuilbkZGrYwfZD6CR3Iq7Wtr9o9+iJfwk3QDFcMjh97N8RzWfh/2zsj8/BjNat256G+Xl+LvEQhP+zwT8YRfYPS9Me22UAACWbSURBVMujaNkfoJD/BfVYKP4R/xhDNFbR4yLM0fgrqMP7c0OrByeNP4GRxp/sbnFk49D4w7AwNDT+CBIx+rCT+l/1v5Ut3C56+hUmqv8N11H/W/sWN5c4v+jjj7o1YvsjrPd5It5mR+OyC0S3iuQ+Lw6Zhk4mJo14LfscewkMdMqKiVzB0WPH03vvvZc2Yluxt998K61Zs8a2MbyNrRD/5V//JT3EVlg8uAqBf+HPLRLrS1SvfxJbah3Hy13e2I7tO2yyjN+i+RG+ObZhI1aPYQnAFF5cD2CVGrcM44TamrVrrFw79bYf+ub/ODErDqxXsPgAn7Idtf1s8xl8A+fu3Xtpx46d9tI4ruNFvlVkXIecFuDe+hFvs0s5TkF+bz31Vx2X4v4tpvqFPwbBrU92DOwltj/zA/grJ1Bmpf0okD+w+JviIVZC8btePEbwLa092N6Pk+z+PR7yIP14Ct85/MLsDzHT5fZ9V7FKjNc/xApSfi9sAtupPsQK2J07d+IPAjCRM/YIq5vu23aBvHteWfgnl8PymkdnZd/Et7UO4Y8KVmIynt8ZswNK5J+BgcG0BTx7DXUf+uLz9MYbb9pWhG0hdoeo3z715Vfbme3lai1+A8xbwWRubTtqk2Arsd3hW2+/hRTP5eTeXfxRgN0h68d/K5avTJcuX7Jvqq1dtzZrOo5Hjx5JN7Cd4pv4HiRX084H15PD12CLw3pMYcLxJrZ3vJIG1gyk5cA8tnwjDixwEVbmLcTqMq4g5vcnF3L1WW7/+KNxaztVp9oG8uLcKAsQF/8Spd7DgcpQIXO6/cUVphOKGf+wDdNpARb+z9b+CDgdOIzc4vFwEGmyLBXx9vFQ3Q9XrFfq+TfQBUgWGkYBFJQ0/pul/hc2HLDSnoV/x6uLDcr+AEUYivxP/IP+r2WOTgfXkIiZDOLq/wqVNIIDFW4l/lX/07hOYyeZesNQoKTxj/hH/BsOwbFJIzdOZKmIt9nVsVyxXin+aaCrMBFexgIoKIl/xD8t/3C/wnrQQBgrBmOxGq+aLpUJoHwdro5LTSFfnpVt1YQn4Rb4MrqjDC1kHjt+1LbF2rf31bT/1VfTWrz4HB5eku7gWzMPRh+UexkeXmzbh93GS+MLFy76fef6L129nH757/+ejnxx2L4rswUvgLmt4sTkGCbW1mIrxXX4Ls76tHT5CF4SH0z/7/e/97JRv91f3JfN2OG+ELd0vBCOBvKFNoHkf8yzfJzjUm5jduDTA7YC41W0xTX4+tePuC5HPUCm5UchTf0dvYg0APbWbypRmYU8qf6ARPi73YYphb0YPi+z/WUDmLXnj/JY5OiD++nQ54fSJWznSrfkiqazZ86mkydPpOPHT+LfccjHEZ6wFarGfxn80dF76QR0OPFDD+UE1Wpsi/g6vpXI72dxEHTp0uV07MgxTJhdwYox1PgV/MOiOfnDeudj1db+/fsQDtq9Mi/avwQrxPbs2ZOuXbmWjh4+ksbGsTqr8/wRwf9s470798Cn+A6Xzeh5GVEg800LefzzAG5tyz9I4MEJLN7H3Xt37N45Kcb6t27fhvgE+PtcuopvlU2hXQ8x4XcO32y8hq1quSJ42bLl2DZyuYUXwfOnTp2yFWCcVbyHPzLgJN95YM46eJ/Eivjb/fAPGJDACUCuzj1+4li6h++U8RjDiuKjjGMFGw+bF8BFdh2ut0P86zgEHhmWEqj/qVCYVPv/HPV8MyqeXqD+F8/ObsvvsNyn7B9QhL3L/90uAo/WVijL/wsi7kvfIf+Hkcv/y+NzAYCI/wBF+Lv4z+0i8OgxF/FfBUb8R+MQ/1eLMDjcY8w4eHqBxr/q/9T/u3XWM0zUTDWMWP2fYxN4VKRc0vi/IGJ2I/4vQ0cDxkHJTsXIi8v/viKM90hjx7+weUsq09ChYG2pSqGcL68ZSOAR+VYuTvyOziDTUR5f5JJoqBPFQ164YCEmrCbSTWz/NTYxgW+7DKTzF8+nDz74AC+bR7EyYIG9iF2FF8XrN25Il69eSf/0T/8n/eIXv7DVYxcvXki//o9fY2JrNK3GpNfChQvTu9//vm3X9cF7H6ZlI8vSbmwR9girMD758CNMvJ2wF7D23R27T954vqXcfp89RhqnDTkZhoNDHt42X6xew8vp+Vh1wBe3tzFhd/DAAXthO4EXu2++8XrasGkDNNnQfHbRX75SbtqfszxpFvFX/cJf9kcHBBnbrIeJ7hZP43+4dhyTRydPnEwjS5em1157PXEV1uC8AVvJym9osfj6hcRJm9SnNdptQFiJ7WH/+Kc/waor/7uEjzCJtgC8NYzyePB+ubJ1y9attjXilatX03zw5KbNm03P2YiawR7JVo8dwCQRee6dd9+1eykaWS3qXwue/N6730sfgQ/n4345MTYPvMtJJKou4PaCOD458GlacnSxrdJim5rqCrstwTcc+Z1HYvBvv/z3tBhbInLV7dTEJL7vOGLfZDyM1V7844ZV+C7adrTr9Kkz6cOPP7RvKU6A8znRxtVm777zDvh+yFaDbcOk2YGDB9Jh/HHDMawaZoWT0OWkGr8TuX49VvrGXeDmrImZP4nbTawcu3rlevrdtd+ijQvSOCbOOKHI/wbQKVkXjYvsOpTE9rH9flhsmliUqWu5oe+qJd+SG42sFvh7ZV5IlKD6hf+zsj/7/QLjk/1lxw33hvPJ/5y7xD/in2fFP+Fk4h/xj9mC+Nc7HvU/QQ0af5Ma9PvDByPlBxKiwRXMicFaEZuENt+SPa8RNf4NLCMEOI6Sfv8aJPI/ehGOMJCuWIwFyY138QI/wpgsbDRyusZ/gIlYBLyQMzSeJPvLhhQANVgxJ8AqYpPQ5luy5zVih/99Iqznej4ZfwXK0nhAIe6lV9fSIxOqRSwC/3jfkpsJZLzcZUGopaqxovTa/v2YRDqZPvnoY7z0/AKTYpNYWYCtC/GydmTpMrxEvp3+1z/8Q/rb//G36Yc/+GG6ef1WunjpfPr7v/972ypxAi9cB/HylNuSvfbafqyuGMDk10j66c9+mt7HZNo//uP/xgvXQd/UEJNaw0uH01/+1V/iZet8q99P3fYP+BfEcK+452g/G4WDqyiOHsFWZ8jjNmGDWM3BF63Llo2k17DV2Pfe/p6tyKBu21STo6wIqWRHt/6nxh9lsgrV3zw+YhK4R2jY8yT8Z9X/ibWh+vzx519xknNmy//Gx8bT6L27mHRfk/bv22cT+Sx7ZGQYkzzbbCI+/I5cxlVP17nyi4CE3SEctL8QQBqTEY8si6MATEtZGrdMHATPLMAqL24bOwm+m8IfDsSPJk4MsfxDhw6AD7kS7LXyXbC4D5ZpclSCkJNhr2IFLif0HmFV1t49r+RJtpR279rFfRDTHazA4la25E9OUC3DVoSLFi6K0lgsOHok7d2LcrD67QG2eWQVy7Gqa/v27bZd5EcffmicjL+JsEayzqX4/uOF8+dtVRdbye0Lt2/b3myDOC9tWL8Bk2pLsLLsWHqAicJJ4DAPE4fr161P27Ztsa1yWb/xPepbiom28O/F+PYZt1g8dfo0Vt1dt8kztmPdmnU28ccVZYsw8VgP+f/L6v9h8r32X589pZf8+aPxNv4KMCIsILzk7bcn7DxrTVb7y5N3Qc9f/Nc6BeQYPLTJNBZLj8yIlwwK5dJGy9OirAhN268Q/i0okAO8NrmAG5kN2OWCemmjJfwBVYwPbZBKLMsh/pP/tY4m/yt00sJCfzFSaZiliEUol9aUfFmUFaH8LyMg/hH/tE4BOZynTZb/iX/MLsI4go+LYRifRG6EJTdsKULT9ty55n+YCMPfwvPlcAbDweoiY2lImgYkMOML3Q5o5VIXuA0h/7Kff7GPOSk7hvASddeOHWl48bCtNuCcUtS/edu29PM/+/N0+sxp+2YOvwW2At+3eWXvHmyZdR6rB06lFStWYLJrflqG77/8t1/89/Q5tiS7hlUS3I6LZXM7sb179+Jl9AjvMA3ixS2/V7Nq1cp05vRZ+1YM00ewOmznzp1p48ZNfmOm3dMepC1ctCh9753vpeW4D64w48F7egftinvnigJOgnGlw8jIcnyTZ4Vt6+io2SXAqSJYYELas8Sf9cfzUf3Cn9bNY+7anzd+ttpP4tq8ZVvaismYYWwzGNhy4aj7nfsfvwN24cJ5rNR6YCvCuOWrH9P9v3061CE/jE2MpS/Pn8P3sC7j21orsD3gROLq1zt37qV7KJMrsXhM4I8GDh/+wrYS3LVzV1qG7V/j+Cr/37JlaxrCBNupkyfT5StXEreU5bF4yTAmkt5q2CslrlVjG+hRnQPArlmzOq1avRKrrrCNIv7kYAFWr/lE3VT6I3ynkdeQp3kMYFJvy+ataevmLekhVmnxBf1C3ENM7FHHvBblLlu+LL2L1W38puMY/i1E32Ar16iUD056/fEf/ySiCB1/pu/f9yomDqdsoo8TiQPoF5i/deu20v84Q1TrYEFRv+cxJacxhGrwq2WUS0MQ/wY+X2V/FdfAzhAV/oCB46PZsj+WNQ8T24Guxh+w0GxyjrHsLxuHBYbJLNofC60IT+//gi/iHlT/7Pq/8Jf9yf8qu6j/U/+n/t/9QeMf9g2VHYmKxh8af8zm7y/aVLUwjX/V/6r/fe79L7ahIs/j8C7QgyxPS2/0LO/JT6VkCP4SMcro1j+O78twi0ROYg0N2nydscdDbLPF7REHBvOsWr6cK8G4RRlfsPKaxx2sZRzfh2E4NH8I22IFJXXrr1TVprPUHKf4DY5yNYSZ2q/6+z0XAl4Q/AboN1cL/zlpf+9/fCRtWLsybd2ESRyYWFhZsQwzr9bGslySilDsz3mnrijlN79uYGvA9VjFxNVTPPhNqitXLuMbWGNpMSbWubUrtyHsV//FSxcwQTRo3zLkfZ04ccJWVY2PT2IS54GtjuWWi1evXsNqtFFM1C+ALuoawhZ/uL2bN6/bVogxaV9uFEK5ewj92s8Va3fu3saE/6I86Z+vaC9s7rot++vIbTH96vcbLFr1jktSEb5OddN0ytUQVP/s2P80kGdIEP4Z8+dof38AB65ftypt2bSm8eT8ZCwoTwlPsk3ng23zZnjQj8kqV0OQ/8n/+vV/3W0iZH9mJa3jNF77GDd7bHJbjPxP/if/C1dpeaZ4CTLbdOq2eXHt1w/L1RDkf/I/+V/4TutnxUuqv5WkIsSFTxSWqyHI/+R/8r9wn+wZFhQvkf9Ff18gKUIA90RhuRqC+OfF4R98pismwrrPszywSO55cLESitmu21wRooWY8cYPt0o49Yooul8YRZQ8JLSGo/phRBlUx6pBLEQLhb/sT/4X/MOJsPXrlqdtm/hNqccf4UJFAwlPwj/2XUG7oPpfUK37bdxRqaEI5DbqcrUUD34vawBpk4hzVY2deYPGvBCwRWC72iYTsmdjH0jZv+y/a200nm4Krak9pmkg4Uns34q3QmR/L5r/vf/J4bRx3eq0ZeOa9pF3ZD3/Hg+R/cv/QZnBmvr9ASwyGM4VDWOEaKH4/0Xj/zww7PB9byQeYUlHgvp/+b/4zz1C/C/+V/+XfQGB3j80PWaIFmr8o/GP3j/FuKFlDJf7n8OFSi4SnuX4syyroru2B2bI2qiNADuNsY97uYqnN7mRZ2FjBFEkW2RHJHBoXmVmqf4uHvwFHqgZdIExsfIEO3fyhL+hU3ALSGV/2VYCkDnkfzSGqaC9Z9d+Y70e/2Oabfn3FfbHAXaeA7PnZKtWkcC7LmyKslkWv5Ml/ydMxcsh5ufag3/pYr4CfytN/R9hqAfgbRCuGEND9keYGnRedPuzD/Txnp8d/7H0WNlTkInq5H8Gj/APg5hD4w8+edm/7N8QkP1nQ9Dv/6YvJiZ6/1F9w2wEg4gyjnCALNnEUIiUF338Jf7PT6o+Y73/q1iYTev3Z3izh/J/8V9rEcHxSPN+oekdIs/C8sas/twS/2YkK+fMdf4diPFXYy6elP/cIVYxELkKG42vMbyePDNNU646nWhO5kxxFNqW57qupPor6lUS/q299Nqm7C/8Kjta+GdEczgn/Y9OlDvKOdl+Ostcfv5qv57/XLd/Li/FIf6DIeRBVTuesCSNf91GmhcyGSpLb/FyW7LkfApcs6Mh1TGt2ZRkf4ETKbkXK4/r90+1uip18XJbyrZlQeDai2nWycmyv8Cpi6f7qoMk+6tWV6UuXrK/0o1WB3MjynHxfwcO8Y/ZhfhX/Kvxt1Okxn+ZFAGHc6XGH7QMjb/qqKtKsz/+iuUE7o2ZlVqTtBUMlmvdVtbrqFukvYYJPumKW893X/OZ6YmW1s2YVpbqD4CEfyBhRsJT4xk1zxNlfxkg+Z+ZS9iHhS0mkWFanlGT4HP5hSiNraabsuwv40g0KjaeKP8jKsAiY1TxYbInWlo3gxd1sJT9BUDyv0DCjISnbFsUa54nzux/frFdUy8sBdYk8Z/8L6xB/hdI0Hvs+Mb+J/4nfoZnB9QGlwyw/C8Akv8FEmYaPMn/ChQVGwdl5v6/8bN6YQG0Jqn/F/+ENYh/AonidOKfAkXFRvxDUMS/hkLpo6t9EBz1P0THMOkCw+TOb3n1PwHQs+1/bI+wOuvISmmkwfCIm8iT7wIbOUiozs6IHa5H0W8f51Jkc2V5uZyvKn91WpQ9gxfbZV4uz00pqp9wdRFB3BLruUDaICf8CVw5ZP9hG8VYMjaIWxZPL4n/o0lsZXvo+c+h588HL/5rzb/5q6M54P96/uA/PufKguI/8Z8TgvzfBzyNPZjI00sy/hH/qf/X+MfpLp/V/zV8Zz/4mrj4D1Yi/lf/p/6fXhDMQOoskz2M2OF+QtF/XeBchpTNlep/HK58Vv8TtlGMJSODuGW5XfEcmlSQ/RkKPOXDcWKESNq5QNogJ/8zdOJE/xtyuAItkj1ekwRmTDZE7ZTBjcsbsJHkl+QFnu31XkEUZBdPz1b9jqDwl/3J/54l/3DOnR0oOchZjaH4JxCR/8n/nqX/cQCg/t+GQc+Vf+qPL/Gf+F/9n/o/HxGp/1f/r/7f+2froO1Hgv9S8HPOQ9Cm+pjGe5I+A5yizas1/iEKgZ/GHxp/0JPU/9AT1P+q/1X/a92DdxDWybY9bc4r/Yfnqf8lLhp/mDVMH2AVayFK07PnJf9aRMfYoMZ4KTFf1g1Ynh2eTPrGJVmnXl+V2o+xOd0zL6eqfqJnYBGbih8BzaB2A9PlyZOFv+xP/vf1+Se8Tfxj/CH+BZOKf9mfqP+BR1hnQjToHd7D9gTMtMNzv2P9L4lygI0U/9nzE//BFsR/dGjxHzziZec/8J5bu/hP/BfUJ/4T/4n/1f+p/1P/H30Ce0frIXsDUqUdnvsd+/2n8Y/Gf9l6zX5t6DO3xz94HRKuDGQqKu7lmRHbZIcrZyMI+CylNzOrcQVGnqv0OnxNo12t+oU/zcRQaA3NbIcGlS0k21aviXn8MZlWBspGtuwvY0SM57D/8R3w1Bxuvzma2p+ZgaxgpCP+ISLiX4CQedIshPLL1/9MTeHTsLYdtexf/i/+o6sbCuI/4zvi4cfLyX9zefxrhq7xX7Fv8b/4n8Yg/g8QXv7xr/g/nrHG/+J/8b/4X/0fvhHmpGirKYIfaRnN4S9NkACfcbdpMr9CpL4X2/z1Xace1U8IhX8xFMLROWR/2evkf0/NP/YOwJwtTEz8QyTEPwQhbKIbin/EP2YRLw3/siFh7OI/PlvxH0EwK592Ev+J/8woXhr+a01c/Ec0xH8EobWLKov/xH9mDeK/p/79bT7W8TPxL21L/EsQzMumncS/4l8zCvGv+HcaO8ycQM9xWpl5/sm3RmRZvSRkfzGcHTA+rgadUMs5/e+Cmflf6PPKKuerEWSpFhwlqv4MIgLh71Yh+ys+VPwm/KUNmZn/VZ+T/xELulLBBBgVHEtiBlL8k40og0ZYGuwKbkzvPbLtEdwKq+yvYpHRQ5ClFihHU/YHHDI66v/cJmbT//jLW/YXFib/q+Qk/iEC4l+C4LYg/s04VJrIyHh675mZ+V91K41/KhYZPQRZqsAGlvK/bEQI5H9uFbM5/mGJsj/5n1uW+KeSsyMi/nWCIBriX7cJ8W95n1XGLY5M98zM/K+6lcZ/FYuMHoIsPXf+LVsj2pMsd4WYOX8sHI3nXBtgjWr1Q4UhX7JAIf7oeJpaZECnU0OrqPoJZDUUwzcD5PA2VmSZ9ST8ZX/yv7784+M7Yy+zkY6HiX8aDiFGHXQQF/8YQOJfdu/FHAyT9qT+54Xvf2xXezzEjoeL/6oVa/wJLDrWgbj43wxE/C/+pyG0fGmGkU/q/174/s+elPq/LsO39qz+Dyai/q81iUJ46v/U/5FAu8ZhlGon9X/q/9C3xmv+aWYSGep/uz1MC5T6X1DJt9f/YkUYrJEHHwLF9mHkJAT5cF23YyjmSyM3wigzsnub4+uAXTt0VT/wEP6yP/lf0IiFwSGe6LGn4R8rYd5kqUP8kxEW/4t/aQrin8INFLJ35DSPPQ3/WEH8oZiP58E/HI9Fu4ok/5f/y//Ff5WanKqCqJrYd53/9PuzPmTxf+4J1f+p/1P/p/6vUmPT40Un6Fyh/o94AKhMnYFOhNGnRLbe//YaVY0HVnr/DesR/4p/q2sYnQSHOLd47FnwL1aE5SOE8pKGdxR3hbARXbWX3qpCFBVFt4zpWtAwodBAVVH9GTYCVDFtReFPiGR/YR1uMBFrfMozDKsQXWvu+t+kORI+jWhANFgFaYl/sqkQoGpTrSj+IUTin7AON5iINT7lGYZViK41d/nnhWg//tpsKm99ErRXftSK/7Kp8klVm25F8R8hEv+FdbjBREz8VzjFgTFbCdFREv87nzS2EqCJf7Op0FKqT7Wi+JcQiX/DOtxgItb4lGcYViG6lvhH/EOLaGxF/Osuov4nUwWZonJKK6r/IUTqf8I63GAi1nCKZxhWIbqW+p8Xrf8Zshsy8is9QX5mEWcURo+opTTJ7gpM4OONjAiRipct82yJHz9U5ntkWi7UvTzE7NJ+19dyVL/wl/3J/4wRGlr4RvwDPprEgrAJUI7RHjkK62KnpjA5BjKyvzZgHmI8nLk8JFfZh1v5Itk0Jp3V7KUyroiLopzJhv+YbYWjfuqjDNVPgIW/7E/+923yj9MVyQr/QEVOREFevSHyoaf+19DKJ2JiqNg5g2hprYLGv03/5z2ld5GwObcn2Z/8jy5kJNTjP8FDTBb/iH8zszZm8Y3G/zQn8Y/4F3Zkb6Q0/hH/qv+xPpbUmFm2CT1N/Y/6H+t61f/SIezQ+CPG7RESlmog36Xfv3ivy9ttbr9EimAPfaZTaOb3u3y3Wb4vaNeFwmMK6WSXSBEec1VNDs2oN8KiEQoloSt0skukCF3lPrHQjHojLKqhUBK6Qie7RIrQVe4TC82oN8KiGgoloSt0skukCF3lPrHQjHojLKqhUBK6Qie7RIrQVe4TC82oN8KiGgoloSt0skukCF3lPrHQjHojLKqhUBK6Qie7RIrQVe4TC82oN8KiGgoloSt0skukCF3lPrHQjHojLKqhUBK6Qie7RIrQVe4TC82oN8KiGgpIeP/jw0ZOnNDyyazQcqXo7I3E+QIG2TybLjKZzzSeXGYiZtY4UmQKZNY/wKtcAVKUwHKoxkkw1S/8aSBx0DLsp7mZkeyP1iH/c6uYff7ZuG5l2rJxrRmf15HtsESKEAb62DA0g3cjLBeEQknoCp3sEilCV7lPLDSj3giLaiiUhK7QyS6RInSV+8RCM+qNsKiGQknoCp3sEilCV7lPLDSj3giLaiiUhK7QyS6RInSV+8RCM+qNsKiGQknoCp3sEilCV7lPLDSj3giLaiiUhK7QyS6RInSV+8RCM+qNsKiGQknoCp3sEilCV7lPLDSj3giLaiiUhK7QyS6RInSV+8RCM+qNsKiGQknoCp3sEilCV7lPLDSj3giLaiiUhK7QyS6RInSV+8RCM+qNsKiGQknoCp3sEilCV7lPLDSj3giLaiiUhK7QyS6RInSV+8RCM+qNsKiGQknoCp3sEilCV7lPLDSj3giLaiiUhK7QyS6RInSV+8RCM+qNsKiGQknoCp3sEilCV7lPLDSj3giLaiiUhK7QyS6RInSV+8RCM+qNsKiGQknoCp3sEilCV7lPLDSj3giLaiiUhK7QyS6RInSV+8RCM+qNsKiGQknoCp3sEilCV7lPLDSj3giLaiiUhK7QyS6RInSV+8RCM+qNsKiGQknoCp3sEilCV7lPLDSj3giLaiiUhK7QyS6RInSV+8RCM+qNsKiGQknoCp3sEilCV7lPLDSj3giLaiiUhK7QyS6RInSV+8RCM+qNsKiGQknoCp3sEilCV7lPLDSj3giLaiiUhK7QyS6RInSV+8RCM+qNsKiGQknoCp3sEilCV7lPLDSj3giLaiiUhK7QyS6RInSV+8RCM+qNsKiGQknoCp3sEilCV7lPLDSj3giLaiiUhK7QyS6RInSV+8RCM+qNsKiGQknoCp3sEilCV7lPLDSj3giLaiiUhK7QyS6RInSV+8RCM+qNsKiGQknoCp3sEilCV7lPLDSj3giLaiiUhK5g2XkerOT4Nd0rO2nTaimXPkaoZZmEU/nrgj5XdOrK+Z001W8v0vtA95gkR4+ZJuEk/O1dc1+8OraWNTppsr/vtP1duHgd9u9TMHzRjkVbddIe8xL2eN1T/JzT6D02uZWfv9lEnugyM4E8bXLL8t16qGMSTqpf+NM0ZH/yv+fFP8uWLEojI8NGXe3J2apyFvM6aer/mg6jRe5xcsXSJJw0/iL39T86tpZVOmmyP9kf/pDo6x9uPdQ3CSf5n/zvcRbU4ZpsZJ008Y/4R/zz9ek3jx7Fv+p/1P+COjX+0PgLgw+NP/p3IZ2x1rc4/rIVYfWW/DYsXsQidJMRizGhaXTVapHTrurJ6kSbQopYhGklqX4fkxpCXZg6qOYuuCetX7QppIhFEP5AoEVD9if7428is4nWMKa51oyZjXajV8QiyP/kf+If2EAMIsW/4l/xr/of6yG73WTTp1KcMbPRbfSKWATTa2PiH/GP+Ef8Y5zQEkPDKC7OmNloN3pFLIL4Bwi0aIh/xb/iX/GvcUJLDA2jujhjZqPd6BWxCKbXxsQ/4h/xz8vBPz0TYT0DDbh+vHRq2CKLTgktMUzXqSm92hbvc3Gb1Mq1pJA8d2ad0I12VW2TarQotkmtXBSK4Lkz6xTlPICr2ibVaFFsk1q5KBTBc2fWKcqqH1DERltExXDrA16b1MoVyZA8d2ad0JX99aJl8T7gtUmtXJEMyXNn1gld4d+LlsX7gNcmtXJFMiTPnVkndIV/L1oW7wNem9TKFcmQPHdmndAV/r1oWbwPeG1SK1ckQ/LcmXVCV/j3omXxPuC1Sa1ckQzJc2fWCV3h34uWxfuA1ya1ckUyJM+dWSd0hX8vWhbvA16b1MoVyZA8d2ad0BX+vWhZvA94bVIrVyRD8tyZdUJX+PeiZfE+4LVJrVyRDMlzZ9YJXeHfi5bF+4DXJrVyRTIkz51ZJ3SFfy9aFu8DXpvUyhXJkDx3Zp3QFf69aFm8D3htUitXJEPy3Jl1Qlf496Jl8T7gtUmtXJEMyXNn1gld4d+LlsX7gNcmtXJFMiTPnVkndIV/L1oW7wNem9TKFcmQPHdmndAV/r1oWbwBbyCgYhqPduLL5fxdG5s6cB0Xmdv9ykvOtfQqu+Rl+TVMsUkJTzQF1d/i1MrC320jLATYmCj7k/+JfxoKddKwc+MrOdX13GeYJP4FRg14gViTlLPFv45NIATjMdFtqcUrm1oo1Cgk1/NrmCH7A4gNeIFukyT7MwuS/7lthIUAFBPdl1p7MbgyZlV2yfX8GqbI/wBiA16g2yTJ/8x05H9uG2EhAMVE96XWXgyujFmVXXI9v4Yp8j+A2IAX6DZJ8j8zHfmf20ZYCEAx0X2ptReDK2NWZZdcz69hivwPIDbgBbpNkvzPTEf+57YRFgJQTHRfau3F4MqYVdkl1/NrmCL/A4gNeIFukyT/M9OR/7lthIUAFBPdl1p7MbgyZlV2yfX8GqbI/wBiAx4mwhzgklbwDoFfMnHoLGjE7mvoMNisEJfbRYjk+BQ3aLcjQs+IWOiVC1C76idgBaEiCv8GExhONTmk1wiwQyTHZX+BWYQOTMQCpwKY/E/80+HrSkXin+I1xjGVcpBeI+If8W+xB/U/4TMRqv8hvQYalTeCQDT+dWwKQgUs9T8NJjCcsBgDqEbU/6j/Uf+T/UH9b3BGhA5MxCqJBIGo/3FsCkLqfzIU6n8bm1D/W6mDo9mgDw5uGclx8W/YTIQOTMQCpwKY3r/p/Zv5ULEQ9T8ZitnsfzARFgBnpiqVGPpGYjknEkrID//VIwZM2YWjWCjYDSNO9Xn5onppKOYU1W+QVnzaH7gVbUrCv8VD9tfxpIgAIvkfwMD/4h/xr/of71lq/xJEkVNytOar/6lYtP2N+l+NP1p70PijwyQR0fhD4y8OvvA/eVT9r/cmtU8JR8kpOVrz1f9WLFq+Vf+r/re1B/W/HSaJiPpf9b/qfzX+AB+wH9X4y0cTdUwRRJlTcrTma/xVsWj725dr/GVbI/Kjf2SK9pHPe8zKLVMNZMxoEPEC3NOspACMecZBluA21p5dT/UTB+Ev+wvHIslkRuYgxg7Ps3OoWRYi8r8WooKYkQ/gCQQ9bM/5MsNT/if/C8eS/4l/uqwRgxuzkDATU0FE/Cv+JQLZLsJy1P/QN9T/hj142J41/jC3Mb/R+Evjr0ygMAqNP7qsEZ2LIRQwmQoiGn9kIvUgkFP/S9tQ/xv24GF7zmZj/qT+R/2PGYIZhfqfrteo/3HbsHOYiUGEiPrf73z/+/8BNJYF8cUpWEUAAAAASUVORK5CYII=;" vertex="1" parent="1">
          <mxGeometry x="1165" y="80" width="1730" height="152" as="geometry" />
        </mxCell>
        <mxCell id="rCrafW-iuFekdM2OdFgw-4" value="所属应用" style="rounded=1;whiteSpace=wrap;html=1;strokeColor=none;fontSize=21;" vertex="1" parent="1">
          <mxGeometry x="2210" y="240" width="160" height="60" as="geometry" />
        </mxCell>
        <mxCell id="rCrafW-iuFekdM2OdFgw-5" value="" style="rounded=1;whiteSpace=wrap;html=1;strokeColor=none;fontSize=21;" vertex="1" parent="1">
          <mxGeometry x="2600" y="245" width="140" height="50" as="geometry" />
        </mxCell>
        <mxCell id="rCrafW-iuFekdM2OdFgw-6" value="" style="rounded=1;whiteSpace=wrap;html=1;strokeColor=none;fontSize=21;" vertex="1" parent="1">
          <mxGeometry x="2940" y="245" width="140" height="50" as="geometry" />
        </mxCell>
      </root>
    </mxGraphModel>
  </diagram>
</mxfile>
